<?xml version="1.0" encoding="UTF-8" standalone="no"?>
<!DOCTYPE svg PUBLIC "-//W3C//DTD SVG 1.1//EN" "http://www.w3.org/Graphics/SVG/1.1/DTD/svg11.dtd">
<svg version="1.1" xmlns="http://www.w3.org/2000/svg" xmlns:xlink="http://www.w3.org/1999/xlink" preserveAspectRatio="xMidYMid meet" viewBox="0 0 191 573" width="191" height="573"><defs><path d="M107.85 112.19C111.42 114.94 113.2 116.97 113.2 118.28C113.2 121 108.33 125.56 102.46 127.54C99.62 128.49 95.77 128.02 93.62 128.02C87.01 128.02 81.19 122.13 81.19 118.11C81.19 114.07 90.54 108.9 97.15 108.9C98.13 108.9 100.17 109.37 103.27 110.31C104.18 110.69 107.39 112 107.85 112.19Z" id="ceXNVT72U"></path><path d="M103.95 119.07C103.95 124.14 99.1 128.26 94.12 128.26C89.14 128.26 85.09 124.14 85.09 119.07C85.09 113.99 89.14 109.87 94.12 109.87C96.54 109.87 100.4 109.23 102.02 110.81C103.75 112.49 103.95 116.45 103.95 119.07Z" id="a1LHUk0gJX"></path><path d="M105.71 107.34C108.31 109.15 113.99 113.12 116.77 115.06C117.78 115.77 117.94 117.2 117.11 118.11C116.69 118.6 115.61 119.77 113.9 121.67C113.24 122.08 109.92 124.11 103.95 127.77C106.84 124.66 108.44 122.93 108.76 122.58C109.62 120.66 110.16 119.46 110.37 118.98C111.07 117.43 110.72 115.61 109.51 114.41C109.21 114.12 108.43 113.37 107.21 112.17C106.77 111.93 103.3 110.01 102.86 109.77C98.96 109.59 96.52 109.47 95.54 109.44C93.08 109.32 90.65 110 88.61 111.38C87.62 112.05 85.15 113.72 81.19 116.4C84.15 112.75 85.99 110.47 86.74 109.56C88.26 107.68 90.47 106.5 92.88 106.28C94.88 106.1 97.35 105.86 99.41 105.67C101.64 105.47 103.87 106.06 105.71 107.34Z" id="b2zsk42URn"></path><path d="M105.71 107.34C108.31 109.15 113.99 113.12 116.77 115.06C117.78 115.77 117.94 117.2 117.11 118.11C116.69 118.6 115.61 119.77 113.9 121.67C113.24 122.08 109.92 124.11 103.95 127.77C106.84 124.66 108.44 122.93 108.76 122.58C109.62 120.66 110.16 119.46 110.37 118.98C111.07 117.43 110.72 115.61 109.51 114.41C109.21 114.12 108.43 113.37 107.21 112.17C106.77 111.93 103.3 110.01 102.86 109.77C98.96 109.59 96.52 109.47 95.54 109.44C93.08 109.32 90.65 110 88.61 111.38C87.62 112.05 85.15 113.72 81.19 116.4C84.15 112.75 85.99 110.47 86.74 109.56C88.26 107.68 90.47 106.5 92.88 106.28C94.88 106.1 97.35 105.86 99.41 105.67C101.64 105.47 103.87 106.06 105.71 107.34Z" id="a1iBAOFsPx"></path><path d="M93.51 121.14C92.38 121.14 91.46 119.96 91.46 118.52C91.46 117.07 92.38 115.9 93.51 115.9C94.65 115.9 95.57 117.07 95.57 118.52C95.57 119.96 94.65 121.14 93.51 121.14Z" id="eUAWsu5od"></path><path d="M101.38 116.25C99.07 116.25 97.2 115.58 97.2 114.76C97.2 113.94 99.07 113.27 101.38 113.27C103.69 113.27 105.57 113.94 105.57 114.76C105.57 115.58 103.69 116.25 101.38 116.25Z" id="b1oBLIObmY"></path><path d="M101.91 121.88C103.39 122.35 99.4 123.85 99.4 124.51C99.4 125.96 96.37 127.13 93.51 127.13C90.66 127.13 88.34 125.96 88.34 124.51C88.34 123.06 84.52 121.88 87.38 121.88C88.2 121.88 92.83 122.47 94.52 122.58C96.09 122.7 101.04 121.62 101.91 121.88Z" id="a2JnfTdiA0"></path><path d="M54.28 126.54C47.63 126.54 42.99 122.23 42.99 117.07C42.99 111.89 48.39 107.7 55.04 107.7C61.7 107.7 67.76 111.89 67.76 117.07C67.76 122.23 60.93 126.54 54.28 126.54Z" id="ecRTcvOce"></path><path d="M59 120.57C60.02 120.94 57.26 122.19 57.26 122.71C57.26 123.9 55.16 124.87 53.19 124.87C51.21 124.87 49.61 123.9 49.61 122.71C49.61 121.53 46.96 120.57 48.94 120.57C49.5 120.57 52.71 121.05 53.88 121.14C54.96 121.23 58.4 120.35 59 120.57Z" id="b1tV6VR9dh"></path><path d="M54.24 125.98C50.44 125.98 47.34 121.99 47.34 117.07C47.34 112.14 50.44 108.14 54.24 108.14C58.05 108.14 61.14 112.14 61.14 117.07C61.14 121.99 58.05 125.98 54.24 125.98Z" id="b13Bl5wyES"></path><path d="M59.23 115.82C58.14 115.82 57.26 115.46 57.26 115C57.26 114.54 58.14 114.17 59.23 114.17C60.31 114.17 61.19 114.54 61.19 115C61.19 115.46 60.31 115.82 59.23 115.82Z" id="d1vXYnot2D"></path><path d="M45.6 112.81C46.72 111.39 47.59 110.57 48.2 110.35C48.4 110.27 52.9 109.56 53.11 109.49C56.58 108.45 58.01 110.35 61.2 112.21C64.39 114.06 65.26 114.57 63.82 113.73C65.18 114.52 66.83 114.58 68.24 113.89C68.24 113.89 68.24 113.89 68.24 113.89C65 111.44 62.97 109.91 62.16 109.29C60.25 107.84 57.96 106.96 55.56 106.75C53.81 106.6 53.1 106.53 51.57 106.4C48.62 106.14 45.73 107.42 43.95 109.79C43.46 110.43 42.26 112.04 40.32 114.59C40.57 115.04 41.79 117.29 43.99 121.34L43.08 115.16C44.59 113.75 45.43 112.97 45.6 112.81Z" id="g6vMNkUcA"></path><path d="M45.6 112.81C46.72 111.39 47.59 110.57 48.2 110.35C48.4 110.27 52.9 109.56 53.11 109.49C56.58 108.45 58.01 110.35 61.2 112.21C64.39 114.06 65.26 114.57 63.82 113.73C65.18 114.52 66.83 114.58 68.24 113.89C68.24 113.89 68.24 113.89 68.24 113.89C65 111.44 62.97 109.91 62.16 109.29C60.25 107.84 57.96 106.96 55.56 106.75C53.81 106.6 53.1 106.53 51.57 106.4C48.62 106.14 45.73 107.42 43.95 109.79C43.46 110.43 42.26 112.04 40.32 114.59C40.57 115.04 41.79 117.29 43.99 121.34L43.08 115.16C44.59 113.75 45.43 112.97 45.6 112.81Z" id="atbKUKrIj"></path><path d="M52.35 119.87C51.56 119.87 50.91 118.9 50.91 117.7C50.91 116.5 51.56 115.53 52.35 115.53C53.14 115.53 53.78 116.5 53.78 117.7C53.78 118.9 53.14 119.87 52.35 119.87Z" id="f3t17sC1Y"></path><path d="M72.6 138.61C71.99 137.84 71.6 137.35 71.45 137.15C70.59 136.06 70.53 134.53 71.31 133.37C71.76 132.69 72.9 130.99 74.72 128.26" id="a9mO1ErFrP"></path><path d="M69.01 102.61C67.4 101.79 66.39 101.28 65.99 101.08C61.99 99.06 57.61 97.9 53.14 97.67C51.73 97.6 52.98 97.66 51.25 97.58C47.89 97.41 44.56 98.24 41.69 99.95C41.6 100.01 41.37 100.14 41 100.37" id="mqyhZ2IMT"></path><path d="M83.49 102.14C87.44 100.41 89.91 99.32 90.9 98.89C93.98 97.54 97.3 96.84 100.67 96.84C102.16 96.84 101.61 96.84 103.12 96.84C106.38 96.84 109.57 97.79 112.32 99.56C113.31 100.2 115.79 101.8 119.77 104.37" id="e334pftqaw"></path><path d="M89.42 151.74C85.77 152.54 83.74 152.99 83.34 153.08C82.72 153.22 82.34 153.31 82.18 153.33C79.01 154.03 75.75 154.27 72.52 154.04C71.73 153.98 69.79 153.84 66.69 153.63" id="aHG4PCMuk"></path></defs><g><g><g><use xlink:href="#ceXNVT72U" opacity="1" fill="#f5f5f5" fill-opacity="1"></use><g><use xlink:href="#ceXNVT72U" opacity="1" fill-opacity="0" stroke="#000000" stroke-width="1" stroke-opacity="0"></use></g></g><g><use xlink:href="#a1LHUk0gJX" opacity="1" fill="#3c14ad" fill-opacity="1"></use><g><use xlink:href="#a1LHUk0gJX" opacity="1" fill-opacity="0" stroke="#000000" stroke-width="1" stroke-opacity="0"></use></g></g><g><use xlink:href="#b2zsk42URn" opacity="1" fill="#000000" fill-opacity="1"></use><g><use xlink:href="#b2zsk42URn" opacity="1" fill-opacity="0" stroke="#000000" stroke-width="1" stroke-opacity="0"></use></g></g><g><use xlink:href="#a1iBAOFsPx" opacity="1" fill="#000000" fill-opacity="0"></use><g><use xlink:href="#a1iBAOFsPx" opacity="1" fill-opacity="0" stroke="#000000" stroke-width="1" stroke-opacity="1"></use></g></g><g><use xlink:href="#eUAWsu5od" opacity="1" fill="#000000" fill-opacity="1"></use><g><use xlink:href="#eUAWsu5od" opacity="1" fill-opacity="0" stroke="#000000" stroke-width="1" stroke-opacity="0"></use></g></g><g><use xlink:href="#b1oBLIObmY" opacity="1" fill="#ffffff" fill-opacity="1"></use><g><use xlink:href="#b1oBLIObmY" opacity="1" fill-opacity="0" stroke="#000000" stroke-width="1" stroke-opacity="0"></use></g></g><g><use xlink:href="#a2JnfTdiA0" opacity="1" fill="#5c32d4" fill-opacity="1"></use><g><use xlink:href="#a2JnfTdiA0" opacity="1" fill-opacity="0" stroke="#000000" stroke-width="1" stroke-opacity="0"></use></g></g><g><use xlink:href="#ecRTcvOce" opacity="1" fill="#f5f5f5" fill-opacity="1"></use><g><use xlink:href="#ecRTcvOce" opacity="1" fill-opacity="0" stroke="#000000" stroke-width="1" stroke-opacity="0"></use></g></g><g><use xlink:href="#b1tV6VR9dh" opacity="1" fill="#5c32d4" fill-opacity="1"></use><g><use xlink:href="#b1tV6VR9dh" opacity="1" fill-opacity="0" stroke="#000000" stroke-width="1" stroke-opacity="0"></use></g></g><g><use xlink:href="#b13Bl5wyES" opacity="1" fill="#3c14ad" fill-opacity="1"></use><g><use xlink:href="#b13Bl5wyES" opacity="1" fill-opacity="0" stroke="#000000" stroke-width="1" stroke-opacity="0"></use></g></g><g><use xlink:href="#d1vXYnot2D" opacity="1" fill="#ffffff" fill-opacity="1"></use><g><use xlink:href="#d1vXYnot2D" opacity="1" fill-opacity="0" stroke="#000000" stroke-width="1" stroke-opacity="0"></use></g></g><g><use xlink:href="#g6vMNkUcA" opacity="1" fill="#000000" fill-opacity="1"></use><g><use xlink:href="#g6vMNkUcA" opacity="1" fill-opacity="0" stroke="#000000" stroke-width="1" stroke-opacity="0"></use></g></g><g><use xlink:href="#atbKUKrIj" opacity="1" fill="#000000" fill-opacity="0"></use><g><use xlink:href="#atbKUKrIj" opacity="1" fill-opacity="0" stroke="#000000" stroke-width="1" stroke-opacity="1"></use></g></g><g><use xlink:href="#f3t17sC1Y" opacity="1" fill="#000000" fill-opacity="1"></use><g><use xlink:href="#f3t17sC1Y" opacity="1" fill-opacity="0" stroke="#000000" stroke-width="1" stroke-opacity="0"></use></g></g><g><use xlink:href="#a9mO1ErFrP" opacity="1" fill="#000000" fill-opacity="0"></use><g><use xlink:href="#a9mO1ErFrP" opacity="1" fill-opacity="0" stroke="#000000" stroke-width="2" stroke-opacity="1"></use></g></g><g><use xlink:href="#mqyhZ2IMT" opacity="1" fill="#000000" fill-opacity="0"></use><g><use xlink:href="#mqyhZ2IMT" opacity="1" fill-opacity="0" stroke="#000000" stroke-width="3" stroke-opacity="1"></use></g></g><g><use xlink:href="#e334pftqaw" opacity="1" fill="#000000" fill-opacity="0"></use><g><use xlink:href="#e334pftqaw" opacity="1" fill-opacity="0" stroke="#000000" stroke-width="3" stroke-opacity="1"></use></g></g><g><use xlink:href="#aHG4PCMuk" opacity="1" fill="#000000" fill-opacity="0"></use><g><use xlink:href="#aHG4PCMuk" opacity="1" fill-opacity="0" stroke="#000000" stroke-width="2" stroke-opacity="1"></use></g></g></g></g></svg>