<?xml version="1.0" encoding="UTF-8" standalone="no"?>
<!DOCTYPE svg PUBLIC "-//W3C//DTD SVG 1.1//EN" "http://www.w3.org/Graphics/SVG/1.1/DTD/svg11.dtd">
<svg version="1.1" xmlns="http://www.w3.org/2000/svg" xmlns:xlink="http://www.w3.org/1999/xlink" preserveAspectRatio="xMidYMid meet" viewBox="0 0 191 573" width="191" height="573"><defs><path d="M69.6 184.19C63.91 186.88 59 190.94 55.29 196.01C53.09 199.02 51.99 200.51 49.75 203.56C46.15 208.49 43.66 214.14 42.46 220.13C42.01 222.32 40.92 227.81 39.15 236.59C39.98 236.98 44.15 238.93 51.65 242.44C57.61 222.67 60.93 211.68 61.59 209.49C58.89 218.3 57.19 223.81 56.52 226.01C56.52 226.01 50.6 250 50.6 250C50.22 251.96 51.06 247.57 50.6 250C49.37 256.51 48.74 263.11 48.74 269.72C48.74 272.47 48.74 271.06 48.74 273.87C48.74 273.87 47.56 292.94 47.56 292.94C46.37 302.44 43.45 325.77 42.12 336.36C41.85 338.47 43.57 340.31 45.7 340.18C52.62 339.77 61.6 339.24 66.59 338.95C75.7 338.41 84.84 338.59 93.94 339.47C100.99 340.15 116.87 341.69 126.01 342.58C127.68 342.74 129.07 341.36 128.93 339.69C128.53 335.27 127.56 324.22 126 306.54C126.09 304.83 126.55 296.26 127.37 280.82L129.21 266.45C129.21 259.74 129.21 256.02 129.21 255.27C128.04 250.61 127.31 247.69 127.02 246.53C126.39 244.01 127.17 241.34 129.06 239.55C130.96 237.74 128.13 240.44 128.66 239.93C135.01 233.92 143.53 230.73 152.27 231.12C152.79 231.14 149.45 230.99 152.16 231.11C153.37 231.17 154.19 229.91 153.66 228.82C150.18 221.75 144.51 210.22 141.93 204.96C138.26 197.5 132.12 191.53 124.55 188.07C121.56 186.7 117.28 184.74 112.53 182.58C110.68 181.72 108.54 181.73 106.7 182.59C103.58 184.04 95.81 187.64 83.37 193.41C82.86 192.73 80.3 189.34 75.68 183.23L69.6 184.19C69.6 184.19 69.6 184.19 69.6 184.19Z" id="d55Gvz4H0W"></path><path d="M69.6 184.19C63.91 186.88 59 190.94 55.29 196.01C53.09 199.02 51.99 200.51 49.75 203.56C46.15 208.49 43.66 214.14 42.46 220.13C42.01 222.32 40.92 227.81 39.15 236.59C39.98 236.98 44.15 238.93 51.65 242.44C57.61 222.67 60.93 211.68 61.59 209.49C58.89 218.3 57.19 223.81 56.52 226.01C56.52 226.01 50.6 250 50.6 250C50.22 251.96 51.06 247.57 50.6 250C49.37 256.51 48.74 263.11 48.74 269.72C48.74 272.47 48.74 271.06 48.74 273.87C48.74 273.87 47.56 292.94 47.56 292.94C46.37 302.44 43.45 325.77 42.12 336.36C41.85 338.47 43.57 340.31 45.7 340.18C52.62 339.77 61.6 339.24 66.59 338.95C75.7 338.41 84.84 338.59 93.94 339.47C100.99 340.15 116.87 341.69 126.01 342.58C127.68 342.74 129.07 341.36 128.93 339.69C128.53 335.27 127.56 324.22 126 306.54C126.09 304.83 126.55 296.26 127.37 280.82L129.21 266.45C129.21 259.74 129.21 256.02 129.21 255.27C128.04 250.61 127.31 247.69 127.02 246.53C126.39 244.01 127.17 241.34 129.06 239.55C130.96 237.74 128.13 240.44 128.66 239.93C135.01 233.92 143.53 230.73 152.27 231.12C152.79 231.14 149.45 230.99 152.16 231.11C153.37 231.17 154.19 229.91 153.66 228.82C150.18 221.75 144.51 210.22 141.93 204.96C138.26 197.5 132.12 191.53 124.55 188.07C121.56 186.7 117.28 184.74 112.53 182.58C110.68 181.72 108.54 181.73 106.7 182.59C103.58 184.04 95.81 187.64 83.37 193.41C82.86 192.73 80.3 189.34 75.68 183.23L69.6 184.19C69.6 184.19 69.6 184.19 69.6 184.19Z" id="jADaUZhyD"></path><path d="M122.3 229.58C122.3 234.53 127.26 243.93 125.36 243.18C123.71 242.51 116.92 239.39 116.92 234.33C116.92 229.77 114.38 230.19 115.48 227.22C116.98 223.12 115.36 215.2 116.92 215.2C118.59 215.2 118.72 216.55 119.74 220.17C120.38 222.38 122.3 225.46 122.3 229.58Z" id="a5Db6rTBsQ"></path><path d="M117.81 215.2L126.79 241.8" id="fP9RWYN8A"></path><path d="M151.81 228.49C151.81 229.79 149.07 229.03 147.15 225.69C144.22 220.56 140.92 210.67 134.34 202.98C127.69 195.19 114.26 187.39 112.25 187.39C106.94 187.39 97.26 195.58 97.26 190.28C97.26 187.46 100.66 187.85 102.84 186.43C104.78 185.17 108.54 182.96 111.04 182.96C113.38 182.96 125.64 187.05 134.34 196.44C145.41 208.4 151.81 225.52 151.81 228.49Z" id="a4D3yur3Kd"></path></defs><g><g><g><use xlink:href="#d55Gvz4H0W" opacity="1" fill="#fb03b6" fill-opacity="1"></use><g><use xlink:href="#d55Gvz4H0W" opacity="1" fill-opacity="0" stroke="#000000" stroke-width="1" stroke-opacity="0"></use></g></g><g><use xlink:href="#jADaUZhyD" opacity="1" fill="#000000" fill-opacity="0"></use><g><use xlink:href="#jADaUZhyD" opacity="1" fill-opacity="0" stroke="#000000" stroke-width="3" stroke-opacity="1"></use></g></g><g><use xlink:href="#a5Db6rTBsQ" opacity="1" fill="#ac1181" fill-opacity="1"></use><g><use xlink:href="#a5Db6rTBsQ" opacity="1" fill-opacity="0" stroke="#000000" stroke-width="1" stroke-opacity="0"></use></g></g><g><use xlink:href="#fP9RWYN8A" opacity="1" fill="#000000" fill-opacity="0"></use><g><use xlink:href="#fP9RWYN8A" opacity="1" fill-opacity="0" stroke="#000000" stroke-width="3" stroke-opacity="1"></use></g></g><g><use xlink:href="#a4D3yur3Kd" opacity="1" fill="#ac1181" fill-opacity="1"></use><g><use xlink:href="#a4D3yur3Kd" opacity="1" fill-opacity="0" stroke="#000000" stroke-width="1" stroke-opacity="0"></use></g></g></g></g></svg>