<?xml version="1.0" encoding="UTF-8" standalone="no"?>
<!DOCTYPE svg PUBLIC "-//W3C//DTD SVG 1.1//EN" "http://www.w3.org/Graphics/SVG/1.1/DTD/svg11.dtd">
<svg version="1.1" xmlns="http://www.w3.org/2000/svg" xmlns:xlink="http://www.w3.org/1999/xlink" preserveAspectRatio="xMidYMid meet" viewBox="0 0 191 573" width="191" height="573"><defs><path d="M40.45 374.62C41.06 399.87 41.39 413.89 41.46 416.7C41.68 418.47 41.82 419.57 41.87 420.02C41.87 420.02 43.28 443.16 43.28 443.16C43.28 445.15 43.28 443.83 43.28 446.91C43.28 450.07 46.25 452.39 49.32 451.61C52.72 450.75 55.7 450 58.81 449.22C63.79 447.96 69 447.82 74.04 448.79C77.19 449.39 82.56 450.44 86.61 451.21C88.13 451.51 89.47 450.19 89.2 448.67C88.65 445.56 87.25 437.78 85.02 425.34C82.18 412.98 80.39 405.25 79.68 402.16C79.2 400.11 82.14 399.18 82.94 401.12C84.31 404.45 84.43 404.76 86.8 410.5C86.8 410.5 92.19 425.16 92.19 425.16C92.46 426.01 93.16 428.14 94.26 431.54C96.87 443.68 98.5 451.27 99.14 454.3C99.4 455.47 100.76 455.98 101.72 455.27C104.98 452.84 106.74 451.53 108.51 450.23C114.54 445.73 122.26 444.13 129.59 445.84C132.61 446.55 136.31 447.41 140.88 448.47C142.53 448.86 143.98 447.29 143.44 445.67C142.74 443.53 140.98 438.17 138.17 429.59C133.84 420.56 131.12 414.91 130.05 412.66C127.42 407.17 124.36 401.89 120.91 396.86C120.91 396.86 120.91 396.86 120.91 396.86C118.81 390.75 117.5 386.93 116.97 385.39C115.77 381.91 115.44 378.18 116.03 374.53C116.26 373.06 116.48 371.68 116.81 369.58C117.07 367.97 117.66 366.43 118.55 365.07C119.25 364.01 119.97 362.91 120.67 361.85C121.56 360.48 122.58 359.21 123.72 358.03C122.57 359.21 122.57 359.21 123.72 358.03C126.71 354.96 129.53 355.8 130.39 351.64C130.56 350.79 130.31 346.69 130.39 345.82C130.4 345.67 130.41 345.17 130.41 344.34C130.4 341.23 129.97 338.14 129.14 335.15C128.33 332.23 126.85 326.91 125.96 323.72C125.45 321.85 123.74 320.58 121.8 320.64C113.92 320.86 105.66 321.1 100.81 321.24C88.56 321.59 76.3 321.01 64.14 319.51C60.49 319.05 58.05 318.75 51.96 318C48.36 317.55 44.89 319.55 43.47 322.89C42.87 324.3 43.95 321.75 43.47 322.89C41.48 327.57 40.37 332.6 40.18 337.7C40.09 340.34 39.84 346.94 39.47 357.49C39.6 359.78 39.93 365.49 40.45 374.62Z" id="afl0eqFmO"></path><path d="M40.45 374.62C41.06 399.87 41.39 413.89 41.46 416.7C41.68 418.47 41.82 419.57 41.87 420.02C41.87 420.02 43.28 443.16 43.28 443.16C43.28 445.15 43.28 443.83 43.28 446.91C43.28 450.07 46.25 452.39 49.32 451.61C52.72 450.75 55.7 450 58.81 449.22C63.79 447.96 69 447.82 74.04 448.79C77.19 449.39 82.56 450.44 86.61 451.21C88.13 451.51 89.47 450.19 89.2 448.67C88.65 445.56 87.25 437.78 85.02 425.34C82.18 412.98 80.39 405.25 79.68 402.16C79.2 400.11 82.14 399.18 82.94 401.12C84.31 404.45 84.43 404.76 86.8 410.5C86.8 410.5 92.19 425.16 92.19 425.16C92.46 426.01 93.16 428.14 94.26 431.54C96.87 443.68 98.5 451.27 99.14 454.3C99.4 455.47 100.76 455.98 101.72 455.27C104.98 452.84 106.74 451.53 108.51 450.23C114.54 445.73 122.26 444.13 129.59 445.84C132.61 446.55 136.31 447.41 140.88 448.47C142.53 448.86 143.98 447.29 143.44 445.67C142.74 443.53 140.98 438.17 138.17 429.59C133.84 420.56 131.12 414.91 130.05 412.66C127.42 407.17 124.36 401.89 120.91 396.86C120.91 396.86 120.91 396.86 120.91 396.86C118.81 390.75 117.5 386.93 116.97 385.39C115.77 381.91 115.44 378.18 116.03 374.53C116.26 373.06 116.48 371.68 116.81 369.58C117.07 367.97 117.66 366.43 118.55 365.07C119.25 364.01 119.97 362.91 120.67 361.85C121.56 360.48 122.58 359.21 123.72 358.03C122.57 359.21 122.57 359.21 123.72 358.03C126.71 354.96 129.53 355.8 130.39 351.64C130.56 350.79 130.31 346.69 130.39 345.82C130.4 345.67 130.41 345.17 130.41 344.34C130.4 341.23 129.97 338.14 129.14 335.15C128.33 332.23 126.85 326.91 125.96 323.72C125.45 321.85 123.74 320.58 121.8 320.64C113.92 320.86 105.66 321.1 100.81 321.24C88.56 321.59 76.3 321.01 64.14 319.51C60.49 319.05 58.05 318.75 51.96 318C48.36 317.55 44.89 319.55 43.47 322.89C42.87 324.3 43.95 321.75 43.47 322.89C41.48 327.57 40.37 332.6 40.18 337.7C40.09 340.34 39.84 346.94 39.47 357.49C39.6 359.78 39.93 365.49 40.45 374.62Z" id="aoviy7oxT"></path><path d="M128.83 346.26C128.83 348.34 129.38 350.66 128.83 352.29C128.6 352.99 127.44 353.58 127.14 353.94C126.68 354.5 121.9 358.09 118.62 362.22C117.45 363.68 115.31 370.15 114.51 374.31C114.4 374.85 114.61 385.01 117.69 392.31C119.27 396.06 122.84 401.69 126.12 407.93C127.88 411.29 129.22 414.83 130.87 418.33C132.69 422.17 134.87 425.98 136.36 429.49C139.94 437.89 141.85 444.61 141.88 446.06C141.96 450.5 120.51 405.14 118.62 401.29C116.73 397.43 114.71 390.48 114.51 390.48C112.8 390.48 111.5 378.16 113.33 367.82C113.9 364.66 117.19 359.12 118.03 356.19C119.27 351.88 120.16 346.69 120.16 345.29C120.16 339.8 117.18 333.4 120.16 333.4C121.9 333.4 125.72 330.48 127.14 333.4C128.15 335.47 128.83 343.98 128.83 346.26Z" id="b7uynMYD1v"></path><path d="M71.76 378.54L83.33 402.42" id="a1S1pzjSBX"></path><path d="M51.43 318.22C55.68 318.51 66.31 319.23 83.33 320.37C104.18 319.78 117.22 319.41 122.44 319.27C124.13 319.22 125.65 320.3 126.16 321.92C126.35 322.56 126.85 324.16 127.64 326.7C127.89 327.86 128.05 328.58 128.1 328.87C128.52 330.81 126.96 332.6 124.98 332.45C119.5 332.02 105.8 330.96 83.87 329.28C83.85 329.28 83.64 329.28 83.61 329.28C61.97 329.28 48.45 329.28 43.05 329.28C41.72 329.28 40.73 328.07 41.01 326.77C41.2 325.88 40.69 328.32 40.73 328.09C41.5 324.41 43.78 321.21 47 319.28C47.42 319.04 45.99 319.89 47 319.28C48.34 318.49 49.88 318.12 51.43 318.22Z" id="gqDhvDxx0"></path><path d="M51.43 318.22C55.68 318.51 66.31 319.23 83.33 320.37C104.18 319.78 117.22 319.41 122.44 319.27C124.13 319.22 125.65 320.3 126.16 321.92C126.35 322.56 126.85 324.16 127.64 326.7C127.89 327.86 128.05 328.58 128.1 328.87C128.52 330.81 126.96 332.6 124.98 332.45C119.5 332.02 105.8 330.96 83.87 329.28C83.85 329.28 83.64 329.28 83.61 329.28C61.97 329.28 48.45 329.28 43.05 329.28C41.72 329.28 40.73 328.07 41.01 326.77C41.2 325.88 40.69 328.32 40.73 328.09C41.5 324.41 43.78 321.21 47 319.28C47.42 319.04 45.99 319.89 47 319.28C48.34 318.49 49.88 318.12 51.43 318.22Z" id="b4qwlscNt"></path><path d="M83.35 330.58C78.72 330.39 67.16 329.94 62.77 329.76C61.37 329.72 60.3 328.51 60.39 327.12C60.52 325.27 60.75 321.76 60.89 319.79C60.97 318.72 61.87 317.91 62.93 317.94C67.36 318.05 78.75 318.35 83.17 318.48C84.23 318.51 85.05 319.38 85.02 320.43C84.97 322.47 84.85 327.09 84.79 329.23C84.77 330.01 84.12 330.61 83.35 330.58Z" id="cZqJBZmCz"></path><path d="M83.35 330.58C78.72 330.39 67.16 329.94 62.77 329.76C61.37 329.72 60.3 328.51 60.39 327.12C60.52 325.27 60.75 321.76 60.89 319.79C60.97 318.72 61.87 317.91 62.93 317.94C67.36 318.05 78.75 318.35 83.17 318.48C84.23 318.51 85.05 319.38 85.02 320.43C84.97 322.47 84.85 327.09 84.79 329.23C84.77 330.01 84.12 330.61 83.35 330.58Z" id="b4LGqQt4w"></path><path d="M63.24 331.16C63.31 333.17 63.36 334.44 63.38 334.95C63.73 344.69 65.16 354.36 67.65 363.79C68.2 365.86 69.57 371.05 71.76 379.34C71.86 376.13 72.4 360.07 73.36 331.16C67.29 331.16 63.92 331.16 63.24 331.16Z" id="f23RW3jfsG"></path><path d="M129.89 351.25C127.76 351.05 126.44 350.93 125.9 350.87C119.41 350.25 113.95 345.72 112.15 339.45C111.85 338.42 111.12 335.85 109.92 331.73" id="ae78SZYnQ"></path><path d="M52.93 328.74C52.66 329.85 52.49 330.55 52.43 330.83C50.96 337.07 47.06 342.47 41.6 345.83C41.31 346.01 40.6 346.44 39.47 347.14" id="f6bpElRxec"></path><path d="M115.14 331.73L128.17 331.73" id="erCwSMqhE"></path><path d="M79.43 406.86C80.16 412.92 81.93 418.21 83.33 423.83C87.01 438.72 84.11 430.42 85.02 434.42C87.44 444.97 89 451.2 87.86 451.2C86.28 451.2 73.36 430.1 73.36 413.66C73.36 397.21 71.78 383.85 73.36 383.85C74.1 383.85 77.9 390.33 79.43 397.72C79.95 400.22 79.12 404.32 79.43 406.86Z" id="a2n8VITWDq"></path><path d="M78.04 514.38C84.54 514.43 92.68 513.95 96.14 514.7C97.42 514.97 95.98 515.72 96.57 516.28C97.27 516.95 90.83 519.51 86.46 523.03C81.73 526.83 79.49 535.47 79.49 536.31C79.49 537.36 78.69 545.56 81.3 552C83.47 557.37 89.25 561.19 88.31 561.83C85.87 563.51 75.13 561.99 63.42 561.83C44.7 561.58 22.01 561.83 15.35 561.83C1 561.83 0 541.93 0 534.05C0 529.4 6.19 520.92 16.34 516.86C23.38 514.04 33.67 514.7 39.56 514.7C40.81 514.7 42.41 514.69 44.27 514.66C52.73 514.56 66.61 514.28 78.04 514.38Z" id="d54elMvSYp"></path><path d="M78.04 514.38C84.54 514.43 92.68 513.95 96.14 514.7C97.42 514.97 95.98 515.72 96.57 516.28C97.27 516.95 90.83 519.51 86.46 523.03C81.73 526.83 79.49 535.47 79.49 536.31C79.49 537.36 78.69 545.56 81.3 552C83.47 557.37 89.25 561.19 88.31 561.83C85.87 563.51 75.13 561.99 63.42 561.83C44.7 561.58 22.01 561.83 15.35 561.83C1 561.83 0 541.93 0 534.05C0 529.4 6.19 520.92 16.34 516.86C23.38 514.04 33.67 514.7 39.56 514.7C40.81 514.7 42.41 514.69 44.27 514.66C52.73 514.56 66.61 514.28 78.04 514.38Z" id="b6t6aEPScy"></path><path d="M94.26 503.08C94.26 504.39 94.83 507.79 95.95 513.28C75.6 513.28 63.96 513.28 61.01 513.28C57.99 513.28 49.91 513.61 47.76 512.15C45.01 510.31 47.15 505.22 47.15 502.11C47.15 496.56 46.65 492.06 53.51 492.06C57.9 492.06 81.79 491 89.71 493.78C94.17 495.35 94.26 501.08 94.26 503.08Z" id="h4WEj1Y2x"></path><path d="M94.26 503.08C94.26 504.39 94.83 507.79 95.95 513.28C75.6 513.28 63.96 513.28 61.01 513.28C57.99 513.28 49.91 513.61 47.76 512.15C45.01 510.31 47.15 505.22 47.15 502.11C47.15 496.56 46.65 492.06 53.51 492.06C57.9 492.06 81.79 491 89.71 493.78C94.17 495.35 94.26 501.08 94.26 503.08Z" id="a33Iy8rSiu"></path><path d="M21.21 552.57C24.9 556.36 34.52 556 41.46 556.17C53.81 556.48 56.11 557.07 56.11 558.97C56.11 561.8 51.47 560.31 41.94 560.1C33.48 559.93 24.72 560.1 22.22 560.1C20.18 560.1 15.54 561.4 11.32 558.97C9.66 558.01 8.08 558.08 6.73 556.17C5.48 554.41 4.45 550.67 3.78 549.51C2.75 547.75 2.03 539.92 2.13 535.03C2.2 532.03 2.96 531.14 2.96 530.46C2.96 525.11 16.87 517.46 22.22 517.46C23.55 517.46 11.92 523.86 9.17 533.39C7.05 540.72 17.64 548.9 21.21 552.57Z" id="k28ovnzNIL"></path><path d="M148.45 560.3C144.06 561.59 136.35 562.63 130.13 562.61C111.94 562.56 89.97 560.1 87.86 560.1C85.42 560.1 82.18 557.16 80.8 552.43C79.06 546.41 79.51 538.13 79.51 535.92C79.51 533.66 82.14 527.16 86.25 522.86C89.3 519.68 94.32 516.76 96.68 516.76C102.24 516.76 158.3 514.5 158.3 518.43C158.3 520.36 164.99 555.46 148.45 560.3Z" id="b1XbS83LGH"></path><path d="M148.45 560.3C144.06 561.59 136.35 562.63 130.13 562.61C111.94 562.56 89.97 560.1 87.86 560.1C85.42 560.1 82.18 557.16 80.8 552.43C79.06 546.41 79.51 538.13 79.51 535.92C79.51 533.66 82.14 527.16 86.25 522.86C89.3 519.68 94.32 516.76 96.68 516.76C102.24 516.76 158.3 514.5 158.3 518.43C158.3 520.36 164.99 555.46 148.45 560.3Z" id="biveOgLkg"></path><path d="M105.99 552.41C124.76 557.93 148.74 554.26 148.74 557.58C148.74 562.92 96.86 558.54 91.51 558.54C86.17 558.54 81.6 555.49 81.6 550.15C81.6 544.8 78.19 534.98 83.53 534.98C84.65 534.98 84.49 541.77 88.79 545.55C92.32 548.64 100.82 550.89 105.99 552.41Z" id="c9Bv5FjNOj"></path><path d="M110.62 516.11C105.28 516.11 109.38 503.19 109.38 497.85C109.38 492.5 145.63 495.59 150.98 495.59C156.33 495.59 157 508.94 157 514.27C157 519.62 115.97 516.11 110.62 516.11Z" id="a1pJBmyzB"></path><path d="M110.62 516.11C105.28 516.11 109.38 503.19 109.38 497.85C109.38 492.5 145.63 495.59 150.98 495.59C156.33 495.59 157 508.94 157 514.27C157 519.62 115.97 516.11 110.62 516.11Z" id="a3iPiatL9F"></path></defs><g><g><g><use xlink:href="#afl0eqFmO" opacity="1" fill="#2c1903" fill-opacity="1"></use><g><use xlink:href="#afl0eqFmO" opacity="1" fill-opacity="0" stroke="#000000" stroke-width="1" stroke-opacity="0"></use></g></g><g><use xlink:href="#aoviy7oxT" opacity="1" fill="#000000" fill-opacity="0"></use><g><use xlink:href="#aoviy7oxT" opacity="1" fill-opacity="0" stroke="#000000" stroke-width="3" stroke-opacity="1"></use></g></g><g><use xlink:href="#b7uynMYD1v" opacity="1" fill="#110a01" fill-opacity="1"></use><g><use xlink:href="#b7uynMYD1v" opacity="1" fill-opacity="0" stroke="#000000" stroke-width="1" stroke-opacity="0"></use></g></g><g><use xlink:href="#a1S1pzjSBX" opacity="1" fill="#000000" fill-opacity="0"></use><g><use xlink:href="#a1S1pzjSBX" opacity="1" fill-opacity="0" stroke="#000000" stroke-width="3" stroke-opacity="1"></use></g></g><g><use xlink:href="#gqDhvDxx0" opacity="1" fill="#141516" fill-opacity="1"></use><g><use xlink:href="#gqDhvDxx0" opacity="1" fill-opacity="0" stroke="#000000" stroke-width="1" stroke-opacity="0"></use></g></g><g><use xlink:href="#b4qwlscNt" opacity="1" fill="#000000" fill-opacity="0"></use><g><use xlink:href="#b4qwlscNt" opacity="1" fill-opacity="0" stroke="#000000" stroke-width="2" stroke-opacity="1"></use></g></g><g><use xlink:href="#cZqJBZmCz" opacity="1" fill="#9da0a1" fill-opacity="1"></use><g><use xlink:href="#cZqJBZmCz" opacity="1" fill-opacity="0" stroke="#000000" stroke-width="1" stroke-opacity="0"></use></g></g><g><use xlink:href="#b4LGqQt4w" opacity="1" fill="#000000" fill-opacity="0"></use><g><use xlink:href="#b4LGqQt4w" opacity="1" fill-opacity="0" stroke="#000000" stroke-width="2" stroke-opacity="1"></use></g></g><g><use xlink:href="#f23RW3jfsG" opacity="1" fill="#000000" fill-opacity="0"></use><g><use xlink:href="#f23RW3jfsG" opacity="1" fill-opacity="0" stroke="#000000" stroke-width="2" stroke-opacity="1"></use></g></g><g><use xlink:href="#ae78SZYnQ" opacity="1" fill="#000000" fill-opacity="0"></use><g><use xlink:href="#ae78SZYnQ" opacity="1" fill-opacity="0" stroke="#000000" stroke-width="2" stroke-opacity="1"></use></g></g><g><use xlink:href="#f6bpElRxec" opacity="1" fill="#000000" fill-opacity="0"></use><g><use xlink:href="#f6bpElRxec" opacity="1" fill-opacity="0" stroke="#000000" stroke-width="2" stroke-opacity="1"></use></g></g><g><use xlink:href="#erCwSMqhE" opacity="1" fill="#000000" fill-opacity="0"></use><g><use xlink:href="#erCwSMqhE" opacity="1" fill-opacity="0" stroke="#000000" stroke-width="2" stroke-opacity="1"></use></g></g><g><use xlink:href="#a2n8VITWDq" opacity="1" fill="#110a01" fill-opacity="1"></use><g><use xlink:href="#a2n8VITWDq" opacity="1" fill-opacity="0" stroke="#000000" stroke-width="1" stroke-opacity="0"></use></g></g><g><use xlink:href="#d54elMvSYp" opacity="1" fill="#1c1b1b" fill-opacity="1"></use><g><use xlink:href="#d54elMvSYp" opacity="1" fill-opacity="0" stroke="#000000" stroke-width="1" stroke-opacity="0"></use></g></g><g><use xlink:href="#b6t6aEPScy" opacity="1" fill="#000000" fill-opacity="0"></use><g><use xlink:href="#b6t6aEPScy" opacity="1" fill-opacity="0" stroke="#000000" stroke-width="3" stroke-opacity="1"></use></g></g><g><use xlink:href="#h4WEj1Y2x" opacity="1" fill="#dfdfdf" fill-opacity="1"></use><g><use xlink:href="#h4WEj1Y2x" opacity="1" fill-opacity="0" stroke="#000000" stroke-width="1" stroke-opacity="0"></use></g></g><g><use xlink:href="#a33Iy8rSiu" opacity="1" fill="#000000" fill-opacity="0"></use><g><use xlink:href="#a33Iy8rSiu" opacity="1" fill-opacity="0" stroke="#000000" stroke-width="3" stroke-opacity="1"></use></g></g><g><use xlink:href="#k28ovnzNIL" opacity="1" fill="#3e3e3e" fill-opacity="1"></use><g><use xlink:href="#k28ovnzNIL" opacity="1" fill-opacity="0" stroke="#000000" stroke-width="1" stroke-opacity="0"></use></g></g><g><use xlink:href="#b1XbS83LGH" opacity="1" fill="#1c1b1b" fill-opacity="1"></use><g><use xlink:href="#b1XbS83LGH" opacity="1" fill-opacity="0" stroke="#000000" stroke-width="1" stroke-opacity="0"></use></g></g><g><use xlink:href="#biveOgLkg" opacity="1" fill="#000000" fill-opacity="0"></use><g><use xlink:href="#biveOgLkg" opacity="1" fill-opacity="0" stroke="#000000" stroke-width="3" stroke-opacity="1"></use></g></g><g><use xlink:href="#c9Bv5FjNOj" opacity="1" fill="#3e3e3e" fill-opacity="1"></use><g><use xlink:href="#c9Bv5FjNOj" opacity="1" fill-opacity="0" stroke="#000000" stroke-width="1" stroke-opacity="0"></use></g></g><g><use xlink:href="#a1pJBmyzB" opacity="1" fill="#dfdfdf" fill-opacity="1"></use><g><use xlink:href="#a1pJBmyzB" opacity="1" fill-opacity="0" stroke="#000000" stroke-width="1" stroke-opacity="0"></use></g></g><g><use xlink:href="#a3iPiatL9F" opacity="1" fill="#000000" fill-opacity="0"></use><g><use xlink:href="#a3iPiatL9F" opacity="1" fill-opacity="0" stroke="#000000" stroke-width="3" stroke-opacity="1"></use></g></g></g></g></svg>