<?xml version="1.0" encoding="UTF-8" standalone="no"?>
<!DOCTYPE svg PUBLIC "-//W3C//DTD SVG 1.1//EN" "http://www.w3.org/Graphics/SVG/1.1/DTD/svg11.dtd">
<svg version="1.1" xmlns="http://www.w3.org/2000/svg" xmlns:xlink="http://www.w3.org/1999/xlink" preserveAspectRatio="xMidYMid meet" viewBox="0 0 191 573" width="191" height="573"><defs><path d="M178.71 330.11C178.71 336.19 171.13 338.54 163.21 338.54C158.78 338.54 148.06 338.85 144.8 335.79C142.24 333.38 145.42 330.49 145.42 327.81C145.42 321.74 146.11 319.1 154.03 319.1C157 319.1 172.13 317.91 174.83 319.1C179.32 321.08 178.71 326.31 178.71 330.11Z" id="d17Jflr7sX"></path><path d="M178.71 330.11C178.71 336.19 171.13 338.54 163.21 338.54C158.78 338.54 148.06 338.85 144.8 335.79C142.24 333.38 145.42 330.49 145.42 327.81C145.42 321.74 146.11 319.1 154.03 319.1C157 319.1 172.13 317.91 174.83 319.1C179.32 321.08 178.71 326.31 178.71 330.11Z" id="a4AlLaDmm4"></path><path d="M165.74 342.54C158.57 342.54 152.74 336.11 152.74 328.19C152.74 320.27 158.57 313.85 165.74 313.85C172.91 313.85 178.74 320.27 178.74 328.19C178.74 336.11 172.91 342.54 165.74 342.54Z" id="d3F24wENhI"></path><path d="M165.74 342.54C158.57 342.54 152.74 336.11 152.74 328.19C152.74 320.27 158.57 313.85 165.74 313.85C172.91 313.85 178.74 320.27 178.74 328.19C178.74 336.11 172.91 342.54 165.74 342.54Z" id="cUr5HAyDx"></path><path d="M171.84 336.61L165.74 327.14" id="a3OhSo5ZQh"></path><path d="M171.84 327.14L165.74 327.14" id="e1IMYuBJPU"></path></defs><g><g><g><use xlink:href="#d17Jflr7sX" opacity="1" fill="#231e0a" fill-opacity="1"></use><g><use xlink:href="#d17Jflr7sX" opacity="1" fill-opacity="0" stroke="#000000" stroke-width="1" stroke-opacity="0"></use></g></g><g><use xlink:href="#a4AlLaDmm4" opacity="1" fill="#000000" fill-opacity="0"></use><g><use xlink:href="#a4AlLaDmm4" opacity="1" fill-opacity="0" stroke="#000000" stroke-width="4" stroke-opacity="1"></use></g></g><g><use xlink:href="#d3F24wENhI" opacity="1" fill="#a69968" fill-opacity="1"></use><g><use xlink:href="#d3F24wENhI" opacity="1" fill-opacity="0" stroke="#000000" stroke-width="1" stroke-opacity="0"></use></g></g><g><use xlink:href="#cUr5HAyDx" opacity="1" fill="#000000" fill-opacity="0"></use><g><use xlink:href="#cUr5HAyDx" opacity="1" fill-opacity="0" stroke="#000000" stroke-width="4" stroke-opacity="1"></use></g></g><g><use xlink:href="#a3OhSo5ZQh" opacity="1" fill="#000000" fill-opacity="0"></use><g><use xlink:href="#a3OhSo5ZQh" opacity="1" fill-opacity="0" stroke="#0d1846" stroke-width="2" stroke-opacity="1"></use></g></g><g><use xlink:href="#e1IMYuBJPU" opacity="1" fill="#000000" fill-opacity="0"></use><g><use xlink:href="#e1IMYuBJPU" opacity="1" fill-opacity="0" stroke="#0d1846" stroke-width="2" stroke-opacity="1"></use></g></g></g></g></svg>