<?xml version="1.0" encoding="UTF-8" standalone="no"?>
<!DOCTYPE svg PUBLIC "-//W3C//DTD SVG 1.1//EN" "http://www.w3.org/Graphics/SVG/1.1/DTD/svg11.dtd">
<svg version="1.1" xmlns="http://www.w3.org/2000/svg" xmlns:xlink="http://www.w3.org/1999/xlink" preserveAspectRatio="xMidYMid meet" viewBox="0 0 191 573" width="191" height="573"><defs><path d="M179.26 326.17C183.12 330.35 183.65 339.03 183.65 344.93C183.65 358.18 179.69 351.58 165.2 351.58C150.71 351.58 142.95 355.18 142.95 341.93C142.95 335.9 144.33 330.39 148.35 326.17C153.17 321.12 161.31 326.17 169.2 326.17C177.24 326.17 174.44 320.95 179.26 326.17Z" id="bna9q0Rtq"></path><path d="M150.64 338.54C150.64 341.85 151.71 348.62 148.6 348.62C146.06 348.62 146.06 345.59 145.35 343.13C145.19 342.58 145.94 334.99 145.94 334.37C145.94 332.42 149.14 328.52 152.4 327.5C154.67 326.78 156.97 328.62 158.25 328.62C161.36 328.62 150.64 335.23 150.64 338.54Z" id="bMkfOWnWh"></path></defs><g><g><g><use xlink:href="#bna9q0Rtq" opacity="1" fill="#daa20e" fill-opacity="1"></use><g><use xlink:href="#bna9q0Rtq" opacity="1" fill-opacity="0" stroke="#000000" stroke-width="3" stroke-opacity="1"></use></g></g><g><use xlink:href="#bMkfOWnWh" opacity="1" fill="#e0b952" fill-opacity="1"></use></g></g></g></svg>