<?xml version="1.0" encoding="UTF-8" standalone="no"?>
<!DOCTYPE svg PUBLIC "-//W3C//DTD SVG 1.1//EN" "http://www.w3.org/Graphics/SVG/1.1/DTD/svg11.dtd">
<svg version="1.1" xmlns="http://www.w3.org/2000/svg" xmlns:xlink="http://www.w3.org/1999/xlink" preserveAspectRatio="xMidYMid meet" viewBox="271.01724058273055 222.04812275214357 123.77451456391901 171.596504759729" width="119.27" height="167.1"><defs><path d="M304.18 225.89C304.18 225.89 304.18 225.89 304.18 225.89C298.28 228.68 293.16 232.91 289.3 238.18C287.01 241.31 285.87 242.86 283.55 246.04C279.79 251.16 277.2 257.04 275.95 263.27C275.5 265.55 274.35 271.26 272.52 280.39L285.52 286.48L295.85 252.2C293.04 261.37 291.29 267.1 290.58 269.39C290.58 269.39 284.42 294.34 284.42 294.34C284.04 296.38 284.9 291.81 284.42 294.34C283.14 301.11 282.5 307.97 282.5 314.85C282.5 317.71 282.5 316.24 282.5 319.17C282.5 319.17 281.26 339 281.26 339C280.02 348.88 276.98 373.15 275.6 384.16C275.33 386.36 277.11 388.27 279.33 388.14C286.52 387.71 295.86 387.16 301.06 386.86C310.54 386.3 320.05 386.48 329.5 387.4C336.84 388.11 353.35 389.71 362.86 390.63C364.59 390.8 366.04 389.36 365.89 387.63C365.49 383.03 364.47 371.54 362.85 353.15L364.28 326.4L366.18 311.45L366.18 299.81C364.97 294.97 364.22 291.94 363.91 290.73C363.26 288.1 364.07 285.33 366.03 283.47C368.01 281.59 365.06 284.39 365.61 283.86C372.22 277.61 381.08 274.3 390.17 274.7C390.71 274.72 387.24 274.57 390.06 274.69C391.32 274.75 392.17 273.44 391.62 272.31C388 264.94 382.11 252.96 379.42 247.49C375.6 239.72 369.22 233.52 361.34 229.92C358.24 228.5 353.78 226.46 348.85 224.21C346.92 223.32 344.7 223.33 342.77 224.22C339.54 225.72 331.45 229.48 318.52 235.48L310.52 224.89L304.18 225.89Z" id="bMVAbHFFQ"></path><path d="M355.54 262.25C356.2 264.55 358.2 267.75 358.2 272.04C358.2 277.19 363.36 286.97 361.38 286.18C359.66 285.49 352.6 282.24 352.6 276.98C352.6 272.24 349.96 272.67 351.1 269.58C352.66 265.32 350.98 257.08 352.6 257.08C354.34 257.08 354.47 258.49 355.54 262.25Z" id="a3LOUu2Rbr"></path><path d="M353.53 257.08L362.87 284.75" id="ajX8Htw3P"></path><path d="M370.72 237.57C382.24 250.01 388.89 267.82 388.89 270.91C388.89 272.26 386.04 271.47 384.05 267.99C381 262.66 377.56 252.37 370.72 244.37C363.8 236.27 349.84 228.16 347.74 228.16C342.22 228.16 332.15 236.67 332.15 231.16C332.15 228.23 335.69 228.64 337.96 227.16C339.97 225.85 343.89 223.55 346.49 223.55C348.92 223.55 361.67 227.8 370.72 237.57Z" id="j14hRalUuA"></path></defs><g><g><use xlink:href="#bMVAbHFFQ" opacity="1" fill="#0313fb" fill-opacity="1"></use><g><use xlink:href="#bMVAbHFFQ" opacity="1" fill-opacity="0" stroke="#000000" stroke-width="3" stroke-opacity="1"></use></g></g><g><use xlink:href="#a3LOUu2Rbr" opacity="1" fill="#0e18b3" fill-opacity="1"></use></g><g><g><use xlink:href="#ajX8Htw3P" opacity="1" fill-opacity="0" stroke="#000000" stroke-width="3" stroke-opacity="1"></use></g></g><g><use xlink:href="#j14hRalUuA" opacity="1" fill="#0e18b3" fill-opacity="1"></use></g></g></svg>