<?xml version="1.0" encoding="UTF-8" standalone="no"?>
<!DOCTYPE svg PUBLIC "-//W3C//DTD SVG 1.1//EN" "http://www.w3.org/Graphics/SVG/1.1/DTD/svg11.dtd">
<svg version="1.1" xmlns="http://www.w3.org/2000/svg" xmlns:xlink="http://www.w3.org/1999/xlink" preserveAspectRatio="xMidYMid meet" viewBox="0 0 640 640" width="627" height="627"><defs><path d="M230.64 162.54C268.42 156.2 316.97 159.65 345.28 201.35C373.59 243.06 394.03 256.84 377.74 304.94C361.46 353.04 342.49 383.17 314.29 415.64C286.09 448.11 173.38 578.93 145.57 569.18C83.67 547.47 110.39 397.07 110.39 348.11C110.39 277.14 138.47 208.62 162.34 185.77C186.21 162.91 221.19 164.12 230.64 162.54Z" id="eDzkl4RGW"></path><path d="M354.96 63.85C371.44 66.52 379.66 85.33 370.42 99.25C358.52 117.18 339.21 146.26 326.47 165.44C316.92 179.83 300.11 187.67 282.94 185.73C277 185.07 288.54 186.36 282.94 185.73C266.03 183.83 253.25 169.52 253.25 152.5C253.25 131.47 253.25 98.46 253.25 77.48C253.25 61.67 267.41 49.62 283.01 52.16C304.43 55.64 334.61 60.54 354.96 63.85Z" id="ctH6HAo2i"></path><path d="M270.13 172.66L281.82 64.87" id="dD1Kgmrzd"></path><path d="M291.43 175.78L303.12 67.99" id="c17JrhfsSv"></path><path d="M309.12 175.78L330.88 69.56" id="f4OSnj4yEJ"></path><path d="M370.13 309.66C350.41 308.85 338.09 308.34 333.16 308.14C290.91 306.39 249.09 298.85 208.89 285.72C207.54 285.28 204.14 284.17 198.7 282.39" id="g17BQdDMnm"></path><path d="M256.49 373.25C242.89 370.83 234.39 369.32 230.98 368.71C201.2 363.42 172.7 352.53 146.97 336.61C143.4 334.4 134.45 328.86 120.13 320" id="c1nNcu0Sn"></path><path d="M358.56 255.12C334.07 251.8 318.76 249.73 312.64 248.9C275.5 243.87 239.53 232.35 206.37 214.88C203.08 213.14 194.86 208.81 181.7 201.87" id="b3CJG0CyUa"></path><path d="M270.13 448.62C256.12 448.62 247.37 448.62 243.87 448.62C217.13 448.62 191.01 440.56 168.93 425.49C167.36 424.42 163.43 421.74 157.14 417.45" id="e19p67Wqhp"></path></defs><g><g><g><use xlink:href="#eDzkl4RGW" opacity="1" fill="#fba604" fill-opacity="1"></use></g><g><use xlink:href="#ctH6HAo2i" opacity="1" fill="#92dd14" fill-opacity="1"></use></g><g><g><use xlink:href="#dD1Kgmrzd" opacity="1" fill-opacity="0" stroke="#659713" stroke-width="5" stroke-opacity="1"></use></g></g><g><g><use xlink:href="#c17JrhfsSv" opacity="1" fill-opacity="0" stroke="#659713" stroke-width="5" stroke-opacity="1"></use></g></g><g><g><use xlink:href="#f4OSnj4yEJ" opacity="1" fill-opacity="0" stroke="#659713" stroke-width="5" stroke-opacity="1"></use></g></g><g><g><use xlink:href="#g17BQdDMnm" opacity="1" fill-opacity="0" stroke="#bc7d03" stroke-width="5" stroke-opacity="1"></use></g></g><g><g><use xlink:href="#c1nNcu0Sn" opacity="1" fill-opacity="0" stroke="#bc7d03" stroke-width="5" stroke-opacity="1"></use></g></g><g><g><use xlink:href="#b3CJG0CyUa" opacity="1" fill-opacity="0" stroke="#bc7d03" stroke-width="5" stroke-opacity="1"></use></g></g><g><g><use xlink:href="#e19p67Wqhp" opacity="1" fill-opacity="0" stroke="#bc7d03" stroke-width="5" stroke-opacity="1"></use></g></g></g></g></svg>