<?xml version="1.0" encoding="UTF-8" standalone="no"?>
<!DOCTYPE svg PUBLIC "-//W3C//DTD SVG 1.1//EN" "http://www.w3.org/Graphics/SVG/1.1/DTD/svg11.dtd">
<svg version="1.1" xmlns="http://www.w3.org/2000/svg" xmlns:xlink="http://www.w3.org/1999/xlink" preserveAspectRatio="xMidYMid meet" viewBox="293.6188049316407 125.08359822635386 88.29795827632165 84.88648400832527" width="84.3" height="80.89"><defs><path d="M361.41 160.48L366.27 162.47C370.06 165.39 371.95 167.54 371.95 168.94C371.95 171.82 366.78 176.66 360.55 178.76C357.54 179.77 353.45 179.27 351.17 179.27C344.16 179.27 337.98 173.02 337.98 168.75C337.98 164.47 347.9 158.98 354.92 158.98C355.96 158.98 358.12 159.48 361.41 160.48Z" id="byQCtFlKA"></path><path d="M360.09 161.01C361.92 162.79 362.13 166.99 362.13 169.77C362.13 175.15 356.99 179.52 351.7 179.52C346.42 179.52 342.12 175.15 342.12 169.77C342.12 164.38 346.42 160.01 351.7 160.01C354.27 160.01 358.37 159.33 360.09 161.01Z" id="b13bpmeQR"></path><path d="" id="b1ukOXdiDw"></path><path d="M357.32 155.56C359.68 155.34 362.05 155.97 364 157.33C366.76 159.25 372.79 163.46 375.74 165.52C376.81 166.27 376.98 167.79 376.1 168.76C375.65 169.27 374.51 170.52 372.69 172.53L362.13 179.01L367.24 173.5C368.15 171.46 368.72 170.19 368.95 169.68C369.69 168.03 369.32 166.1 368.03 164.83C367.71 164.52 366.89 163.72 365.59 162.45L360.98 159.91C356.84 159.71 354.25 159.59 353.21 159.55C350.6 159.43 348.02 160.15 345.86 161.61C344.81 162.32 342.18 164.1 337.98 166.94C341.12 163.07 343.08 160.65 343.87 159.68C345.48 157.69 347.83 156.44 350.39 156.2C352.51 156.01 355.13 155.76 357.32 155.56Z" id="j1RRxeZNJQ"></path><path d="M353.24 169.19C353.24 170.72 352.26 171.97 351.06 171.97C349.86 171.97 348.88 170.72 348.88 169.19C348.88 167.65 349.86 166.41 351.06 166.41C352.26 166.41 353.24 167.65 353.24 169.19Z" id="bIponRiX0"></path><path d="M363.85 165.2C363.85 166.07 361.86 166.78 359.41 166.78C356.96 166.78 354.97 166.07 354.97 165.2C354.97 164.33 356.96 163.62 359.41 163.62C361.86 163.62 363.85 164.33 363.85 165.2Z" id="e2YQMJJSdl"></path><path d="M352.13 173.5C353.79 173.62 359.05 172.48 359.97 172.76C361.54 173.25 357.3 174.85 357.3 175.55C357.3 177.08 354.09 178.33 351.06 178.33C348.03 178.33 345.57 177.08 345.57 175.55C345.57 174.01 341.52 172.76 344.55 172.76C345.42 172.76 350.33 173.38 352.13 173.5Z" id="b9PBhbf50"></path><path d="M323.73 167.65C323.73 173.13 316.49 177.7 309.43 177.7C302.37 177.7 297.45 173.13 297.45 167.65C297.45 162.16 303.18 157.71 310.24 157.71C317.3 157.71 323.73 162.16 323.73 167.65Z" id="a8kir7Vmm"></path><path d="M309 171.97C310.15 172.06 313.8 171.13 314.44 171.36C315.52 171.76 312.59 173.08 312.59 173.64C312.59 174.9 310.36 175.93 308.27 175.93C306.17 175.93 304.47 174.9 304.47 173.64C304.47 172.38 301.66 171.36 303.76 171.36C304.36 171.36 307.76 171.87 309 171.97Z" id="e1Lsbdi48"></path><path d="M316.71 167.65C316.71 172.87 313.43 177.11 309.39 177.11C305.35 177.11 302.07 172.87 302.07 167.65C302.07 162.42 305.35 158.18 309.39 158.18C313.43 158.18 316.71 162.42 316.71 167.65Z" id="g3GWxpoe49"></path><path d="M316.76 165.45C316.76 165.94 315.83 166.33 314.68 166.33C313.53 166.33 312.59 165.94 312.59 165.45C312.59 164.97 313.53 164.57 314.68 164.57C315.83 164.57 316.76 164.97 316.76 165.45Z" id="a2MlHZIvi"></path><path d="M297.54 165.62L300.22 163.13C301.41 161.62 302.33 160.75 302.98 160.52C303.19 160.44 307.97 159.68 308.19 159.61C311.87 158.5 313.39 160.52 316.77 162.49C320.16 164.46 321.08 165 319.55 164.11C320.99 164.95 322.75 165.01 324.24 164.28C324.24 164.28 324.24 164.28 324.24 164.28C320.8 161.68 318.65 160.05 317.79 159.4C315.76 157.86 313.33 156.92 310.79 156.7C308.93 156.54 308.18 156.47 306.55 156.33C303.42 156.05 300.36 157.41 298.47 159.93C297.95 160.61 296.67 162.31 294.62 165.02L298.51 172.18L297.54 165.62Z" id="a1zTtBe0s"></path><path d="M308.9 168.32C308.9 169.59 308.22 170.62 307.38 170.62C306.54 170.62 305.85 169.59 305.85 168.32C305.85 167.05 306.54 166.02 307.38 166.02C308.22 166.02 308.9 167.05 308.9 168.32Z" id="gmhw6wNg4"></path><path d="M328.87 190.51C328.22 189.69 327.81 189.17 327.65 188.96C326.74 187.8 326.67 186.18 327.5 184.95C327.98 184.23 329.19 182.42 331.12 179.52" id="b49wlSfR3L"></path><path d="M325.06 152.31C323.35 151.44 322.28 150.9 321.85 150.68C317.61 148.54 312.96 147.31 308.22 147.07C306.72 146.99 308.05 147.06 306.21 146.97C302.65 146.79 299.12 147.67 296.07 149.49C295.97 149.55 295.73 149.69 295.34 149.93" id="bnnkDIUc"></path><path d="M340.42 151.81C344.61 149.97 347.24 148.82 348.29 148.36C351.55 146.93 355.08 146.19 358.65 146.19C360.23 146.19 359.65 146.19 361.25 146.19C364.71 146.19 368.1 147.19 371.01 149.07C372.07 149.75 374.7 151.45 378.92 154.18" id="d1Cx41aqBX"></path><path d="M346.72 204.44L340.26 205.86C339.61 206.01 339.2 206.1 339.03 206.13C335.67 206.87 332.21 207.12 328.78 206.88C327.95 206.82 325.89 206.67 322.6 206.44" id="b1JTU7Ahgv"></path></defs><g><g><use xlink:href="#byQCtFlKA" opacity="1" fill="#f5f5f5" fill-opacity="1"></use></g><g><use xlink:href="#b13bpmeQR" opacity="1" fill="#3c14ad" fill-opacity="1"></use></g><g><g><use xlink:href="#b1ukOXdiDw" opacity="1" fill-opacity="0" stroke="#000000" stroke-width="1" stroke-opacity="1"></use></g></g><g><use xlink:href="#j1RRxeZNJQ" opacity="1" fill="#000000" fill-opacity="1"></use><g><use xlink:href="#j1RRxeZNJQ" opacity="1" fill-opacity="0" stroke="#000000" stroke-width="1" stroke-opacity="1"></use></g></g><g><use xlink:href="#bIponRiX0" opacity="1" fill="#000000" fill-opacity="1"></use></g><g><use xlink:href="#e2YQMJJSdl" opacity="1" fill="#ffffff" fill-opacity="1"></use></g><g><use xlink:href="#b9PBhbf50" opacity="1" fill="#5c32d4" fill-opacity="1"></use></g><g><use xlink:href="#a8kir7Vmm" opacity="1" fill="#f5f5f5" fill-opacity="1"></use></g><g><use xlink:href="#e1Lsbdi48" opacity="1" fill="#5c32d4" fill-opacity="1"></use></g><g><use xlink:href="#g3GWxpoe49" opacity="1" fill="#3c14ad" fill-opacity="1"></use></g><g><use xlink:href="#a2MlHZIvi" opacity="1" fill="#ffffff" fill-opacity="1"></use></g><g><use xlink:href="#a1zTtBe0s" opacity="1" fill="#000000" fill-opacity="1"></use><g><use xlink:href="#a1zTtBe0s" opacity="1" fill-opacity="0" stroke="#000000" stroke-width="1" stroke-opacity="1"></use></g></g><g><use xlink:href="#gmhw6wNg4" opacity="1" fill="#000000" fill-opacity="1"></use></g><g><g><use xlink:href="#b49wlSfR3L" opacity="1" fill-opacity="0" stroke="#000000" stroke-width="2" stroke-opacity="1"></use></g></g><g><g><use xlink:href="#bnnkDIUc" opacity="1" fill-opacity="0" stroke="#000000" stroke-width="3" stroke-opacity="1"></use></g></g><g><g><use xlink:href="#d1Cx41aqBX" opacity="1" fill-opacity="0" stroke="#000000" stroke-width="3" stroke-opacity="1"></use></g></g><g><g><use xlink:href="#b1JTU7Ahgv" opacity="1" fill-opacity="0" stroke="#000000" stroke-width="2" stroke-opacity="1"></use></g></g></g></svg>