<?xml version="1.0" encoding="UTF-8" standalone="no"?>
<!DOCTYPE svg PUBLIC "-//W3C//DTD SVG 1.1//EN" "http://www.w3.org/Graphics/SVG/1.1/DTD/svg11.dtd">
<svg version="1.1" xmlns="http://www.w3.org/2000/svg" xmlns:xlink="http://www.w3.org/1999/xlink" preserveAspectRatio="xMidYMid meet" viewBox="0 0 191 573" width="191" height="573"><defs><path d="M81.53 116.01C82.43 119.65 90.7 123.9 98.07 123.57C106.18 123.21 113.09 116.96 112.93 113.28C112.85 111.41 111.09 109.8 108.34 108.71C105.64 107.64 101.97 107.07 97.95 107.25C89.85 107.6 84.49 109.01 84.64 112.69C84.66 113.03 81.45 115.66 81.53 116.01Z" id="aD2nmoK5L"></path><path d="M96.52 116.39C95.37 116.39 94.45 115.46 94.45 114.32C94.45 113.18 95.37 112.25 96.52 112.25C97.66 112.25 98.59 113.18 98.59 114.32C98.59 115.46 97.66 116.39 96.52 116.39Z" id="ajuTtrmhx"></path><path d="M85.15 119.76C84.18 119.81 81.84 117.13 81.8 116.15C81.75 115.18 83.9 113.45 84.87 113.4C85.84 113.36 84.69 115.82 84.74 116.79C84.77 117.76 86.12 119.72 85.15 119.76Z" id="fPfZB1BdB"></path><path d="M97.79 121.22C93.8 121.38 90.41 118.08 90.22 113.84C90.03 109.59 93.12 105.99 97.12 105.83C101.11 105.65 104.5 108.95 104.68 113.2C104.87 117.44 101.78 121.04 97.79 121.22Z" id="bzWciLsMY"></path><path d="M106.46 120.88C107.12 120.49 107.54 120.24 107.7 120.14C109.35 119.16 110.73 117.78 111.7 116.12C111.95 115.68 111.61 116.27 111.96 115.67C112.56 114.64 112.39 113.33 111.55 112.49C109.93 110.86 108.75 109.81 108 109.35C106.91 108.66 103.53 107.67 102.27 107.35C100.64 106.93 98.49 107.07 96.78 107.31C96.4 107.36 95.36 107.52 93.67 107.77C91.11 108.15 88.72 109.34 86.85 111.15C86.21 111.77 84.63 113.31 82.09 115.78" id="b1P17jw0Sg"></path><path d="M103.61 117.76C101.82 117.84 100.33 117.1 100.3 116.11C100.25 115.12 101.67 114.25 103.45 114.17C105.24 114.09 106.73 114.83 106.78 115.82C106.81 116.81 105.4 117.69 103.61 117.76Z" id="a1H0O4Xgsy"></path><path d="M96.2 115.15C95.23 115.18 94.4 114.43 94.37 113.46C94.32 112.48 95.07 111.66 96.05 111.62C97.03 111.58 97.85 112.33 97.89 113.31C97.93 114.28 97.18 115.1 96.2 115.15Z" id="ebynTDDgA"></path><path d="M97.1 120.21C94.75 120.31 92.81 119.58 92.76 118.57C92.71 117.57 94.59 116.68 96.94 116.57C99.3 116.47 101.24 117.2 101.28 118.2C101.32 119.21 99.45 120.1 97.1 120.21Z" id="a2KwdbzvXN"></path><path d="M66.74 116.06C66.74 117.32 63.89 120.69 59.95 121.91C56.66 122.92 52.27 121.91 51.25 121.91C49 121.91 45.4 117.44 45.4 115.14C45.4 112.82 52.53 109.9 54.78 109.9C55.88 109.9 59.29 111.26 65.01 114C66.16 114.96 66.74 115.65 66.74 116.06Z" id="bdksSPZeh"></path><path d="M54.24 120.44C51.21 120.44 48.76 117.75 48.76 114.45C48.76 111.14 51.21 108.45 54.24 108.45C57.26 108.45 59.72 111.14 59.72 114.45C59.72 117.75 57.26 120.44 54.24 120.44Z" id="bLS2q1orF"></path><path d="M63.68 119.79C61.73 119.79 64.22 120.11 64.22 117.8C64.22 115.49 62.27 114.71 64.22 114.71C66.16 114.71 66.74 114.68 66.74 116.99C66.74 119.3 65.62 119.79 63.68 119.79Z" id="cppMN8H20"></path><path d="M67.41 114.99C63.77 112.91 61.49 111.61 60.59 111.09C58.85 110.09 56.94 109.46 54.95 109.21C54.88 109.2 54.7 109.18 54.41 109.14C52.43 109.43 51.18 109.61 50.69 109.68C48.89 109.94 47.27 110.94 46.23 112.45C45.87 112.95 46.09 112.64 45.65 113.28C44.91 114.33 44.82 115.71 45.4 116.85C45.58 117.21 46.03 118.1 46.75 119.51" id="e5hlsHyWQl"></path><path d="M53.18 115.7C52.5 115.7 51.96 115.14 51.96 114.45C51.96 113.75 52.5 113.18 53.18 113.18C53.86 113.18 54.41 113.75 54.41 114.45C54.41 115.14 53.86 115.7 53.18 115.7Z" id="a6RbyPlAuA"></path><path d="M60.47 118.93C58.63 118.93 57.14 118.08 57.14 117.03C57.14 116 58.63 115.15 60.47 115.15C62.3 115.15 63.78 116 63.78 117.03C63.78 118.08 62.3 118.93 60.47 118.93Z" id="a18TN17f4P"></path><path d="M54.42 119.24C52.47 119.24 50.89 118.79 50.89 118.25C50.89 117.7 52.47 117.26 54.42 117.26C56.38 117.26 57.95 117.7 57.95 118.25C57.95 118.79 56.38 119.24 54.42 119.24Z" id="a107p8PMN2"></path><path d="M75.77 138.68C74.68 138.3 74 138.05 73.73 137.96C71.99 137.34 71.16 135.35 71.95 133.68C72.33 132.89 73.28 130.89 74.79 127.71" id="beJd1ehOL"></path><path d="M96.13 150.89C92.51 152.42 90.25 153.38 89.34 153.76C82.42 156.67 74.68 156.97 67.55 154.6C66.91 154.39 65.3 153.85 62.74 152.99" id="d29c2GmAft"></path><path d="M107.76 97.36L118.03 98.99L108.69 94.93L82.09 100.16L82.09 104.01L107.76 97.36Z" id="b3oOEQfndH"></path><path d="M107.76 97.36L118.03 98.99L108.69 94.93L82.09 100.16L82.09 104.01L107.76 97.36Z" id="hkRBwVwqI"></path><path d="M64.73 103.7L65.19 100.53C54.87 98.23 49.14 96.96 47.99 96.7C44.93 97.84 43.02 98.56 42.26 98.84C41.94 98.96 42.04 99.44 42.38 99.41C43.16 99.36 45.11 99.23 48.24 99.02C50.44 99.64 55.94 101.2 64.73 103.7Z" id="blU0w8sXE"></path><path d="M64.73 103.7L65.19 100.53C54.87 98.23 49.14 96.96 47.99 96.7C44.93 97.84 43.02 98.56 42.26 98.84C41.94 98.96 42.04 99.44 42.38 99.41C43.16 99.36 45.11 99.23 48.24 99.02C50.44 99.64 55.94 101.2 64.73 103.7Z" id="c2D4eSFSj"></path></defs><g><g><g><use xlink:href="#aD2nmoK5L" opacity="1" fill="#f7d8d7" fill-opacity="1"></use><g><use xlink:href="#aD2nmoK5L" opacity="1" fill-opacity="0" stroke="#000000" stroke-width="1" stroke-opacity="0"></use></g></g><g><use xlink:href="#ajuTtrmhx" opacity="1" fill="#000000" fill-opacity="1"></use><g><use xlink:href="#ajuTtrmhx" opacity="1" fill-opacity="0" stroke="#000000" stroke-width="1" stroke-opacity="0"></use></g></g><g><use xlink:href="#fPfZB1BdB" opacity="1" fill="#a94340" fill-opacity="1"></use><g><use xlink:href="#fPfZB1BdB" opacity="1" fill-opacity="0" stroke="#000000" stroke-width="1" stroke-opacity="0"></use></g></g><g><use xlink:href="#bzWciLsMY" opacity="1" fill="#231309" fill-opacity="1"></use><g><use xlink:href="#bzWciLsMY" opacity="1" fill-opacity="0" stroke="#000000" stroke-width="1" stroke-opacity="0"></use></g></g><g><use xlink:href="#b1P17jw0Sg" opacity="1" fill="#000000" fill-opacity="0"></use><g><use xlink:href="#b1P17jw0Sg" opacity="1" fill-opacity="0" stroke="#000000" stroke-width="3" stroke-opacity="1"></use></g></g><g><use xlink:href="#a1H0O4Xgsy" opacity="1" fill="#ffffff" fill-opacity="1"></use><g><use xlink:href="#a1H0O4Xgsy" opacity="1" fill-opacity="0" stroke="#000000" stroke-width="1" stroke-opacity="0"></use></g></g><g><use xlink:href="#ebynTDDgA" opacity="1" fill="#000000" fill-opacity="1"></use><g><use xlink:href="#ebynTDDgA" opacity="1" fill-opacity="0" stroke="#000000" stroke-width="1" stroke-opacity="0"></use></g></g><g><use xlink:href="#a2KwdbzvXN" opacity="1" fill="#4d2912" fill-opacity="1"></use><g><use xlink:href="#a2KwdbzvXN" opacity="1" fill-opacity="0" stroke="#000000" stroke-width="1" stroke-opacity="0"></use></g></g><g><use xlink:href="#bdksSPZeh" opacity="1" fill="#f7d8d7" fill-opacity="1"></use><g><use xlink:href="#bdksSPZeh" opacity="1" fill-opacity="0" stroke="#000000" stroke-width="1" stroke-opacity="0"></use></g></g><g><use xlink:href="#bLS2q1orF" opacity="1" fill="#231309" fill-opacity="1"></use><g><use xlink:href="#bLS2q1orF" opacity="1" fill-opacity="0" stroke="#000000" stroke-width="1" stroke-opacity="0"></use></g></g><g><use xlink:href="#cppMN8H20" opacity="1" fill="#a94340" fill-opacity="1"></use><g><use xlink:href="#cppMN8H20" opacity="1" fill-opacity="0" stroke="#000000" stroke-width="1" stroke-opacity="0"></use></g></g><g><use xlink:href="#e5hlsHyWQl" opacity="1" fill="#000000" fill-opacity="0"></use><g><use xlink:href="#e5hlsHyWQl" opacity="1" fill-opacity="0" stroke="#000000" stroke-width="3" stroke-opacity="1"></use></g></g><g><use xlink:href="#a6RbyPlAuA" opacity="1" fill="#000000" fill-opacity="1"></use><g><use xlink:href="#a6RbyPlAuA" opacity="1" fill-opacity="0" stroke="#000000" stroke-width="1" stroke-opacity="0"></use></g></g><g><use xlink:href="#a18TN17f4P" opacity="1" fill="#ffffff" fill-opacity="1"></use><g><use xlink:href="#a18TN17f4P" opacity="1" fill-opacity="0" stroke="#000000" stroke-width="1" stroke-opacity="0"></use></g></g><g><use xlink:href="#a107p8PMN2" opacity="1" fill="#4d2912" fill-opacity="1"></use><g><use xlink:href="#a107p8PMN2" opacity="1" fill-opacity="0" stroke="#000000" stroke-width="1" stroke-opacity="0"></use></g></g><g><use xlink:href="#beJd1ehOL" opacity="1" fill="#000000" fill-opacity="0"></use><g><use xlink:href="#beJd1ehOL" opacity="1" fill-opacity="0" stroke="#000000" stroke-width="2" stroke-opacity="1"></use></g></g><g><use xlink:href="#d29c2GmAft" opacity="1" fill="#000000" fill-opacity="0"></use><g><use xlink:href="#d29c2GmAft" opacity="1" fill-opacity="0" stroke="#000000" stroke-width="2" stroke-opacity="1"></use></g></g><g><use xlink:href="#b3oOEQfndH" opacity="1" fill="#1d1007" fill-opacity="1"></use><g><use xlink:href="#b3oOEQfndH" opacity="1" fill-opacity="0" stroke="#000000" stroke-width="1" stroke-opacity="0"></use></g></g><g><use xlink:href="#hkRBwVwqI" opacity="1" fill="#000000" fill-opacity="0"></use><g><use xlink:href="#hkRBwVwqI" opacity="1" fill-opacity="0" stroke="#000000" stroke-width="2" stroke-opacity="1"></use></g></g><g><use xlink:href="#blU0w8sXE" opacity="1" fill="#1d1007" fill-opacity="1"></use><g><use xlink:href="#blU0w8sXE" opacity="1" fill-opacity="0" stroke="#000000" stroke-width="1" stroke-opacity="0"></use></g></g><g><use xlink:href="#c2D4eSFSj" opacity="1" fill="#000000" fill-opacity="0"></use><g><use xlink:href="#c2D4eSFSj" opacity="1" fill-opacity="0" stroke="#000000" stroke-width="2" stroke-opacity="1"></use></g></g></g></g></svg>