<?xml version="1.0" encoding="UTF-8" standalone="no"?>
<!DOCTYPE svg PUBLIC "-//W3C//DTD SVG 1.1//EN" "http://www.w3.org/Graphics/SVG/1.1/DTD/svg11.dtd">
<svg version="1.1" xmlns="http://www.w3.org/2000/svg" xmlns:xlink="http://www.w3.org/1999/xlink" preserveAspectRatio="xMidYMid meet" viewBox="294.3131632903353 144.07548841361842 85.34786387135273 69.60498904145226" width="81.35" height="65.6"><defs><path d="M340.91 164.1C340.93 164.46 337.49 167.28 337.58 167.66C338.54 171.55 347.4 176.1 355.29 175.75C363.97 175.37 371.37 168.67 371.2 164.73C371.11 162.73 369.23 161.01 366.28 159.84C363.39 158.69 359.46 158.08 355.16 158.27C346.49 158.65 340.74 160.16 340.91 164.1Z" id="b1Qnd4wdo"></path><path d="M355.84 165.85C355.84 167.07 354.85 168.06 353.63 168.06C352.4 168.06 351.41 167.07 351.41 165.85C351.41 164.62 352.4 163.63 353.63 163.63C354.85 163.63 355.84 164.62 355.84 165.85Z" id="c1OZcsVA0h"></path><path d="M341.01 168.49C341.05 169.53 342.49 171.63 341.45 171.67C340.41 171.72 337.91 168.85 337.86 167.81C337.81 166.77 340.11 164.91 341.15 164.86C342.19 164.82 340.96 167.45 341.01 168.49Z" id="d1loY3K2eA"></path><path d="M362.37 164.65C362.57 169.19 359.26 173.04 354.99 173.23C350.71 173.41 347.08 169.87 346.88 165.33C346.68 160.78 349.99 156.93 354.27 156.75C358.54 156.56 362.17 160.1 362.37 164.65Z" id="aepeyq87O"></path><path d="M364.27 172.87C364.98 172.45 365.43 172.19 365.6 172.08C367.37 171.03 368.84 169.55 369.88 167.77C370.15 167.3 369.79 167.93 370.16 167.29C370.8 166.19 370.62 164.79 369.72 163.89C367.99 162.14 366.72 161.02 365.92 160.52C364.75 159.78 361.13 158.72 359.79 158.38C358.04 157.93 355.74 158.08 353.91 158.34C353.5 158.39 352.39 158.56 350.58 158.83C347.83 159.24 345.27 160.51 343.27 162.45C342.59 163.11 340.9 164.76 338.18 167.41" id="j2zkI1zKEm"></path><path d="M364.61 167.45C364.65 168.51 363.14 169.45 361.22 169.53C359.3 169.61 357.71 168.82 357.67 167.76C357.62 166.7 359.14 165.77 361.05 165.68C362.97 165.6 364.56 166.39 364.61 167.45Z" id="bhnvagm6X"></path><path d="M355.09 164.76C355.14 165.8 354.33 166.68 353.29 166.73C352.25 166.77 351.36 165.96 351.32 164.92C351.27 163.88 352.08 163 353.12 162.95C354.17 162.91 355.05 163.72 355.09 164.76Z" id="b5BID9Ggnk"></path><path d="M358.73 170C358.77 171.08 356.77 172.04 354.25 172.15C351.73 172.26 349.65 171.48 349.6 170.4C349.55 169.33 351.56 168.37 354.08 168.26C356.6 168.15 358.68 168.93 358.73 170Z" id="a3jbyBuoAi"></path><path d="M319.89 165.5C321.12 166.53 321.74 167.27 321.74 167.71C321.74 169.06 318.69 172.67 314.47 173.97C310.94 175.06 306.24 173.97 305.15 173.97C302.74 173.97 298.89 169.19 298.89 166.72C298.89 164.24 306.52 161.11 308.93 161.11C310.11 161.11 313.76 162.57 319.89 165.5Z" id="d1bfTmq9rq"></path><path d="M314.22 165.98C314.22 169.52 311.59 172.4 308.35 172.4C305.11 172.4 302.48 169.52 302.48 165.98C302.48 162.44 305.11 159.56 308.35 159.56C311.59 159.56 314.22 162.44 314.22 165.98Z" id="acT5PDwQU"></path><path d="M321.74 168.7C321.74 171.18 320.54 171.7 318.46 171.7C316.37 171.7 319.04 172.05 319.04 169.57C319.04 167.1 316.95 166.26 319.04 166.26C321.12 166.26 321.74 166.23 321.74 168.7Z" id="cJkMALej5"></path><path d="M322.46 166.56C318.56 164.34 316.12 162.94 315.15 162.39C313.29 161.32 311.24 160.64 309.11 160.37C309.04 160.36 308.84 160.34 308.53 160.3C306.41 160.61 305.08 160.8 304.55 160.88C302.62 161.16 300.89 162.23 299.77 163.84C299.39 164.38 299.63 164.05 299.15 164.73C298.36 165.86 298.26 167.33 298.89 168.56C299.08 168.94 299.56 169.89 300.33 171.4" id="a16AZMVZeJ"></path><path d="M308.53 165.98C308.53 166.72 307.94 167.32 307.22 167.32C306.49 167.32 305.91 166.72 305.91 165.98C305.91 165.24 306.49 164.63 307.22 164.63C307.94 164.63 308.53 165.24 308.53 165.98Z" id="aMelVnFVh"></path><path d="M318.57 168.75C318.57 169.87 316.98 170.78 315.02 170.78C313.05 170.78 311.46 169.87 311.46 168.75C311.46 167.64 313.05 166.73 315.02 166.73C316.98 166.73 318.57 167.64 318.57 168.75Z" id="c5cynfk1n"></path><path d="M312.33 170.05C312.33 170.63 310.64 171.11 308.55 171.11C306.46 171.11 304.77 170.63 304.77 170.05C304.77 169.46 306.46 168.99 308.55 168.99C310.64 168.99 312.33 169.46 312.33 170.05Z" id="kGSt9aVNJ"></path><path d="M331.41 191.93C330.24 191.52 329.51 191.26 329.22 191.16C327.36 190.5 326.47 188.37 327.32 186.58C327.72 185.73 328.74 183.59 330.36 180.18" id="e2afSZkjBK"></path><path d="M353.21 205.01C349.33 206.65 346.91 207.67 345.94 208.08C338.53 211.2 330.24 211.52 322.61 208.98C321.92 208.75 320.2 208.18 317.45 207.26" id="c7AsKbypxV"></path><path d="M338.18 154.8L365.66 147.68L376.66 149.43L366.66 145.08L338.18 150.68L338.18 154.8Z" id="aNj2FedC3"></path><path d="M301.93 149.46L319.59 154.47L320.08 151.08L301.66 146.98C298.38 148.2 296.34 148.97 295.52 149.27C295.18 149.4 295.29 149.91 295.65 149.88C296.49 149.83 298.58 149.69 301.93 149.46Z" id="b1Ws4xZU4J"></path></defs><g><g><use xlink:href="#b1Qnd4wdo" opacity="1" fill="#f7d8d7" fill-opacity="1"></use></g><g><use xlink:href="#c1OZcsVA0h" opacity="1" fill="#000000" fill-opacity="1"></use></g><g><use xlink:href="#d1loY3K2eA" opacity="1" fill="#a94340" fill-opacity="1"></use></g><g><use xlink:href="#aepeyq87O" opacity="1" fill="#231309" fill-opacity="1"></use></g><g><g><use xlink:href="#j2zkI1zKEm" opacity="1" fill-opacity="0" stroke="#000000" stroke-width="3" stroke-opacity="1"></use></g></g><g><use xlink:href="#bhnvagm6X" opacity="1" fill="#ffffff" fill-opacity="1"></use></g><g><use xlink:href="#b5BID9Ggnk" opacity="1" fill="#000000" fill-opacity="1"></use></g><g><use xlink:href="#a3jbyBuoAi" opacity="1" fill="#4d2912" fill-opacity="1"></use></g><g><use xlink:href="#d1bfTmq9rq" opacity="1" fill="#f7d8d7" fill-opacity="1"></use></g><g><use xlink:href="#acT5PDwQU" opacity="1" fill="#231309" fill-opacity="1"></use></g><g><use xlink:href="#cJkMALej5" opacity="1" fill="#a94340" fill-opacity="1"></use></g><g><g><use xlink:href="#a16AZMVZeJ" opacity="1" fill-opacity="0" stroke="#000000" stroke-width="3" stroke-opacity="1"></use></g></g><g><use xlink:href="#aMelVnFVh" opacity="1" fill="#000000" fill-opacity="1"></use></g><g><use xlink:href="#c5cynfk1n" opacity="1" fill="#ffffff" fill-opacity="1"></use></g><g><use xlink:href="#kGSt9aVNJ" opacity="1" fill="#4d2912" fill-opacity="1"></use></g><g><g><use xlink:href="#e2afSZkjBK" opacity="1" fill-opacity="0" stroke="#000000" stroke-width="2" stroke-opacity="1"></use></g></g><g><g><use xlink:href="#c7AsKbypxV" opacity="1" fill-opacity="0" stroke="#000000" stroke-width="2" stroke-opacity="1"></use></g></g><g><use xlink:href="#aNj2FedC3" opacity="1" fill="#1d1007" fill-opacity="1"></use><g><use xlink:href="#aNj2FedC3" opacity="1" fill-opacity="0" stroke="#000000" stroke-width="2" stroke-opacity="1"></use></g></g><g><use xlink:href="#b1Ws4xZU4J" opacity="1" fill="#1d1007" fill-opacity="1"></use><g><use xlink:href="#b1Ws4xZU4J" opacity="1" fill-opacity="0" stroke="#000000" stroke-width="2" stroke-opacity="1"></use></g></g></g></svg>