<?xml version="1.0" encoding="UTF-8" standalone="no"?>
<!DOCTYPE svg PUBLIC "-//W3C//DTD SVG 1.1//EN" "http://www.w3.org/Graphics/SVG/1.1/DTD/svg11.dtd">
<svg version="1.1" xmlns="http://www.w3.org/2000/svg" xmlns:xlink="http://www.w3.org/1999/xlink" preserveAspectRatio="xMidYMid meet" viewBox="0 0 191 573" width="191" height="573"><defs><path d="M17.63 257.74C17.63 257.74 12.32 268.12 12.32 268.12C11.65 269.52 12.8 267.12 12.28 268.19C10.08 272.79 8.4 277.63 7.26 282.6C6.93 284.09 7.21 282.83 6.77 284.75C5.99 288.2 6.03 291.78 6.91 295.21C7.18 296.3 7.86 299 8.96 303.34C9.4 306.09 12.87 328.15 13.3 330.91C12.84 321.86 12.56 316.2 12.45 313.95C12.06 306.5 12.67 299.04 14.24 291.75C14.32 291.38 14.51 290.46 14.83 288.98C15.3 291.47 15.6 293.02 15.72 293.64C16.55 298 18.65 302.02 21.75 305.2C21.93 305.39 22.4 305.86 23.15 306.63C21.3 302.66 20.15 300.16 19.69 299.16C18.39 296.37 17.72 293.32 17.72 290.24C17.72 289.44 17.72 291.41 17.72 290.54C17.72 287.68 17.98 284.82 18.51 282C18.76 280.68 18.18 283.77 18.3 283.15C19.26 278.03 21.21 273.15 24.05 268.79C26.28 265.34 30.72 258.52 33.46 254.29C34.63 252.5 35.61 250.58 36.38 248.57C36.58 248.02 36.14 249.17 36.38 248.57C37.06 246.77 37.9 245.03 38.86 243.37C42.62 236.91 49.88 224.44 53 219.09C56.11 213.75 58.69 208.14 60.73 202.31C62.08 198.43 63.8 193.51 65.34 189.12C66.78 184.99 67.51 180.66 67.51 176.3C67.51 175.48 67.51 178.51 67.51 177.42C67.51 175.2 65.01 173.92 63.22 175.2C62.62 175.63 62.55 175.68 61.31 176.56C60.61 177.07 60.05 177.72 59.65 178.49C57 183.65 50.38 196.57 39.78 217.23C27.97 238.84 20.59 252.33 17.63 257.74Z" id="a3P1KAKaUW"></path><path d="M17.63 257.74C17.63 257.74 12.32 268.12 12.32 268.12C11.65 269.52 12.8 267.12 12.28 268.19C10.08 272.79 8.4 277.63 7.26 282.6C6.93 284.09 7.21 282.83 6.77 284.75C5.99 288.2 6.03 291.78 6.91 295.21C7.18 296.3 7.86 299 8.96 303.34C9.4 306.09 12.87 328.15 13.3 330.91C12.84 321.86 12.56 316.2 12.45 313.95C12.06 306.5 12.67 299.04 14.24 291.75C14.32 291.38 14.51 290.46 14.83 288.98C15.3 291.47 15.6 293.02 15.72 293.64C16.55 298 18.65 302.02 21.75 305.2C21.93 305.39 22.4 305.86 23.15 306.63C21.3 302.66 20.15 300.16 19.69 299.16C18.39 296.37 17.72 293.32 17.72 290.24C17.72 289.44 17.72 291.41 17.72 290.54C17.72 287.68 17.98 284.82 18.51 282C18.76 280.68 18.18 283.77 18.3 283.15C19.26 278.03 21.21 273.15 24.05 268.79C26.28 265.34 30.72 258.52 33.46 254.29C34.63 252.5 35.61 250.58 36.38 248.57C36.58 248.02 36.14 249.17 36.38 248.57C37.06 246.77 37.9 245.03 38.86 243.37C42.62 236.91 49.88 224.44 53 219.09C56.11 213.75 58.69 208.14 60.73 202.31C62.08 198.43 63.8 193.51 65.34 189.12C66.78 184.99 67.51 180.66 67.51 176.3C67.51 175.48 67.51 178.51 67.51 177.42C67.51 175.2 65.01 173.92 63.22 175.2C62.62 175.63 62.55 175.68 61.31 176.56C60.61 177.07 60.05 177.72 59.65 178.49C57 183.65 50.38 196.57 39.78 217.23C27.97 238.84 20.59 252.33 17.63 257.74Z" id="d1Vu7PdZX1"></path><path d="M144.38 146.84C147.02 153.21 148.48 156.75 148.77 157.45C149.97 164.45 150.72 168.82 151.03 170.57C155.84 198.72 167.78 225.51 183.66 249.22C183.78 249.42 187.25 254.74 194.03 265.21C201.73 277.07 205.82 290.9 205.82 305.04C205.82 306.25 205.82 309.27 205.82 314.09C205.44 311.27 205.21 309.49 205.11 308.79C203.84 299.39 201.64 290.14 198.51 281.18C198.51 281.18 198.51 281.18 198.51 281.18C198.68 284.09 198.79 285.9 198.84 286.63C199.84 303.19 197.06 319.76 190.71 335.1C190.4 335.87 189.59 337.81 188.31 340.91C190.43 327.99 191.76 319.91 192.29 316.68C194.16 305.31 193.45 293.66 190.22 282.61C189.97 281.74 189.32 279.55 188.31 276.06C187.86 279.61 187.59 281.82 187.47 282.71C186.09 293.7 182.3 304.25 176.36 313.61C176.36 313.61 176.36 313.61 176.36 313.61C179.23 300.18 181.02 291.79 181.74 288.44C182.47 285.07 182.77 281.64 182.66 278.22C182.56 275.5 182.72 280.01 182.69 279.17C182.38 269.67 179.23 260.5 173.66 252.8C170.74 248.76 163.43 238.66 151.74 222.5C143.14 208.15 138.89 197.9 139.01 191.75C139.08 188.03 136.83 182.9 136.33 173.43C136 167.24 136.22 159.35 137.01 149.73C137.27 149.37 138.58 147.6 140.92 144.4L144.38 146.84Z" id="a3hwGxwXN"></path><path d="M144.38 146.84C147.02 153.21 148.48 156.75 148.77 157.45C149.97 164.45 150.72 168.82 151.03 170.57C155.84 198.72 167.78 225.51 183.66 249.22C183.78 249.42 187.25 254.74 194.03 265.21C201.73 277.07 205.82 290.9 205.82 305.04C205.82 306.25 205.82 309.27 205.82 314.09C205.44 311.27 205.21 309.49 205.11 308.79C203.84 299.39 201.64 290.14 198.51 281.18C198.51 281.18 198.51 281.18 198.51 281.18C198.68 284.09 198.79 285.9 198.84 286.63C199.84 303.19 197.06 319.76 190.71 335.1C190.4 335.87 189.59 337.81 188.31 340.91C190.43 327.99 191.76 319.91 192.29 316.68C194.16 305.31 193.45 293.66 190.22 282.61C189.97 281.74 189.32 279.55 188.31 276.06C187.86 279.61 187.59 281.82 187.47 282.71C186.09 293.7 182.3 304.25 176.36 313.61C176.36 313.61 176.36 313.61 176.36 313.61C179.23 300.18 181.02 291.79 181.74 288.44C182.47 285.07 182.77 281.64 182.66 278.22C182.56 275.5 182.72 280.01 182.69 279.17C182.38 269.67 179.23 260.5 173.66 252.8C170.74 248.76 163.43 238.66 151.74 222.5C143.14 208.15 138.89 197.9 139.01 191.75C139.08 188.03 136.83 182.9 136.33 173.43C136 167.24 136.22 159.35 137.01 149.73C137.27 149.37 138.58 147.6 140.92 144.4L144.38 146.84Z" id="d1u0J3q8Gm"></path><path d="M42.13 203.1C42.13 200.59 42.13 199.01 42.13 198.38C42.13 192.27 41.52 186.17 40.3 180.19C40.3 180.19 40.3 180.19 40.3 180.19C38.6 185.62 37.55 189 37.13 190.36C35.94 194.16 35.13 198.06 34.71 202.02C34.54 203.56 34.13 207.41 33.47 213.59C32.57 210.2 32.01 208.08 31.78 207.23C30.24 201.41 30.23 195.27 31.74 189.44C31.84 189.05 32.1 188.09 32.51 186.52C32.26 187.31 31.02 191.25 28.78 198.34C27.35 205.73 26.56 209.84 26.4 210.66C25.48 205.53 25.96 199.07 27.82 191.26C28.95 186.58 31.41 183.61 34.16 177C34.43 176.37 34.63 175.76 34.78 175.16C36.63 167.69 37 159.94 35.89 152.33C35.27 148.14 33.73 137.69 31.28 120.94C32.05 122.42 35.91 129.82 42.86 143.13L44.44 155.07C43.06 183.89 42.29 199.9 42.13 203.1Z" id="a5cipjSf2S"></path><path d="M42.13 203.1C42.13 200.59 42.13 199.01 42.13 198.38C42.13 192.27 41.52 186.17 40.3 180.19C40.3 180.19 40.3 180.19 40.3 180.19C38.6 185.62 37.55 189 37.13 190.36C35.94 194.16 35.13 198.06 34.71 202.02C34.54 203.56 34.13 207.41 33.47 213.59C32.57 210.2 32.01 208.08 31.78 207.23C30.24 201.41 30.23 195.27 31.74 189.44C31.84 189.05 32.1 188.09 32.51 186.52C32.26 187.31 31.02 191.25 28.78 198.34C27.35 205.73 26.56 209.84 26.4 210.66C25.48 205.53 25.96 199.07 27.82 191.26C28.95 186.58 31.41 183.61 34.16 177C34.43 176.37 34.63 175.76 34.78 175.16C36.63 167.69 37 159.94 35.89 152.33C35.27 148.14 33.73 137.69 31.28 120.94C32.05 122.42 35.91 129.82 42.86 143.13L44.44 155.07C43.06 183.89 42.29 199.9 42.13 203.1Z" id="a8Du1D0hFx"></path><path d="M125.29 141.48C124.62 144.44 124.2 146.29 124.03 147.03C119.45 167.18 118.28 187.94 120.59 208.47C120.59 208.47 120.59 208.47 120.59 208.47C120.59 208.47 120.59 208.47 120.59 208.47C116.97 198.72 116.06 188.16 117.94 177.93C118 177.56 118.17 176.63 118.44 175.13C117.34 178.51 116.65 180.62 116.38 181.46C111.76 195.54 112.5 210.82 118.44 224.37C118.44 224.37 118.44 224.37 118.44 224.37C118.25 224.18 118.12 224.05 118.07 223.99C110.22 216.09 106.71 204.88 108.65 193.92C108.73 193.49 108.91 192.42 109.22 190.73C108.78 191.99 108.51 192.78 108.4 193.09C106.07 199.84 105.14 206.99 105.69 214.1C105.77 215.15 105.97 217.76 106.29 221.94C105.43 219.57 104.9 218.09 104.68 217.5C102.54 211.58 101.92 205.21 102.89 198.99C103.28 196.43 102.6 200.88 102.89 198.99C104.19 190.51 106.41 182.2 109.49 174.2C111.15 169.89 108.56 176.61 109.49 174.2C114.97 159.96 117.69 144.8 117.51 129.55C117.45 125.25 117.31 114.48 117.11 97.26C117.68 97.93 120.53 101.3 125.67 107.35C125.44 127.83 125.31 139.2 125.29 141.48Z" id="b1CBpfhoKk"></path><path d="M125.29 141.48C124.62 144.44 124.2 146.29 124.03 147.03C119.45 167.18 118.28 187.94 120.59 208.47C120.59 208.47 120.59 208.47 120.59 208.47C120.59 208.47 120.59 208.47 120.59 208.47C116.97 198.72 116.06 188.16 117.94 177.93C118 177.56 118.17 176.63 118.44 175.13C117.34 178.51 116.65 180.62 116.38 181.46C111.76 195.54 112.5 210.82 118.44 224.37C118.44 224.37 118.44 224.37 118.44 224.37C118.25 224.18 118.12 224.05 118.07 223.99C110.22 216.09 106.71 204.88 108.65 193.92C108.73 193.49 108.91 192.42 109.22 190.73C108.78 191.99 108.51 192.78 108.4 193.09C106.07 199.84 105.14 206.99 105.69 214.1C105.77 215.15 105.97 217.76 106.29 221.94C105.43 219.57 104.9 218.09 104.68 217.5C102.54 211.58 101.92 205.21 102.89 198.99C103.28 196.43 102.6 200.88 102.89 198.99C104.19 190.51 106.41 182.2 109.49 174.2C111.15 169.89 108.56 176.61 109.49 174.2C114.97 159.96 117.69 144.8 117.51 129.55C117.45 125.25 117.31 114.48 117.11 97.26C117.68 97.93 120.53 101.3 125.67 107.35C125.44 127.83 125.31 139.2 125.29 141.48Z" id="e2oGx5F0X2"></path><path d="M42.86 149.16C41.94 141.39 41.35 136.53 41.13 134.59C40.33 127.98 38.85 121.48 36.69 115.19C36.1 113.48 34.64 109.19 32.29 102.34" id="fLHrA1ycf"></path><path d="M42.86 149.16C41.94 141.39 41.35 136.53 41.13 134.59C40.33 127.98 38.85 121.48 36.69 115.19C36.1 113.48 34.64 109.19 32.29 102.34" id="aoihXh06e"></path><path d="M94.11 3.67L94.72 3.71L95.31 3.76L95.92 3.82L96.52 3.88L97.11 3.97L97.71 4.06L98.3 4.16L98.9 4.27L99.48 4.39L100.07 4.53L100.65 4.67L101.24 4.83L101.82 4.99L102.39 5.16L102.96 5.35L103.53 5.54L104.09 5.75L104.65 5.96L105.21 6.19L105.76 6.42L106.31 6.66L106.86 6.92L107.39 7.18L107.93 7.45L108.46 7.74L108.98 8.03L109.51 8.33L110.03 8.64L110.53 8.96L111.04 9.3L111.54 9.63L112.04 9.98L112.52 10.34L113 10.7L113.48 11.08L113.96 11.46L114.42 11.86L122.22 18.6L122.73 19.06L123.25 19.52L123.76 19.98L124.26 20.44L124.76 20.92L125.26 21.4L125.75 21.89L126.23 22.37L126.71 22.87L127.18 23.37L127.65 23.87L128.12 24.37L128.58 24.89L129.02 25.41L129.47 25.93L129.91 26.46L130.35 26.99L130.78 27.52L131.21 28.06L131.63 28.61L132.04 29.15L132.45 29.71L132.85 30.26L133.25 30.82L133.64 31.39L134.02 31.96L134.4 32.53L134.77 33.11L135.14 33.69L135.5 34.27L135.85 34.87L136.2 35.45L136.54 36.05L136.88 36.65L137.22 37.26L137.54 37.86L137.86 38.48L138.17 39.09L138.47 39.7L138.78 40.33L138.9 40.6L139.03 40.86L139.16 41.12L139.27 41.37L139.39 41.62L139.51 41.86L139.62 42.09L139.73 42.33L139.83 42.55L139.94 42.77L140.03 42.98L140.14 43.19L140.23 43.39L140.33 43.59L140.41 43.77L140.5 43.96L140.59 44.13L140.67 44.31L140.75 44.47L140.82 44.63L140.89 44.78L140.97 44.93L141.04 45.08L141.1 45.21L141.17 45.35L141.22 45.47L141.27 45.59L141.33 45.7L141.38 45.82L141.43 45.92L141.48 46.01L141.52 46.1L141.56 46.19L141.59 46.27L141.63 46.35L141.66 46.41L141.69 46.47L141.72 46.53L141.74 46.58L141.76 46.63L142.23 47.66L142.69 48.71L143.13 49.75L143.55 50.79L143.96 51.85L144.36 52.9L144.75 53.95L145.13 55.02L145.5 56.09L145.85 57.15L146.19 58.22L146.52 59.3L146.83 60.38L147.14 61.46L147.44 62.54L147.71 63.64L147.98 64.72L148.25 65.82L148.49 66.91L148.72 68.01L148.95 69.12L149.16 70.22L149.37 71.32L149.56 72.43L149.75 73.54L149.92 74.66L150.08 75.77L150.24 76.88L150.37 78L150.51 79.12L150.63 80.24L150.74 81.37L150.84 82.5L150.94 83.62L151.03 84.75L151.09 85.88L151.16 87.01L151.22 88.14L151.27 89.27L151.31 90.41L151.31 90.5L151.31 90.62L151.31 90.77L151.31 90.94L151.32 91.13L151.32 91.33L151.32 91.56L151.32 91.8L151.32 92.05L151.32 92.33L151.32 92.61L151.32 92.9L151.32 93.21L151.32 93.53L151.32 93.85L151.32 94.18L151.32 94.51L151.32 94.85L151.32 95.19L151.32 95.54L151.32 95.88L151.32 96.22L151.32 96.55L151.32 96.89L151.32 97.21L151.31 97.54L151.31 97.86L151.31 98.16L151.31 98.45L151.31 98.74L151.31 99.27L151.31 99.51L151.31 99.74L151.31 99.94L151.31 100.13L151.31 100.3L151.31 100.44L151.31 100.57L151.31 100.67L151.31 100.83L151.31 101.02L151.32 101.19L151.33 101.38L151.34 101.56L151.36 101.76L151.38 101.95L151.4 102.16L151.43 102.36L151.45 102.57L151.48 102.78L151.51 103.01L151.55 103.22L151.59 103.45L151.63 103.68L151.68 103.91L151.73 104.16L151.78 104.4L151.83 104.64L151.89 104.9L151.95 105.15L152.01 105.41L152.08 105.68L152.15 105.94L152.22 106.21L152.29 106.49L152.37 106.77L152.45 107.05L152.54 107.35L152.62 107.64L152.71 107.93L152.8 108.23L152.9 108.55L153 108.85L153.09 109.17L153.2 109.48L153.31 109.8L153.41 110.14L153.53 110.47L153.65 110.8L153.22 114.97L153.12 115.85L153.01 116.72L152.89 117.59L152.75 118.45L152.61 119.31L152.45 120.17L152.27 121.03L152.09 121.88L151.89 122.73L151.68 123.57L151.45 124.41L151.22 125.25L150.97 126.08L150.71 126.91L150.44 127.73L150.15 128.56L149.85 129.37L149.54 130.18L149.22 130.99L148.89 131.79L148.55 132.58L148.19 133.37L147.82 134.16L147.44 134.94L147.05 135.71L146.65 136.48L146.23 137.24L145.8 138L145.36 138.75L144.91 139.49L144.45 140.23L143.98 140.96L143.5 141.68L143 142.4L142.5 143.11L141.98 143.81L141.46 144.5L140.91 145.19L140.37 145.88L139.81 146.55L139.78 146.58L139.76 146.61L139.73 146.63L139.71 146.66L139.69 146.69L139.66 146.72L139.64 146.75L139.62 146.77L139.6 146.79L139.57 146.82L139.55 146.85L139.53 146.88L139.5 146.91L139.48 146.94L139.45 146.97L139.43 146.99L139.4 147.02L139.38 147.05L139.36 147.08L139.33 147.11L139.31 147.14L139.28 147.15L139.26 147.18L139.23 147.21L139.22 147.24L139.19 147.27L139.14 147.32L139.12 147.35L139.09 147.38L139.07 147.41L139.04 147.44L139.02 147.46L139 147.49L138.97 147.52L138.95 147.54L138.92 147.57L138.87 147.62L138.85 147.65L138.41 148.15L138.16 148.42L137.91 148.68L137.65 148.92L137.38 149.14L137.11 149.37L136.83 149.58L136.53 149.78L136.24 149.96L135.95 150.14L135.64 150.3L135.33 150.45L135.02 150.6L134.7 150.72L134.38 150.84L134.06 150.95L133.72 151.05L133.39 151.12L133.06 151.19L132.73 151.25L132.39 151.3L132.34 151.31L132.21 151.46L126.19 152.04L123.43 149.7L125.73 139.8L125.78 139.14L126.57 125.7L120.82 88L120.82 117.94L117.24 89.29L114.65 116.99L110.42 85.38L111.72 109.74L99.14 69.1L101.32 103.76L84.74 63.24L95.79 101.96L95.79 101.95L95.51 101.7L95.22 101.44L94.95 101.17L94.68 100.91L94.41 100.65L94.15 100.37L93.89 100.09L93.63 99.82L93.38 99.53L93.13 99.25L92.88 98.97L92.64 98.68L92.39 98.38L92.16 98.09L91.93 97.79L91.69 97.5L91.47 97.18L91.24 96.88L91.03 96.57L90.81 96.26L90.61 95.95L90.4 95.63L90.2 95.31L90 94.99L89.8 94.67L89.62 94.35L89.42 94.01L89.23 93.68L89.06 93.35L88.88 93.02L88.71 92.68L88.54 92.34L88.39 92L88.22 91.65L88.06 91.3L87.92 90.96L87.77 90.61L87.63 90.26L87.49 89.9L87.35 89.55L74.33 54.44L74.33 70.68L74.34 71.6L74.35 72.53L74.36 73.46L74.39 74.38L74.42 75.31L74.45 76.23L74.5 77.15L74.55 78.08L74.61 79L74.66 79.92L74.73 80.85L74.81 81.77L74.89 82.69L74.98 83.61L75.07 84.53L75.17 85.44L75.28 86.36L75.4 87.29L75.51 88.19L75.64 89.11L75.78 90.03L75.91 90.94L76.06 91.85L76.22 92.77L76.37 93.67L76.54 94.58L76.71 95.49L76.89 96.39L77.07 97.3L77.27 98.21L77.46 99.11L77.67 100.01L77.87 100.92L78.1 101.82L78.31 102.71L78.55 103.61L78.78 104.51L79.02 105.4L79.28 106.29L79.53 107.18L79.54 107.22L65.23 78.23L77.91 113.28L77.91 113.28L77.2 113L76.5 112.72L75.81 112.44L75.11 112.13L74.43 111.82L73.75 111.5L73.08 111.18L72.4 110.84L71.74 110.49L71.08 110.14L70.42 109.76L69.78 109.39L69.14 109L68.5 108.61L67.87 108.2L67.24 107.79L66.63 107.38L66.01 106.95L65.41 106.51L64.81 106.06L64.22 105.6L63.63 105.13L63.05 104.65L62.48 104.18L61.92 103.69L61.35 103.19L60.81 102.68L60.26 102.17L59.72 101.64L59.2 101.1L58.68 100.57L58.16 100.02L57.66 99.47L57.16 98.9L56.67 98.33L56.19 97.76L55.72 97.17L55.25 96.58L54.79 95.97L54.34 95.37L48.98 88L61.33 115.2L56.31 111.16L56.12 110.99L55.91 110.83L55.71 110.66L55.51 110.49L55.31 110.32L55.11 110.15L54.92 109.98L54.72 109.8L54.53 109.64L54.33 109.46L54.14 109.29L53.94 109.11L53.76 108.94L53.56 108.75L53.38 108.57L53.18 108.39L53 108.21L52.81 108.03L52.62 107.84L52.44 107.66L52.25 107.47L52.08 107.29L51.89 107.1L51.72 106.91L51.53 106.72L51.36 106.53L51.18 106.34L51.01 106.15L50.83 105.95L50.65 105.76L50.51 105.58L50.5 105.57L50.34 105.36L50.19 105.14L50.04 104.93L49.88 104.71L49.74 104.5L49.59 104.28L49.45 104.07L49.3 103.85L49.15 103.64L49.01 103.43L48.86 103.2L48.71 102.99L48.58 102.77L48.43 102.55L48.29 102.32L48.15 102.11L48.01 101.88L47.88 101.66L47.74 101.45L47.6 101.22L47.47 101L47.33 100.77L47.19 100.55L47.07 100.32L46.93 100.1L46.8 99.88L46.67 99.64L46.54 99.42L46.41 99.19L38.08 84.41L42.48 110.8L34.96 90.6L38.08 115.66L44.95 144.02L31.1 110.8L41.18 144.02L31.1 129.69L25.57 110.8L26.55 139.14L23.62 122.1L23.56 121.73L23.49 121.35L23.44 120.97L23.38 120.6L23.33 120.22L23.27 119.84L23.22 119.46L23.17 119.08L23.12 118.71L23.08 118.33L23.04 117.95L23 117.57L22.96 117.19L22.92 116.81L22.88 116.43L22.85 116.04L22.82 115.66L22.79 115.28L22.76 114.9L22.73 114.52L22.71 114.14L22.69 113.75L22.68 113.37L22.66 112.99L22.65 112.61L22.63 112.23L22.62 111.85L22.61 111.47L22.61 111.08L22.6 110.7L22.6 110.32L22.6 109.94L22.6 109.56L22.6 109.18L22.61 108.79L22.62 108.41L22.63 108.03L22.64 107.65L22.65 107.27L22.67 106.89L23.62 85.38L27.96 53.9L28 53.59L28.05 53.28L28.1 52.97L28.15 52.66L28.2 52.34L28.25 52.03L28.31 51.72L28.37 51.41L28.43 51.09L28.5 50.79L28.57 50.48L28.62 50.17L28.7 49.86L28.77 49.55L28.85 49.24L28.92 48.94L28.99 48.63L29.07 48.33L29.16 48.02L29.25 47.72L29.33 47.41L29.41 47.11L29.51 46.8L29.6 46.5L29.7 46.2L29.79 45.9L29.89 45.59L29.99 45.3L30.1 45L30.19 44.7L30.3 44.4L30.41 44.1L30.53 43.81L30.63 43.52L30.75 43.21L30.87 42.92L30.98 42.63L31.11 42.34L31.23 42.04L31.35 41.75L31.36 41.73L31.53 41.35L31.71 40.97L31.88 40.59L32.07 40.22L32.26 39.85L32.46 39.49L32.65 39.12L32.86 38.76L33.06 38.41L33.28 38.06L33.5 37.7L33.72 37.35L33.95 37.01L34.18 36.67L34.43 36.33L34.67 36L34.91 35.67L35.17 35.33L35.42 35.01L35.68 34.7L35.95 34.38L36.22 34.07L36.49 33.76L36.78 33.45L37.06 33.16L37.34 32.86L37.64 32.57L37.94 32.28L38.24 32L38.54 31.72L38.85 31.44L39.17 31.17L39.48 30.9L39.8 30.64L40.12 30.38L40.45 30.13L40.79 29.87L41.13 29.63L41.47 29.4L41.81 29.16L42.48 28.7L50.2 18.62L50.34 18.43L50.5 18.25L50.64 18.07L50.81 17.89L50.97 17.71L51.12 17.55L51.29 17.37L51.46 17.21L51.63 17.05L51.81 16.88L51.98 16.73L52.17 16.58L52.34 16.43L52.53 16.28L52.71 16.14L52.91 16.01L53.1 15.87L53.29 15.73L53.49 15.61L53.69 15.48L53.89 15.36L54.1 15.25L54.3 15.13L54.51 15.02L54.72 14.91L54.93 14.82L55.14 14.72L55.36 14.62L55.58 14.53L55.79 14.45L56.02 14.37L56.24 14.29L56.47 14.21L56.69 14.14L56.92 14.07L57.15 14.02L57.37 13.96L57.61 13.9L57.84 13.85L58.08 13.81L60.36 13.39L68.18 9.4L68.75 9.12L69.31 8.85L69.88 8.58L70.44 8.32L71.02 8.07L71.59 7.81L72.17 7.58L72.75 7.35L73.34 7.12L73.92 6.9L74.51 6.68L75.09 6.48L75.69 6.28L76.28 6.09L76.88 5.9L77.47 5.73L78.08 5.55L78.68 5.4L79.29 5.24L79.89 5.08L80.5 4.95L81.11 4.81L81.72 4.68L82.33 4.57L82.94 4.45L83.56 4.34L84.17 4.24L84.8 4.15L85.41 4.07L86.04 3.99L86.65 3.92L87.27 3.85L87.9 3.81L88.52 3.76L89.15 3.71L89.77 3.68L90.4 3.65L91.03 3.64L91.65 3.62L92.29 3.62L92.89 3.63L93.5 3.64L94.11 3.67ZM137.18 97.34L137.48 97.32L137.77 97.3L138.06 97.3L138.19 97.3L137.92 97.39L137.6 97.51L137.27 97.62L136.96 97.76L136.65 97.9L136.35 98.04L136.05 98.21L135.75 98.37L135.46 98.54L135.18 98.72L134.89 98.92L134.62 99.11L134.35 99.32L134.09 99.53L133.83 99.76L133.58 99.98L133.33 100.22L133.1 100.46L132.87 100.71L132.64 100.97L132.42 101.24L132.21 101.5L132.01 101.79L131.81 102.07L131.8 102.08L131.76 102.14L131.73 102.21L131.69 102.27L131.65 102.33L131.61 102.4L131.58 102.47L131.54 102.54L131.51 102.61L131.48 102.66L131.44 102.74L131.41 102.81L131.39 102.88L131.36 102.95L131.34 103.02L131.32 103.08L131.29 103.16L131.27 103.23L131.25 103.3L131.23 103.38L131.21 103.45L131.19 103.52L131.17 103.59L131.16 103.67L131.14 103.74L131.13 103.82L131.12 103.89L131.11 103.96L131.1 104.04L131.09 104.12L129.38 124.01L125.73 139.8L125.11 148.27L125.11 148.31L125.11 148.34L125.11 148.38L125.11 148.43L125.11 148.47L125.12 148.51L125.12 148.55L125.13 148.59L125.13 148.63L125.14 148.68L125.15 148.72L125.16 148.75L125.17 148.79L125.18 148.83L125.19 148.87L125.21 148.91L125.22 148.94L125.24 148.98L125.25 149.02L125.27 149.06L125.29 149.1L125.31 149.12L125.33 149.16L125.35 149.19L125.37 149.23L125.39 149.26L125.42 149.3L125.44 149.33L125.46 149.36L125.48 149.4L125.51 149.43L125.54 149.46L125.57 149.49L125.6 149.51L125.63 149.54L125.66 149.56L125.69 149.59L125.73 149.62L125.76 149.64L125.8 149.67L125.8 149.67L126.1 149.88L126.41 150.06L126.71 150.24L127.03 150.39L127.36 150.55L127.68 150.69L128 150.8L128.33 150.92L128.66 151.02L128.99 151.1L129.34 151.18L129.67 151.24L130.01 151.29L130.35 151.33L130.69 151.36L131.03 151.37L131.37 151.37L131.72 151.36L132.05 151.34L132.34 151.31L138.27 144.19L138.98 143.32L139.66 142.43L140.34 141.54L140.98 140.62L141.6 139.69L142.2 138.76L142.77 137.81L143.34 136.85L143.87 135.87L144.38 134.89L144.87 133.89L145.34 132.89L145.78 131.87L146.2 130.85L146.6 129.82L146.97 128.77L147.32 127.72L147.65 126.66L147.95 125.59L148.23 124.52L148.48 123.44L148.71 122.34L148.92 121.25L149.09 120.15L149.25 119.05L149.39 117.94L149.49 116.83L149.55 115.93L149.55 115.84L149.55 115.69L149.54 115.55L149.54 115.4L149.53 115.26L149.52 115.11L149.51 114.97L149.5 114.83L149.49 114.68L149.47 114.53L149.46 114.39L149.45 114.24L149.43 114.09L149.41 113.95L149.39 113.81L149.37 113.67L149.34 113.52L149.32 113.37L149.29 113.24L149.26 113.09L149.23 112.94L149.2 112.81L149.17 112.66L149.14 112.51L147.14 104L147.1 103.83L147.06 103.66L147.01 103.48L146.95 103.32L146.89 103.15L146.83 102.99L146.77 102.83L146.7 102.66L146.63 102.51L146.56 102.34L146.48 102.19L146.4 102.03L146.31 101.88L146.23 101.73L146.14 101.58L146.04 101.44L145.94 101.29L145.85 101.14L145.75 101.01L145.64 100.86L145.53 100.72L145.42 100.59L145.3 100.46L145.18 100.33L145.07 100.2L144.94 100.08L144.81 99.95L144.69 99.84L144.55 99.72L144.33 99.52L144.09 99.34L143.85 99.16L143.6 98.99L143.36 98.83L143.11 98.68L142.85 98.53L142.59 98.39L142.33 98.26L142.06 98.14L141.79 98.02L141.52 97.92L141.24 97.82L140.96 97.73L140.68 97.65L140.4 97.57L140.11 97.52L139.82 97.46L139.54 97.41L139.24 97.37L138.95 97.34L138.66 97.32L138.37 97.3L138.19 97.3L138.24 97.28L138.57 97.19L138.9 97.11L139.23 97.03L139.58 96.96L139.92 96.9L136.58 97.42L136.88 97.37L137.18 97.34ZM149.55 115.99L149.55 116.13L149.55 116.28L149.55 116.43L149.55 116.57L149.54 116.72L149.63 114.59L149.57 115.71L149.55 115.93L149.55 115.99ZM49.47 104.36L49.64 104.57L49.81 104.77L49.97 104.97L50.15 105.16L50.31 105.37L50.49 105.56L50.51 105.58L50.64 105.78L50.8 105.99L50.96 106.2L51.11 106.41L51.27 106.62L51.43 106.83L51.59 107.03L51.75 107.24L51.9 107.45L52.07 107.66L52.22 107.86L48.98 103.76L49.14 103.96L49.31 104.16L49.47 104.36Z" id="b1Ne4Ku5uS"></path><path d="M94.11 3.67L94.72 3.71L95.31 3.76L95.92 3.82L96.52 3.88L97.11 3.97L97.71 4.06L98.3 4.16L98.9 4.27L99.48 4.39L100.07 4.53L100.65 4.67L101.24 4.83L101.82 4.99L102.39 5.16L102.96 5.35L103.53 5.54L104.09 5.75L104.65 5.96L105.21 6.19L105.76 6.42L106.31 6.66L106.86 6.92L107.39 7.18L107.93 7.45L108.46 7.74L108.98 8.03L109.51 8.33L110.03 8.64L110.53 8.96L111.04 9.3L111.54 9.63L112.04 9.98L112.52 10.34L113 10.7L113.48 11.08L113.96 11.46L114.42 11.86L122.22 18.6L122.73 19.06L123.25 19.52L123.76 19.98L124.26 20.44L124.76 20.92L125.26 21.4L125.75 21.89L126.23 22.37L126.71 22.87L127.18 23.37L127.65 23.87L128.12 24.37L128.58 24.89L129.02 25.41L129.47 25.93L129.91 26.46L130.35 26.99L130.78 27.52L131.21 28.06L131.63 28.61L132.04 29.15L132.45 29.71L132.85 30.26L133.25 30.82L133.64 31.39L134.02 31.96L134.4 32.53L134.77 33.11L135.14 33.69L135.5 34.27L135.85 34.87L136.2 35.45L136.54 36.05L136.88 36.65L137.22 37.26L137.54 37.86L137.86 38.48L138.17 39.09L138.47 39.7L138.78 40.33L138.9 40.6L139.03 40.86L139.16 41.12L139.27 41.37L139.39 41.62L139.51 41.86L139.62 42.09L139.73 42.33L139.83 42.55L139.94 42.77L140.03 42.98L140.14 43.19L140.23 43.39L140.33 43.59L140.41 43.77L140.5 43.96L140.59 44.13L140.67 44.31L140.75 44.47L140.82 44.63L140.89 44.78L140.97 44.93L141.04 45.08L141.1 45.21L141.17 45.35L141.22 45.47L141.27 45.59L141.33 45.7L141.38 45.82L141.43 45.92L141.48 46.01L141.52 46.1L141.56 46.19L141.59 46.27L141.63 46.35L141.66 46.41L141.69 46.47L141.72 46.53L141.74 46.58L141.76 46.63L142.23 47.66L142.69 48.71L143.13 49.75L143.55 50.79L143.96 51.85L144.36 52.9L144.75 53.95L145.13 55.02L145.5 56.09L145.85 57.15L146.19 58.22L146.52 59.3L146.83 60.38L147.14 61.46L147.44 62.54L147.71 63.64L147.98 64.72L148.25 65.82L148.49 66.91L148.72 68.01L148.95 69.12L149.16 70.22L149.37 71.32L149.56 72.43L149.75 73.54L149.92 74.66L150.08 75.77L150.24 76.88L150.37 78L150.51 79.12L150.63 80.24L150.74 81.37L150.84 82.5L150.94 83.62L151.03 84.75L151.09 85.88L151.16 87.01L151.22 88.14L151.27 89.27L151.31 90.41L151.31 90.5L151.31 90.62L151.31 90.77L151.31 90.94L151.32 91.13L151.32 91.33L151.32 91.56L151.32 91.8L151.32 92.05L151.32 92.33L151.32 92.61L151.32 92.9L151.32 93.21L151.32 93.53L151.32 93.85L151.32 94.18L151.32 94.51L151.32 94.85L151.32 95.19L151.32 95.54L151.32 95.88L151.32 96.22L151.32 96.55L151.32 96.89L151.32 97.21L151.31 97.54L151.31 97.86L151.31 98.16L151.31 98.45L151.31 98.74L151.31 99.27L151.31 99.51L151.31 99.74L151.31 99.94L151.31 100.13L151.31 100.3L151.31 100.44L151.31 100.57L151.31 100.67L151.31 100.83L151.31 101.02L151.32 101.19L151.33 101.38L151.34 101.56L151.36 101.76L151.38 101.95L151.4 102.16L151.43 102.36L151.45 102.57L151.48 102.78L151.51 103.01L151.55 103.22L151.59 103.45L151.63 103.68L151.68 103.91L151.73 104.16L151.78 104.4L151.83 104.64L151.89 104.9L151.95 105.15L152.01 105.41L152.08 105.68L152.15 105.94L152.22 106.21L152.29 106.49L152.37 106.77L152.45 107.05L152.54 107.35L152.62 107.64L152.71 107.93L152.8 108.23L152.9 108.55L153 108.85L153.09 109.17L153.2 109.48L153.31 109.8L153.41 110.14L153.53 110.47L153.65 110.8L153.22 114.97L153.12 115.85L153.01 116.72L152.89 117.59L152.75 118.45L152.61 119.31L152.45 120.17L152.27 121.03L152.09 121.88L151.89 122.73L151.68 123.57L151.45 124.41L151.22 125.25L150.97 126.08L150.71 126.91L150.44 127.73L150.15 128.56L149.85 129.37L149.54 130.18L149.22 130.99L148.89 131.79L148.55 132.58L148.19 133.37L147.82 134.16L147.44 134.94L147.05 135.71L146.65 136.48L146.23 137.24L145.8 138L145.36 138.75L144.91 139.49L144.45 140.23L143.98 140.96L143.5 141.68L143 142.4L142.5 143.11L141.98 143.81L141.46 144.5L140.91 145.19L140.37 145.88L139.81 146.55L139.78 146.58L139.76 146.61L139.73 146.63L139.71 146.66L139.69 146.69L139.66 146.72L139.64 146.75L139.62 146.77L139.6 146.79L139.57 146.82L139.55 146.85L139.53 146.88L139.5 146.91L139.48 146.94L139.45 146.97L139.43 146.99L139.4 147.02L139.38 147.05L139.36 147.08L139.33 147.11L139.31 147.14L139.28 147.15L139.26 147.18L139.23 147.21L139.22 147.24L139.19 147.27L139.14 147.32L139.12 147.35L139.09 147.38L139.07 147.41L139.04 147.44L139.02 147.46L139 147.49L138.97 147.52L138.95 147.54L138.92 147.57L138.87 147.62L138.85 147.65L138.41 148.15L138.16 148.42L137.91 148.68L137.65 148.92L137.38 149.14L137.11 149.37L136.83 149.58L136.53 149.78L136.24 149.96L135.95 150.14L135.64 150.3L135.33 150.45L135.02 150.6L134.7 150.72L134.38 150.84L134.06 150.95L133.72 151.05L133.39 151.12L133.06 151.19L132.73 151.25L132.39 151.3L132.34 151.31L132.21 151.46L126.19 152.04L123.43 149.7L125.73 139.8L125.78 139.14L126.57 125.7L120.82 88L120.82 117.94L117.24 89.29L114.65 116.99L110.42 85.38L111.72 109.74L99.14 69.1L101.32 103.76L84.74 63.24L95.79 101.96L95.79 101.95L95.51 101.7L95.22 101.44L94.95 101.17L94.68 100.91L94.41 100.65L94.15 100.37L93.89 100.09L93.63 99.82L93.38 99.53L93.13 99.25L92.88 98.97L92.64 98.68L92.39 98.38L92.16 98.09L91.93 97.79L91.69 97.5L91.47 97.18L91.24 96.88L91.03 96.57L90.81 96.26L90.61 95.95L90.4 95.63L90.2 95.31L90 94.99L89.8 94.67L89.62 94.35L89.42 94.01L89.23 93.68L89.06 93.35L88.88 93.02L88.71 92.68L88.54 92.34L88.39 92L88.22 91.65L88.06 91.3L87.92 90.96L87.77 90.61L87.63 90.26L87.49 89.9L87.35 89.55L74.33 54.44L74.33 70.68L74.34 71.6L74.35 72.53L74.36 73.46L74.39 74.38L74.42 75.31L74.45 76.23L74.5 77.15L74.55 78.08L74.61 79L74.66 79.92L74.73 80.85L74.81 81.77L74.89 82.69L74.98 83.61L75.07 84.53L75.17 85.44L75.28 86.36L75.4 87.29L75.51 88.19L75.64 89.11L75.78 90.03L75.91 90.94L76.06 91.85L76.22 92.77L76.37 93.67L76.54 94.58L76.71 95.49L76.89 96.39L77.07 97.3L77.27 98.21L77.46 99.11L77.67 100.01L77.87 100.92L78.1 101.82L78.31 102.71L78.55 103.61L78.78 104.51L79.02 105.4L79.28 106.29L79.53 107.18L79.54 107.22L65.23 78.23L77.91 113.28L77.91 113.28L77.2 113L76.5 112.72L75.81 112.44L75.11 112.13L74.43 111.82L73.75 111.5L73.08 111.18L72.4 110.84L71.74 110.49L71.08 110.14L70.42 109.76L69.78 109.39L69.14 109L68.5 108.61L67.87 108.2L67.24 107.79L66.63 107.38L66.01 106.95L65.41 106.51L64.81 106.06L64.22 105.6L63.63 105.13L63.05 104.65L62.48 104.18L61.92 103.69L61.35 103.19L60.81 102.68L60.26 102.17L59.72 101.64L59.2 101.1L58.68 100.57L58.16 100.02L57.66 99.47L57.16 98.9L56.67 98.33L56.19 97.76L55.72 97.17L55.25 96.58L54.79 95.97L54.34 95.37L48.98 88L61.33 115.2L56.31 111.16L56.12 110.99L55.91 110.83L55.71 110.66L55.51 110.49L55.31 110.32L55.11 110.15L54.92 109.98L54.72 109.8L54.53 109.64L54.33 109.46L54.14 109.29L53.94 109.11L53.76 108.94L53.56 108.75L53.38 108.57L53.18 108.39L53 108.21L52.81 108.03L52.62 107.84L52.44 107.66L52.25 107.47L52.08 107.29L51.89 107.1L51.72 106.91L51.53 106.72L51.36 106.53L51.18 106.34L51.01 106.15L50.83 105.95L50.65 105.76L50.51 105.58L50.5 105.57L50.34 105.36L50.19 105.14L50.04 104.93L49.88 104.71L49.74 104.5L49.59 104.28L49.45 104.07L49.3 103.85L49.15 103.64L49.01 103.43L48.86 103.2L48.71 102.99L48.58 102.77L48.43 102.55L48.29 102.32L48.15 102.11L48.01 101.88L47.88 101.66L47.74 101.45L47.6 101.22L47.47 101L47.33 100.77L47.19 100.55L47.07 100.32L46.93 100.1L46.8 99.88L46.67 99.64L46.54 99.42L46.41 99.19L38.08 84.41L42.48 110.8L34.96 90.6L38.08 115.66L44.95 144.02L31.1 110.8L41.18 144.02L31.1 129.69L25.57 110.8L26.55 139.14L23.62 122.1L23.56 121.73L23.49 121.35L23.44 120.97L23.38 120.6L23.33 120.22L23.27 119.84L23.22 119.46L23.17 119.08L23.12 118.71L23.08 118.33L23.04 117.95L23 117.57L22.96 117.19L22.92 116.81L22.88 116.43L22.85 116.04L22.82 115.66L22.79 115.28L22.76 114.9L22.73 114.52L22.71 114.14L22.69 113.75L22.68 113.37L22.66 112.99L22.65 112.61L22.63 112.23L22.62 111.85L22.61 111.47L22.61 111.08L22.6 110.7L22.6 110.32L22.6 109.94L22.6 109.56L22.6 109.18L22.61 108.79L22.62 108.41L22.63 108.03L22.64 107.65L22.65 107.27L22.67 106.89L23.62 85.38L27.96 53.9L28 53.59L28.05 53.28L28.1 52.97L28.15 52.66L28.2 52.34L28.25 52.03L28.31 51.72L28.37 51.41L28.43 51.09L28.5 50.79L28.57 50.48L28.62 50.17L28.7 49.86L28.77 49.55L28.85 49.24L28.92 48.94L28.99 48.63L29.07 48.33L29.16 48.02L29.25 47.72L29.33 47.41L29.41 47.11L29.51 46.8L29.6 46.5L29.7 46.2L29.79 45.9L29.89 45.59L29.99 45.3L30.1 45L30.19 44.7L30.3 44.4L30.41 44.1L30.53 43.81L30.63 43.52L30.75 43.21L30.87 42.92L30.98 42.63L31.11 42.34L31.23 42.04L31.35 41.75L31.36 41.73L31.53 41.35L31.71 40.97L31.88 40.59L32.07 40.22L32.26 39.85L32.46 39.49L32.65 39.12L32.86 38.76L33.06 38.41L33.28 38.06L33.5 37.7L33.72 37.35L33.95 37.01L34.18 36.67L34.43 36.33L34.67 36L34.91 35.67L35.17 35.33L35.42 35.01L35.68 34.7L35.95 34.38L36.22 34.07L36.49 33.76L36.78 33.45L37.06 33.16L37.34 32.86L37.64 32.57L37.94 32.28L38.24 32L38.54 31.72L38.85 31.44L39.17 31.17L39.48 30.9L39.8 30.64L40.12 30.38L40.45 30.13L40.79 29.87L41.13 29.63L41.47 29.4L41.81 29.16L42.48 28.7L50.2 18.62L50.34 18.43L50.5 18.25L50.64 18.07L50.81 17.89L50.97 17.71L51.12 17.55L51.29 17.37L51.46 17.21L51.63 17.05L51.81 16.88L51.98 16.73L52.17 16.58L52.34 16.43L52.53 16.28L52.71 16.14L52.91 16.01L53.1 15.87L53.29 15.73L53.49 15.61L53.69 15.48L53.89 15.36L54.1 15.25L54.3 15.13L54.51 15.02L54.72 14.91L54.93 14.82L55.14 14.72L55.36 14.62L55.58 14.53L55.79 14.45L56.02 14.37L56.24 14.29L56.47 14.21L56.69 14.14L56.92 14.07L57.15 14.02L57.37 13.96L57.61 13.9L57.84 13.85L58.08 13.81L60.36 13.39L68.18 9.4L68.75 9.12L69.31 8.85L69.88 8.58L70.44 8.32L71.02 8.07L71.59 7.81L72.17 7.58L72.75 7.35L73.34 7.12L73.92 6.9L74.51 6.68L75.09 6.48L75.69 6.28L76.28 6.09L76.88 5.9L77.47 5.73L78.08 5.55L78.68 5.4L79.29 5.24L79.89 5.08L80.5 4.95L81.11 4.81L81.72 4.68L82.33 4.57L82.94 4.45L83.56 4.34L84.17 4.24L84.8 4.15L85.41 4.07L86.04 3.99L86.65 3.92L87.27 3.85L87.9 3.81L88.52 3.76L89.15 3.71L89.77 3.68L90.4 3.65L91.03 3.64L91.65 3.62L92.29 3.62L92.89 3.63L93.5 3.64L94.11 3.67ZM137.18 97.34L137.48 97.32L137.77 97.3L138.06 97.3L138.19 97.3L137.92 97.39L137.6 97.51L137.27 97.62L136.96 97.76L136.65 97.9L136.35 98.04L136.05 98.21L135.75 98.37L135.46 98.54L135.18 98.72L134.89 98.92L134.62 99.11L134.35 99.32L134.09 99.53L133.83 99.76L133.58 99.98L133.33 100.22L133.1 100.46L132.87 100.71L132.64 100.97L132.42 101.24L132.21 101.5L132.01 101.79L131.81 102.07L131.8 102.08L131.76 102.14L131.73 102.21L131.69 102.27L131.65 102.33L131.61 102.4L131.58 102.47L131.54 102.54L131.51 102.61L131.48 102.66L131.44 102.74L131.41 102.81L131.39 102.88L131.36 102.95L131.34 103.02L131.32 103.08L131.29 103.16L131.27 103.23L131.25 103.3L131.23 103.38L131.21 103.45L131.19 103.52L131.17 103.59L131.16 103.67L131.14 103.74L131.13 103.82L131.12 103.89L131.11 103.96L131.1 104.04L131.09 104.12L129.38 124.01L125.73 139.8L125.11 148.27L125.11 148.31L125.11 148.34L125.11 148.38L125.11 148.43L125.11 148.47L125.12 148.51L125.12 148.55L125.13 148.59L125.13 148.63L125.14 148.68L125.15 148.72L125.16 148.75L125.17 148.79L125.18 148.83L125.19 148.87L125.21 148.91L125.22 148.94L125.24 148.98L125.25 149.02L125.27 149.06L125.29 149.1L125.31 149.12L125.33 149.16L125.35 149.19L125.37 149.23L125.39 149.26L125.42 149.3L125.44 149.33L125.46 149.36L125.48 149.4L125.51 149.43L125.54 149.46L125.57 149.49L125.6 149.51L125.63 149.54L125.66 149.56L125.69 149.59L125.73 149.62L125.76 149.64L125.8 149.67L125.8 149.67L126.1 149.88L126.41 150.06L126.71 150.24L127.03 150.39L127.36 150.55L127.68 150.69L128 150.8L128.33 150.92L128.66 151.02L128.99 151.1L129.34 151.18L129.67 151.24L130.01 151.29L130.35 151.33L130.69 151.36L131.03 151.37L131.37 151.37L131.72 151.36L132.05 151.34L132.34 151.31L138.27 144.19L138.98 143.32L139.66 142.43L140.34 141.54L140.98 140.62L141.6 139.69L142.2 138.76L142.77 137.81L143.34 136.85L143.87 135.87L144.38 134.89L144.87 133.89L145.34 132.89L145.78 131.87L146.2 130.85L146.6 129.82L146.97 128.77L147.32 127.72L147.65 126.66L147.95 125.59L148.23 124.52L148.48 123.44L148.71 122.34L148.92 121.25L149.09 120.15L149.25 119.05L149.39 117.94L149.49 116.83L149.55 115.93L149.55 115.84L149.55 115.69L149.54 115.55L149.54 115.4L149.53 115.26L149.52 115.11L149.51 114.97L149.5 114.83L149.49 114.68L149.47 114.53L149.46 114.39L149.45 114.24L149.43 114.09L149.41 113.95L149.39 113.81L149.37 113.67L149.34 113.52L149.32 113.37L149.29 113.24L149.26 113.09L149.23 112.94L149.2 112.81L149.17 112.66L149.14 112.51L147.14 104L147.1 103.83L147.06 103.66L147.01 103.48L146.95 103.32L146.89 103.15L146.83 102.99L146.77 102.83L146.7 102.66L146.63 102.51L146.56 102.34L146.48 102.19L146.4 102.03L146.31 101.88L146.23 101.73L146.14 101.58L146.04 101.44L145.94 101.29L145.85 101.14L145.75 101.01L145.64 100.86L145.53 100.72L145.42 100.59L145.3 100.46L145.18 100.33L145.07 100.2L144.94 100.08L144.81 99.95L144.69 99.84L144.55 99.72L144.33 99.52L144.09 99.34L143.85 99.16L143.6 98.99L143.36 98.83L143.11 98.68L142.85 98.53L142.59 98.39L142.33 98.26L142.06 98.14L141.79 98.02L141.52 97.92L141.24 97.82L140.96 97.73L140.68 97.65L140.4 97.57L140.11 97.52L139.82 97.46L139.54 97.41L139.24 97.37L138.95 97.34L138.66 97.32L138.37 97.3L138.19 97.3L138.24 97.28L138.57 97.19L138.9 97.11L139.23 97.03L139.58 96.96L139.92 96.9L136.58 97.42L136.88 97.37L137.18 97.34ZM149.55 115.99L149.55 116.13L149.55 116.28L149.55 116.43L149.55 116.57L149.54 116.72L149.63 114.59L149.57 115.71L149.55 115.93L149.55 115.99ZM49.47 104.36L49.64 104.57L49.81 104.77L49.97 104.97L50.15 105.16L50.31 105.37L50.49 105.56L50.51 105.58L50.64 105.78L50.8 105.99L50.96 106.2L51.11 106.41L51.27 106.62L51.43 106.83L51.59 107.03L51.75 107.24L51.9 107.45L52.07 107.66L52.22 107.86L48.98 103.76L49.14 103.96L49.31 104.16L49.47 104.36Z" id="b5GLO8WEJ"></path><path d="M64.62 83.33C66.07 86.32 67.83 92.14 69.46 95.63C73.27 103.78 76.6 110.34 75.14 110.34C72.18 110.34 54.34 97.78 54.34 88.72C54.34 79.66 57.23 59.31 60.19 59.31C63.15 59.31 62.92 70.07 62.92 79.13C62.92 81.85 62.54 79.04 64.62 83.33Z" id="a8t394JJ21"></path><path d="M38.9 76.03C38.68 81.72 42.13 83.43 39.79 83.43C34.41 83.43 35.25 58.58 35.25 53.2C35.25 47.82 42.86 28.18 48.25 28.18C53.63 28.18 42.72 43.6 42.72 48.98C42.72 52.02 39.19 68.65 38.9 76.03Z" id="d9bEIJbGD"></path><path d="M117.54 86.36C114.46 86.36 115.52 75.86 113.64 65.83C112.22 58.26 107.45 50.97 107.45 48.66C107.45 43.27 87.44 23.3 92.82 23.3C98.21 23.3 124.68 49.77 124.68 55.15C124.68 60.53 122.91 86.36 117.54 86.36Z" id="fiCR2cVtz"></path><path d="M88.9 44.73C91.27 53.28 97.28 73.68 94.51 73.68C91.38 73.68 85.38 44.83 77.16 35.66C71.21 29.02 61.56 27.84 61.56 25.57C61.56 20.19 60.72 21.02 66.1 21.02C71.49 21.02 88.12 31.89 88.12 37.28C88.12 39.89 86.66 36.67 88.9 44.73Z" id="a2vu1s47N"></path><path d="M46.11 224.77C41.34 233.87 35.39 245.19 32.74 245.19C28.62 245.19 52.86 207.97 53.85 204.47C54.85 200.96 56.69 193.14 60.81 193.14C64.92 193.14 49.04 215.95 49.04 219.94C49.04 221.36 48.73 219.76 46.11 224.77Z" id="d1FATWLEqR"></path><path d="M13.27 283.12C12.21 287.31 11.05 294.97 11.05 300.06C11.05 303.06 12.56 303.75 11.75 303.75C7.07 303.75 12.32 282.69 12.32 278.01C12.32 273.32 19.23 258.49 23.92 258.49C28.6 258.49 15.99 270.49 15.99 275.17C15.99 277.68 15.23 275.47 13.27 283.12Z" id="bOqG8GidD"></path><path d="M182.57 259.95C179.76 259.95 176.15 244.37 166.87 230.02C158.49 217.03 149.42 200.09 149.42 197.54C149.42 192.15 141.11 174.46 146.49 174.46C151.87 174.46 153 192.81 153 198.19C153 203.57 187.96 259.95 182.57 259.95Z" id="c1fb1RLCTg"></path></defs><g><g><g><use xlink:href="#a3P1KAKaUW" opacity="1" fill="#f7cd70" fill-opacity="1"></use><g><use xlink:href="#a3P1KAKaUW" opacity="1" fill-opacity="0" stroke="#000000" stroke-width="1" stroke-opacity="0"></use></g></g><g><use xlink:href="#d1Vu7PdZX1" opacity="1" fill="#000000" fill-opacity="0"></use><g><use xlink:href="#d1Vu7PdZX1" opacity="1" fill-opacity="0" stroke="#000000" stroke-width="3" stroke-opacity="1"></use></g></g><g><use xlink:href="#a3hwGxwXN" opacity="1" fill="#f7cd70" fill-opacity="1"></use><g><use xlink:href="#a3hwGxwXN" opacity="1" fill-opacity="0" stroke="#000000" stroke-width="1" stroke-opacity="0"></use></g></g><g><use xlink:href="#d1u0J3q8Gm" opacity="1" fill="#000000" fill-opacity="0"></use><g><use xlink:href="#d1u0J3q8Gm" opacity="1" fill-opacity="0" stroke="#000000" stroke-width="3" stroke-opacity="1"></use></g></g><g><use xlink:href="#a5cipjSf2S" opacity="1" fill="#e0b74a" fill-opacity="1"></use><g><use xlink:href="#a5cipjSf2S" opacity="1" fill-opacity="0" stroke="#000000" stroke-width="1" stroke-opacity="0"></use></g></g><g><use xlink:href="#a8Du1D0hFx" opacity="1" fill="#000000" fill-opacity="0"></use><g><use xlink:href="#a8Du1D0hFx" opacity="1" fill-opacity="0" stroke="#000000" stroke-width="3" stroke-opacity="1"></use></g></g><g><use xlink:href="#b1CBpfhoKk" opacity="1" fill="#e0b74a" fill-opacity="1"></use><g><use xlink:href="#b1CBpfhoKk" opacity="1" fill-opacity="0" stroke="#000000" stroke-width="1" stroke-opacity="0"></use></g></g><g><use xlink:href="#e2oGx5F0X2" opacity="1" fill="#000000" fill-opacity="0"></use><g><use xlink:href="#e2oGx5F0X2" opacity="1" fill-opacity="0" stroke="#000000" stroke-width="3" stroke-opacity="1"></use></g></g><g><use xlink:href="#fLHrA1ycf" opacity="1" fill="#000000" fill-opacity="0"></use><g><use xlink:href="#fLHrA1ycf" opacity="1" fill-opacity="0" stroke="#000000" stroke-width="1" stroke-opacity="0"></use></g></g><g><use xlink:href="#aoihXh06e" opacity="1" fill="#000000" fill-opacity="0"></use><g><use xlink:href="#aoihXh06e" opacity="1" fill-opacity="0" stroke="#0a1216" stroke-width="3" stroke-opacity="1"></use></g></g><g><use xlink:href="#b1Ne4Ku5uS" opacity="1" fill="#f7cd70" fill-opacity="1"></use><g><use xlink:href="#b1Ne4Ku5uS" opacity="1" fill-opacity="0" stroke="#000000" stroke-width="1" stroke-opacity="0"></use></g></g><g><use xlink:href="#b5GLO8WEJ" opacity="1" fill="#000000" fill-opacity="0"></use><g><use xlink:href="#b5GLO8WEJ" opacity="1" fill-opacity="0" stroke="#000000" stroke-width="3" stroke-opacity="1"></use></g></g><g><use xlink:href="#a8t394JJ21" opacity="1" fill="#e0b74a" fill-opacity="1"></use><g><use xlink:href="#a8t394JJ21" opacity="1" fill-opacity="0" stroke="#000000" stroke-width="1" stroke-opacity="0"></use></g></g><g><use xlink:href="#d9bEIJbGD" opacity="1" fill="#e0b74a" fill-opacity="1"></use><g><use xlink:href="#d9bEIJbGD" opacity="1" fill-opacity="0" stroke="#000000" stroke-width="1" stroke-opacity="0"></use></g></g><g><use xlink:href="#fiCR2cVtz" opacity="1" fill="#e0b74a" fill-opacity="1"></use><g><use xlink:href="#fiCR2cVtz" opacity="1" fill-opacity="0" stroke="#000000" stroke-width="1" stroke-opacity="0"></use></g></g><g><use xlink:href="#a2vu1s47N" opacity="1" fill="#e0b74a" fill-opacity="1"></use><g><use xlink:href="#a2vu1s47N" opacity="1" fill-opacity="0" stroke="#000000" stroke-width="1" stroke-opacity="0"></use></g></g><g><use xlink:href="#d1FATWLEqR" opacity="1" fill="#e0b74a" fill-opacity="1"></use><g><use xlink:href="#d1FATWLEqR" opacity="1" fill-opacity="0" stroke="#000000" stroke-width="1" stroke-opacity="0"></use></g></g><g><use xlink:href="#bOqG8GidD" opacity="1" fill="#e0b74a" fill-opacity="1"></use><g><use xlink:href="#bOqG8GidD" opacity="1" fill-opacity="0" stroke="#000000" stroke-width="1" stroke-opacity="0"></use></g></g><g><use xlink:href="#c1fb1RLCTg" opacity="1" fill="#e0b74a" fill-opacity="1"></use><g><use xlink:href="#c1fb1RLCTg" opacity="1" fill-opacity="0" stroke="#000000" stroke-width="1" stroke-opacity="0"></use></g></g></g></g></svg>