<?xml version="1.0" encoding="UTF-8" standalone="no"?>
<!DOCTYPE svg PUBLIC "-//W3C//DTD SVG 1.1//EN" "http://www.w3.org/Graphics/SVG/1.1/DTD/svg11.dtd">
<svg version="1.1" xmlns="http://www.w3.org/2000/svg" xmlns:xlink="http://www.w3.org/1999/xlink" preserveAspectRatio="xMidYMid meet" viewBox="0 0 191 573" width="191" height="573"><defs><path d="M32.75 101.27L43.59 149.56" id="d3cJaM93Y"></path><path d="M140.05 96.19C137.67 96.75 136.83 99.76 134.3 99.97C133.33 100.04 124.03 141.04 123.07 141.11C117.13 141.57 126.8 103.21 122.11 96.98C117.67 91.1 125.11 110.26 117.54 110.21C113.96 110.18 112.69 84.19 107.09 79.92C105.82 78.95 106.29 88.34 108.46 108.09C108.55 108.82 107.59 109.18 107.17 108.57C105.22 105.76 102.35 102.89 98.56 99.97C92.76 95.46 83.22 79.88 82.34 79.92C81.88 79.94 84.36 110.96 82.34 110.88C78.14 110.71 64.5 82.62 63.58 86.53C61.85 93.76 67.03 107.87 63.58 107.95C57.95 108.1 53.16 84.83 50.17 88.1C46.76 91.82 51.38 108.03 48.03 108.68C44.22 109.43 42.21 86.65 39.89 90C37.46 93.5 46.07 143.17 43.47 143.05C42.08 142.99 38.92 128.32 33.97 99.08C34.18 99.78 33.6 99.5 32.21 98.24C29.28 95.56 24.38 115.53 23.92 111.5C23.68 109.44 28.41 92.05 28.29 83.18C28.24 79.73 19.39 88.08 19.86 84.84C20.54 80.12 27.16 68.4 27.26 67.15C27.56 63.14 28.66 58.99 30.53 54.7C36.06 42.01 44.23 30.65 54.5 21.35C57.35 18.75 51.86 23.73 55.09 20.8C63.93 12.81 75.41 8.38 87.32 8.38C93.17 8.38 89.12 8.38 94.2 8.38C108.34 8.38 121.67 14.91 130.33 26.08C142.85 42.23 150.26 52 152.57 55.38C156.51 61.15 137.84 39.58 139.09 41.33C140.83 43.77 146.37 54.33 155.72 73C148.84 66.12 145.54 63.24 145.83 64.32C146.56 67.06 150.28 89.81 150.55 92.64C151.03 97.72 151.69 100.87 152.57 102.13C146.41 97.66 142.25 95.68 140.05 96.19Z" id="d9zuy3uth"></path><path d="M140.05 96.19C137.67 96.75 136.83 99.76 134.3 99.97C133.33 100.04 123.85 148.04 122.89 148.11C116.96 148.57 126.8 103.21 122.11 96.98C117.67 91.1 125.11 110.26 117.54 110.21C113.96 110.18 112.69 84.19 107.09 79.92C105.82 78.95 106.29 88.34 108.46 108.09C108.55 108.82 107.59 109.18 107.17 108.57C105.22 105.76 102.35 102.89 98.56 99.97C92.76 95.46 83.22 79.88 82.34 79.92C81.88 79.94 84.36 110.96 82.34 110.88C78.14 110.71 64.5 82.62 63.58 86.53C61.85 93.76 67.03 107.87 63.58 107.95C57.95 108.1 53.16 84.83 50.17 88.1C46.76 91.82 51.38 108.03 48.03 108.68C44.22 109.43 42.21 86.65 39.89 90C37.46 93.5 46.07 143.17 43.47 143.05C42.08 142.99 38.92 128.32 33.97 99.08C34.18 99.78 33.6 99.5 32.21 98.24C29.28 95.56 24.38 115.53 23.92 111.5C23.68 109.44 28.41 92.05 28.29 83.18C28.24 79.73 19.39 88.08 19.86 84.84C20.54 80.12 27.16 68.4 27.26 67.15C27.56 63.14 28.66 58.99 30.53 54.7C36.06 42.01 44.23 30.65 54.5 21.35C57.35 18.75 51.86 23.73 55.09 20.8C63.93 12.81 75.41 8.38 87.32 8.38C93.17 8.38 89.12 8.38 94.2 8.38C108.34 8.38 121.67 14.91 130.33 26.08C142.85 42.23 150.26 52 152.57 55.38C156.51 61.15 137.84 39.58 139.09 41.33C140.83 43.77 146.37 54.33 155.72 73C148.84 66.12 145.54 63.24 145.83 64.32C146.56 67.06 150.28 89.81 150.55 92.64C151.03 97.72 151.69 100.87 152.57 102.13C146.41 97.66 142.25 95.68 140.05 96.19Z" id="a1Om26aaq"></path><path d="M78.89 9.62C89.44 7.48 101.92 10.7 102.25 10.99C104.69 13.06 84.2 20.18 70.76 31.47C62.86 38.11 58.04 49.55 58.04 53.29C58.04 66.21 45.34 85.68 39.76 85.68C34.18 85.68 38.93 71.98 38.93 59.06C38.93 46.14 46.8 27.94 52.38 27.94C52.96 27.94 56.45 23.09 61.81 19.4C64.31 17.67 71.4 11.13 78.89 9.62Z" id="aCqrq028Q"></path><path d="M147.17 86.41C146.16 89.41 142.36 89.58 139.09 91.29C136.01 92.88 133.5 96.11 131.48 96.11C125.42 96.11 131.84 84.46 131.84 77.01C131.84 69.57 118.4 49.74 124.46 49.74C130.53 49.74 142.83 69.57 142.83 77.01C142.83 79.36 148.09 83.72 147.17 86.41Z" id="bjfbJzUWq"></path><path d="M103.7 75.72C102.2 75.72 87.78 61.06 87.78 57.62C87.78 54.16 96.26 40.45 97.76 40.45C99.27 40.45 97.76 47.75 97.76 51.2C97.76 54.65 105.2 75.72 103.7 75.72Z" id="aQ4QBJq"></path></defs><g><g><g><g><use xlink:href="#d3cJaM93Y" opacity="1" fill-opacity="0" stroke="#171819" stroke-width="3" stroke-opacity="1"></use></g></g><g><use xlink:href="#d9zuy3uth" opacity="1" fill="#230b06" fill-opacity="1"></use><g><use xlink:href="#d9zuy3uth" opacity="1" fill-opacity="0" stroke="#000000" stroke-width="1" stroke-opacity="0"></use></g></g><g><use xlink:href="#a1Om26aaq" opacity="1" fill="#000000" fill-opacity="0"></use><g><use xlink:href="#a1Om26aaq" opacity="1" fill-opacity="0" stroke="#000000" stroke-width="3" stroke-opacity="1"></use></g></g><g><use xlink:href="#aCqrq028Q" opacity="1" fill="#41160d" fill-opacity="1"></use><g><use xlink:href="#aCqrq028Q" opacity="1" fill-opacity="0" stroke="#000000" stroke-width="1" stroke-opacity="0"></use></g></g><g><use xlink:href="#bjfbJzUWq" opacity="1" fill="#41160d" fill-opacity="1"></use><g><use xlink:href="#bjfbJzUWq" opacity="1" fill-opacity="0" stroke="#000000" stroke-width="1" stroke-opacity="0"></use></g></g><g><use xlink:href="#aQ4QBJq" opacity="1" fill="#41160d" fill-opacity="1"></use><g><use xlink:href="#aQ4QBJq" opacity="1" fill-opacity="0" stroke="#000000" stroke-width="1" stroke-opacity="0"></use></g></g></g></g></svg>