<?xml version="1.0" encoding="UTF-8" standalone="no"?>
<!DOCTYPE svg PUBLIC "-//W3C//DTD SVG 1.1//EN" "http://www.w3.org/Graphics/SVG/1.1/DTD/svg11.dtd">
<svg version="1.1" xmlns="http://www.w3.org/2000/svg" xmlns:xlink="http://www.w3.org/1999/xlink" preserveAspectRatio="xMidYMid meet" viewBox="269.4760026853114 57.420003255208314 145.70141195506284 144.4521218269423" width="141.2" height="139.95"><defs><path d="M408.91 156.35C402.51 151.7 398.18 149.65 395.9 150.18C393.43 150.76 392.55 153.89 389.92 154.1C388.91 154.18 379.25 196.78 378.25 196.86C372.08 197.34 382.13 157.47 377.25 151C372.64 144.89 380.37 164.8 372.51 164.74C368.79 164.71 367.47 137.7 361.65 133.27C360.33 132.26 360.81 142.02 363.07 162.54C363.16 163.3 362.17 163.67 361.73 163.04C359.7 160.12 356.72 157.14 352.78 154.1C346.75 149.42 336.84 133.23 335.92 133.27C335.45 133.29 338.02 165.52 335.92 165.44C331.56 165.26 317.39 136.07 316.43 140.14C314.63 147.65 320.01 162.31 316.43 162.4C310.58 162.55 305.6 138.37 302.49 141.77C298.95 145.63 303.75 162.48 300.27 163.16C296.31 163.93 294.22 140.26 291.81 143.74C289.28 147.38 298.23 199 295.53 198.87C294.09 198.81 290.8 183.57 285.66 153.18C285.88 153.91 285.27 153.62 283.83 152.31C280.78 149.52 275.69 170.27 275.21 166.09C274.96 163.95 279.88 145.87 279.75 136.65C279.7 133.07 270.51 141.75 270.99 138.38C271.7 133.47 278.58 121.3 278.68 120C279 115.83 280.14 111.52 282.08 107.06C287.83 93.87 296.32 82.06 306.99 72.4C309.96 69.7 304.25 74.87 307.61 71.83C316.79 63.52 328.72 58.92 341.1 58.92C347.18 58.92 342.97 58.92 348.25 58.92C362.94 58.92 376.8 65.71 385.8 77.32C398.81 94.1 406.51 104.25 408.91 107.76C413 113.76 393.6 91.34 394.9 93.16C396.71 95.7 402.47 106.67 412.18 126.08C405.03 118.93 401.6 115.93 401.91 117.06C402.66 119.9 406.53 143.54 406.81 146.49C407.31 151.76 408 155.04 408.91 156.35Z" id="gAXsLcDn2"></path><path d="M314.59 70.37C317.19 68.58 324.56 61.78 332.34 60.21C343.3 57.99 356.27 61.33 356.62 61.63C359.15 63.78 337.86 71.18 323.89 82.92C315.68 89.82 310.67 101.71 310.67 105.59C310.67 119.02 297.47 139.25 291.68 139.25C285.88 139.25 290.81 125.02 290.81 111.59C290.81 98.16 298.99 79.25 304.79 79.25C305.39 79.25 309.02 74.21 314.59 70.37Z" id="eMAY7dmlU"></path><path d="M398.79 130.24C398.79 132.68 404.25 137.22 403.3 140.01C402.25 143.13 398.3 143.31 394.9 145.08C391.7 146.74 389.09 150.09 386.99 150.09C380.69 150.09 387.37 137.98 387.37 130.24C387.37 122.51 373.4 101.9 379.7 101.9C386.01 101.9 398.79 122.51 398.79 130.24Z" id="a2zsbK1iko"></path><path d="M351.95 103.42C351.95 107.01 359.68 128.9 358.12 128.9C356.56 128.9 341.58 113.67 341.58 110.09C341.58 106.5 350.39 92.25 351.95 92.25C353.52 92.25 351.95 99.83 351.95 103.42Z" id="d1T6xFF518"></path></defs><g><g><use xlink:href="#gAXsLcDn2" opacity="1" fill="#230b06" fill-opacity="1"></use><g><use xlink:href="#gAXsLcDn2" opacity="1" fill-opacity="0" stroke="#000000" stroke-width="3" stroke-opacity="1"></use></g></g><g><use xlink:href="#eMAY7dmlU" opacity="1" fill="#41160d" fill-opacity="1"></use></g><g><use xlink:href="#a2zsbK1iko" opacity="1" fill="#41160d" fill-opacity="1"></use></g><g><use xlink:href="#d1T6xFF518" opacity="1" fill="#41160d" fill-opacity="1"></use></g></g></svg>