<?xml version="1.0" encoding="UTF-8" standalone="no"?>
<!DOCTYPE svg PUBLIC "-//W3C//DTD SVG 1.1//EN" "http://www.w3.org/Graphics/SVG/1.1/DTD/svg11.dtd">
<svg version="1.1" xmlns="http://www.w3.org/2000/svg" xmlns:xlink="http://www.w3.org/1999/xlink" preserveAspectRatio="xMidYMid meet" viewBox="231.44531238787374 41.00328209412812 193.38477089354393 575.003469063567" width="188.88" height="570.5"><defs><path d="M341.95 211.72L341.96 212L341.97 212.28L341.99 212.57L342.01 212.85L342.05 213.12L342.09 213.4L342.13 213.68L342.19 213.95L342.25 214.22L342.32 214.49L342.39 214.76L342.47 215.02L342.56 215.28L342.66 215.54L342.76 215.8L342.86 216.05L342.98 216.3L343.1 216.55L343.23 216.8L343.36 217.04L343.5 217.27L343.64 217.51L343.79 217.74L343.95 217.97L344.11 218.19L344.28 218.41L344.46 218.62L344.64 218.83L344.82 219.04L345.01 219.24L345.21 219.43L345.41 219.62L345.62 219.81L345.83 219.99L346.05 220.17L346.27 220.34L346.5 220.51L346.73 220.67L346.97 220.82L347.21 220.97L348.2 221.56L349.17 222.14L350.12 222.71L351.05 223.26L351.96 223.8L352.84 224.33L353.71 224.85L354.55 225.36L355.37 225.85L356.17 226.33L356.94 226.8L357.7 227.25L358.43 227.69L359.14 228.12L359.83 228.54L360.5 228.95L361.15 229.34L361.77 229.72L362.38 230.09L362.96 230.44L363.52 230.79L364.06 231.12L364.58 231.43L365.07 231.74L365.55 232.03L366 232.31L366.43 232.58L366.84 232.83L367.23 233.08L367.59 233.31L367.94 233.53L368.26 233.73L368.56 233.92L368.84 234.11L369.1 234.27L369.34 234.43L369.55 234.57L369.75 234.7L369.92 234.82L370.07 234.93L370.19 235.02L370.33 235.16L370.51 235.33L370.72 235.55L370.95 235.81L371.22 236.11L371.5 236.46L371.82 236.84L372.15 237.26L372.52 237.73L372.9 238.24L373.31 238.79L373.74 239.38L374.2 240.01L374.67 240.68L375.16 241.39L375.67 242.15L376.2 242.95L376.75 243.78L377.32 244.66L377.9 245.58L378.5 246.55L379.11 247.55L379.73 248.59L380.37 249.68L381.03 250.8L381.69 251.97L382.37 253.18L383.05 254.43L383.75 255.72L384.46 257.06L385.17 258.43L385.89 259.85L386.62 261.31L387.36 262.8L388.1 264.34L388.84 265.92L389.59 267.55L390.34 269.21L391.1 270.91L391.47 271.77L391.85 272.63L392.23 273.51L392.61 274.39L393 275.29L393.39 276.19L393.78 277.11L394.18 278.03L394.57 278.97L394.97 279.91L395.38 280.87L395.78 281.83L396.19 282.81L396.61 283.79L397.02 284.79L397.44 285.79L397.86 286.81L398.29 287.83L398.71 288.87L399.14 289.91L399.58 290.97L400.01 292.03L400.45 293.11L400.89 294.19L401.34 295.29L401.79 296.4L402.24 297.51L402.69 298.64L403.15 299.77L403.61 300.92L404.07 302.07L404.53 303.24L405 304.41L405.47 305.6L405.95 306.79L406.42 308L406.9 309.21L407.39 310.44L407.87 311.67L408.36 312.92L414 337.36L417.88 372.43L421.76 434.96L421.83 439.61L421.83 440.04L421.83 440.47L421.82 440.9L421.81 441.33L421.79 441.76L421.77 442.19L421.74 442.62L421.71 443.05L421.67 443.47L421.63 443.9L421.59 444.33L421.53 444.75L421.48 445.18L421.41 445.6L421.35 446.03L421.27 446.45L421.2 446.87L421.11 447.29L421.03 447.71L420.94 448.13L420.84 448.55L420.74 448.96L420.63 449.38L420.52 449.79L420.4 450.2L420.28 450.62L420.15 451.03L420.02 451.43L419.89 451.84L419.75 452.25L419.6 452.65L419.45 453.05L419.3 453.45L419.14 453.85L418.97 454.25L418.8 454.64L418.63 455.04L418.45 455.43L418.26 455.82L418.08 456.21L414.14 464.18L413.95 464.57L413.74 464.95L413.53 465.32L413.31 465.69L413.08 466.05L412.85 466.41L412.6 466.76L412.35 467.11L412.09 467.45L411.83 467.78L411.55 468.11L411.27 468.43L410.99 468.74L410.69 469.04L410.39 469.34L410.08 469.64L409.77 469.92L409.45 470.2L409.13 470.47L408.8 470.73L408.46 470.99L408.12 471.24L407.77 471.48L407.41 471.71L407.05 471.93L406.69 472.15L406.32 472.36L405.95 472.56L405.57 472.75L405.18 472.93L404.8 473.11L404.4 473.27L404.01 473.43L403.6 473.58L403.2 473.72L402.79 473.85L402.38 473.97L401.96 474.09L401.57 474.18L401.21 474.25L400.65 474.36L400.09 474.45L399.53 474.54L398.97 474.63L398.4 474.71L397.84 474.78L397.27 474.85L396.71 474.91L396.15 474.97L395.58 475.02L395.01 475.06L394.45 475.1L393.88 475.14L393.31 475.16L392.75 475.18L392.18 475.2L391.61 475.21L391.05 475.21L390.48 475.21L389.91 475.21L389.35 475.19L388.78 475.17L388.21 475.15L387.64 475.12L387.08 475.08L386.51 475.04L385.95 474.99L385.38 474.94L384.82 474.88L384.25 474.81L383.69 474.74L383.13 474.66L382.56 474.58L382 474.49L381.44 474.4L380.88 474.29L380.32 474.19L379.76 474.08L371.61 472.4L392.3 552.3L392.51 553.13L392.72 553.96L392.92 554.8L393.12 555.63L393.31 556.47L393.49 557.31L393.68 558.15L393.85 558.99L394.02 559.83L394.19 560.67L394.35 561.51L394.5 562.36L394.65 563.2L394.79 564.05L394.93 564.89L395.06 565.74L395.19 566.59L395.31 567.44L395.43 568.29L395.54 569.14L395.64 569.99L395.74 570.84L395.84 571.69L395.93 572.55L396.01 573.4L396.09 574.25L396.16 575.11L396.23 575.96L396.29 576.82L396.35 577.68L396.4 578.53L396.45 579.39L396.49 580.25L396.53 581.1L396.56 581.96L396.58 582.82L396.6 583.68L396.61 584.54L396.62 585.4L396.62 586.26L396.62 595.79L396.62 596.01L396.62 596.22L396.62 596.44L396.61 596.65L396.6 596.87L396.6 597.09L396.59 597.3L396.58 597.52L396.56 597.73L396.55 597.95L396.53 598.16L396.52 598.38L396.5 598.59L396.48 598.8L396.46 599.02L396.44 599.23L396.41 599.45L396.39 599.66L396.36 599.87L396.33 600.09L396.3 600.3L396.27 600.51L396.24 600.73L396.2 600.94L396.17 601.15L396.13 601.36L396.09 601.57L396.05 601.79L396.01 602L395.96 602.21L395.92 602.42L395.87 602.63L395.83 602.84L395.78 603.05L395.73 603.26L395.68 603.47L395.62 603.68L395.58 603.84L395.52 604.04L395.38 604.45L395.24 604.85L395.07 605.24L394.9 605.62L394.72 606L394.52 606.37L394.31 606.73L394.09 607.09L393.87 607.43L393.63 607.77L393.38 608.1L393.12 608.42L392.85 608.73L392.57 609.03L392.28 609.33L391.98 609.61L391.67 609.88L391.36 610.14L391.04 610.4L390.71 610.64L390.37 610.87L390.02 611.09L389.67 611.3L389.31 611.5L388.95 611.69L388.57 611.86L388.19 612.03L387.81 612.18L387.42 612.32L387.03 612.45L386.63 612.56L386.22 612.67L385.81 612.76L385.4 612.83L384.98 612.89L384.56 612.94L384.14 612.98L383.71 613L383.28 613.01L244.65 613.01L242.15 610.22L241.94 609.98L241.73 609.74L241.52 609.5L241.31 609.27L241.1 609.03L240.89 608.79L240.69 608.55L240.48 608.31L240.28 608.06L240.08 607.82L239.88 607.58L239.67 607.33L239.47 607.09L239.27 606.84L239.08 606.6L238.88 606.35L238.68 606.1L238.49 605.85L238.29 605.6L238.1 605.35L237.9 605.1L237.71 604.85L237.52 604.6L237.33 604.35L237.14 604.09L236.95 603.84L236.76 603.58L236.58 603.33L236.39 603.07L236.21 602.82L236.02 602.56L235.84 602.3L235.66 602.05L235.4 601.59L235.15 601.13L234.92 600.67L234.7 600.2L234.49 599.72L234.29 599.25L234.11 598.76L233.94 598.28L233.79 597.79L233.65 597.29L233.52 596.8L233.4 596.3L233.3 595.8L233.21 595.3L233.13 594.79L233.07 594.29L233.02 593.78L232.98 593.27L232.96 592.76L232.95 592.25L232.95 591.74L232.96 591.23L232.99 590.72L233.04 590.21L233.09 589.7L233.16 589.2L233.24 588.69L233.34 588.18L233.45 587.68L233.57 587.18L233.71 586.68L233.86 586.19L234.02 585.7L234.2 585.21L234.39 584.72L234.59 584.24L234.81 583.76L235.04 583.29L235.68 582.02L235.79 581.8L235.91 581.58L236.02 581.36L236.13 581.14L236.25 580.92L236.37 580.7L236.48 580.48L236.6 580.27L236.72 580.05L236.84 579.83L236.96 579.62L237.09 579.4L237.21 579.19L237.33 578.97L237.46 578.76L237.59 578.55L237.71 578.33L237.84 578.12L237.97 577.91L238.1 577.7L238.23 577.49L238.36 577.28L238.49 577.07L238.63 576.86L238.76 576.66L238.9 576.45L239.03 576.24L239.17 576.04L239.31 575.83L239.45 575.62L239.59 575.42L239.73 575.22L239.87 575.01L240.01 574.81L240.16 574.61L240.3 574.41L240.45 574.21L240.59 574.01L240.74 573.81L240.89 573.61L241.72 572.49L242 572.13L242.29 571.77L242.58 571.42L242.88 571.08L243.19 570.75L243.5 570.42L243.83 570.11L244.15 569.8L244.49 569.5L244.83 569.21L245.18 568.92L245.53 568.65L245.89 568.38L246.26 568.12L246.63 567.87L247.01 567.63L247.39 567.4L247.78 567.18L248.17 566.97L248.56 566.76L248.97 566.57L249.37 566.38L249.78 566.2L250.2 566.04L250.61 565.88L251.04 565.73L251.46 565.59L251.89 565.46L252.32 565.34L252.76 565.23L253.2 565.13L253.64 565.05L254.08 564.97L254.53 564.9L254.98 564.84L255.43 564.79L255.88 564.76L256.33 564.73L256.79 564.71L257.25 564.71L280.24 564.71L280.24 563.79L280.24 563.09L280.25 562.39L280.26 561.69L280.28 560.99L280.3 560.28L280.32 559.58L280.36 558.88L280.39 558.18L280.43 557.48L280.48 556.78L280.53 556.08L280.59 555.39L280.65 554.69L280.71 553.99L280.78 553.29L280.86 552.6L280.94 551.9L281.02 551.2L281.11 550.51L281.21 549.82L281.31 549.12L281.41 548.43L281.52 547.74L281.63 547.05L281.75 546.35L281.87 545.66L282 544.98L282.13 544.29L282.27 543.6L282.41 542.91L282.56 542.23L282.71 541.54L282.87 540.86L283.03 540.18L283.19 539.5L283.36 538.82L283.54 538.14L283.72 537.46L283.9 536.78L284.09 536.1L284.5 534.67L283.01 502.51L281.81 495.54L279.35 477.08L277.35 456.3L267.55 456.3L266.57 456.28L265.6 456.23L264.63 456.14L263.67 456.02L262.73 455.86L261.79 455.67L260.87 455.45L259.96 455.19L259.06 454.91L258.17 454.59L257.3 454.24L256.44 453.87L255.6 453.46L254.78 453.03L253.97 452.56L253.18 452.07L252.41 451.56L251.66 451.01L250.93 450.45L250.21 449.85L249.52 449.23L248.85 448.59L248.21 447.93L247.58 447.24L246.98 446.53L246.41 445.8L245.86 445.05L245.33 444.28L244.83 443.48L244.36 442.67L243.92 441.84L243.5 441L243.12 440.13L242.76 439.25L242.44 438.35L242.15 437.44L241.88 436.51L241.66 435.57L241.46 434.61L241.3 433.64L241.28 433.53L241.26 433.42L241.25 433.31L241.23 433.21L241.22 433.1L241.2 433L241.19 432.91L241.17 432.81L241.16 432.72L241.14 432.63L241.13 432.54L241.11 432.46L241.1 432.38L241.08 432.3L241.07 432.22L241.06 432.14L241.04 432.07L241.03 432L241.02 431.93L241 431.87L240.99 431.81L240.98 431.75L240.97 431.69L240.95 431.64L240.94 431.58L240.93 431.53L240.92 431.49L240.91 431.44L240.9 431.4L240.89 431.36L240.87 431.32L240.86 431.29L240.85 431.26L240.84 431.23L240.83 431.2L240.82 431.18L240.82 431.16L240.81 431.14L240.8 431.12L240.79 431.1L240.2 430.18L239.64 429.24L239.12 428.29L238.63 427.33L238.17 426.35L237.74 425.37L237.35 424.37L236.99 423.37L236.66 422.36L236.36 421.34L236.1 420.32L235.86 419.29L235.67 418.25L235.5 417.21L235.36 416.17L235.26 415.13L235.19 414.08L235.15 413.03L235.15 411.98L235.17 410.93L235.23 409.89L235.32 408.84L235.44 407.8L235.6 406.76L235.78 405.73L236 404.7L236.25 403.68L236.53 402.66L236.84 401.65L237.19 400.65L237.57 399.66L237.97 398.68L238.41 397.71L238.89 396.75L239.39 395.8L239.93 394.87L240.49 393.95L241.09 393.04L241.72 392.15L242.38 391.28L242.92 390.59L243.4 389.97L243.88 389.34L244.35 388.71L244.82 388.07L245.28 387.43L245.74 386.78L246.19 386.13L246.63 385.48L247.07 384.83L247.51 384.17L247.94 383.5L248.36 382.84L248.77 382.17L249.19 381.49L249.59 380.82L249.99 380.14L250.38 379.45L250.77 378.76L251.15 378.07L251.53 377.38L251.9 376.68L252.26 375.98L252.62 375.28L252.97 374.58L253.32 373.87L253.66 373.15L253.99 372.44L254.32 371.72L254.64 371L254.95 370.28L255.26 369.55L255.57 368.82L255.86 368.09L256.15 367.35L256.44 366.62L256.71 365.88L256.99 365.14L257.25 364.39L257.51 363.64L257.76 362.89L261.64 351.24L261.83 350.65L262.03 350.05L262.22 349.45L262.41 348.85L262.6 348.25L262.78 347.64L262.96 347.04L263.14 346.44L263.32 345.83L263.49 345.23L263.66 344.62L263.83 344.02L264 343.41L264.16 342.8L264.32 342.19L264.48 341.58L264.64 340.97L264.79 340.36L264.94 339.75L265.09 339.14L265.23 338.53L265.38 337.91L265.51 337.3L265.65 336.69L265.79 336.07L265.92 335.46L266.05 334.84L266.17 334.22L266.3 333.61L266.42 332.99L266.54 332.37L266.65 331.75L266.77 331.13L266.88 330.51L266.98 329.89L267.09 329.27L267.19 328.65L267.29 328.03L267.39 327.41L267.48 326.78L271.57 299.37L276.06 270.27L276.21 269.34L276.35 268.43L276.5 267.55L276.64 266.68L276.78 265.84L276.91 265.02L277.05 264.22L277.18 263.44L277.31 262.68L277.44 261.94L277.56 261.22L277.69 260.52L277.81 259.85L277.93 259.19L278.05 258.56L278.16 257.94L278.27 257.35L278.38 256.78L278.49 256.23L278.6 255.7L278.7 255.19L278.8 254.7L278.9 254.24L279 253.79L279.09 253.37L279.18 252.96L279.27 252.58L279.36 252.22L279.45 251.87L279.53 251.55L279.61 251.26L279.69 250.98L279.76 250.72L279.84 250.48L279.91 250.27L279.98 250.07L280.05 249.9L280.11 249.75L280.18 249.62L280.24 249.5L280.66 248.8L281.09 248.08L281.53 247.33L281.99 246.56L282.46 245.78L282.95 244.98L283.45 244.17L283.96 243.35L284.49 242.51L285.03 241.67L285.58 240.83L286.14 239.98L286.71 239.13L287.3 238.28L287.9 237.43L288.51 236.59L289.13 235.75L289.76 234.92L290.4 234.11L291.05 233.3L291.72 232.51L292.39 231.74L293.07 230.98L293.77 230.25L294.47 229.54L295.18 228.85L295.9 228.19L296.63 227.56L297.37 226.96L298.12 226.39L298.88 225.85L299.64 225.36L300.42 224.9L301.2 224.48L301.99 224.1L302.78 223.77L303.59 223.48L304.4 223.25L305.22 223.06L306.04 222.93L310.12 222.93L306.04 194.8L341.95 199.75L341.95 211.72ZM395.51 604.09L395.57 603.88L395.58 603.84L395.64 603.63L395.45 604.3L395.51 604.09ZM234.76 600.74L234.94 601L235.11 601.26L235.29 601.52L235.47 601.78L235.66 602.04L235.66 602.05L235.93 602.49L236.22 602.94L234.41 600.21L234.58 600.48L234.76 600.74ZM315.11 445.41L314.99 445.51L314.87 445.65L314.77 445.83L314.69 446.04L314.61 446.3L314.55 446.59L314.5 446.93L314.46 447.3L314.39 448.08L314.34 448.81L314.29 449.49L314.25 450.14L314.22 450.75L314.2 451.33L314.18 451.89L314.18 452.42L314.18 452.93L314.19 453.42L314.21 453.9L314.24 454.38L314.27 454.85L314.31 455.31L314.36 455.79L314.42 456.27L314.49 456.76L314.56 457.26L314.65 457.79L314.74 458.33L314.84 458.9L314.94 459.51L315.06 460.15L315.18 460.82L315.31 461.54L315.45 462.3L315.6 463.11L315.75 463.98L315.92 464.9L316.09 465.88L316.27 466.93L316.45 468.05L316.65 469.24L316.85 470.51L317.06 471.85L317.28 473.28L317.5 474.8L317.73 476.41L317.98 478.12L318.22 479.93L318.25 480.14L318.3 480.44L318.36 480.82L318.43 481.27L318.51 481.79L318.61 482.37L318.71 483.02L318.83 483.72L318.95 484.48L319.08 485.28L319.22 486.13L319.37 487.01L319.52 487.94L319.68 488.89L319.84 489.87L320.01 490.87L320.17 491.89L320.34 492.92L320.52 493.97L320.69 495.02L320.86 496.06L321.04 497.11L321.21 498.15L321.37 499.17L321.54 500.18L321.7 501.17L321.86 502.13L322.01 503.06L322.16 503.96L322.3 504.82L322.43 505.64L322.55 506.41L322.66 507.14L322.77 507.8L322.86 508.41L322.95 508.95L323.02 509.42L323.07 509.83L323.12 510.15L323.15 510.39L323.33 511.97L323.51 513.54L323.69 515.1L323.88 516.65L324.07 518.19L324.27 519.72L324.46 521.25L324.66 522.77L324.87 524.27L325.07 525.77L325.28 527.27L325.5 528.75L325.71 530.22L325.93 531.69L326.15 533.15L326.38 534.6L326.6 536.04L326.83 537.47L327.07 538.89L327.31 540.31L327.55 541.72L327.79 543.12L328.03 544.51L328.28 545.89L328.54 547.26L328.79 548.63L329.05 549.98L329.31 551.33L329.57 552.67L329.84 554L330.11 555.33L330.39 556.64L330.66 557.95L330.94 559.24L331.22 560.53L331.51 561.81L331.8 563.09L332.09 564.35L332.39 565.61L332.68 566.85L345.3 566.85L345.3 547.83L345.29 547.13L345.29 546.43L345.28 545.73L345.26 545.03L345.24 544.33L345.22 543.63L345.19 542.93L345.15 542.23L345.12 541.54L345.08 540.84L345.03 540.14L344.98 539.44L344.92 538.74L344.86 538.05L344.8 537.35L344.73 536.66L344.66 535.96L344.58 535.27L344.5 534.57L344.42 533.88L344.33 533.18L344.23 532.49L344.14 531.8L344.03 531.11L343.93 530.42L343.81 529.73L343.7 529.04L343.58 528.35L343.45 527.66L343.33 526.97L343.19 526.29L343.05 525.6L342.91 524.92L342.77 524.23L342.62 523.55L342.46 522.87L342.3 522.18L342.14 521.5L341.97 520.82L341.8 520.15L331.57 480.28L331.46 479.84L331.34 479.39L331.22 478.95L331.1 478.5L330.98 478.06L330.85 477.61L330.72 477.17L330.6 476.73L330.47 476.29L330.33 475.85L330.2 475.41L330.06 474.97L329.93 474.53L329.79 474.09L329.65 473.65L329.5 473.21L329.36 472.78L329.21 472.34L329.06 471.9L328.91 471.47L328.76 471.03L328.61 470.6L328.45 470.17L328.29 469.73L328.14 469.3L327.97 468.87L327.81 468.44L327.65 468.01L327.48 467.58L327.31 467.15L327.14 466.72L326.97 466.3L326.8 465.87L326.62 465.44L326.44 465.02L326.27 464.6L326.08 464.17L325.9 463.75L325.72 463.33L325.53 462.91L325.02 461.75L324.51 460.64L324.02 459.56L323.55 458.53L323.08 457.53L322.63 456.57L322.19 455.65L321.76 454.78L321.34 453.93L320.93 453.13L320.54 452.37L320.16 451.65L319.79 450.97L319.44 450.32L319.09 449.72L318.76 449.15L318.44 448.62L318.13 448.13L317.84 447.69L317.56 447.28L317.29 446.91L317.03 446.57L316.78 446.28L316.55 446.03L316.32 445.81L316.11 445.64L315.92 445.5L315.73 445.41L315.56 445.35L315.4 445.33L315.25 445.35L315.11 445.41ZM401.54 474.19L401.57 474.18L401.77 474.14L402.33 474.03L401.12 474.28L401.54 474.19ZM362.77 286.22L362.95 286.83L363.12 287.45L363.28 288.07L363.43 288.68L363.58 289.31L363.72 289.93L363.85 290.55L363.98 291.18L364.1 291.8L364.22 292.43L364.32 293.06L364.42 293.68L364.52 294.31L364.6 294.94L364.68 295.58L364.75 296.21L364.82 296.84L364.88 297.47L364.93 298.11L364.98 298.74L365.02 299.38L365.05 300.01L365.07 300.65L365.09 301.28L365.1 301.92L365.11 302.56L365.1 303.19L365.1 303.83L365.08 304.47L365.06 305.1L365.03 305.74L364.99 306.38L364.95 307.01L364.9 307.65L364.84 308.29L364.77 308.92L364.7 309.56L364.62 310.19L364.54 310.83L364.5 311.06L364.47 311.3L364.44 311.54L364.4 311.79L364.37 312.03L364.33 312.28L364.29 312.53L364.25 312.78L364.22 313.04L364.18 313.3L364.14 313.56L364.1 313.82L364.06 314.08L364.02 314.35L363.97 314.61L363.93 314.88L363.89 315.16L363.84 315.43L363.8 315.71L363.75 315.99L363.71 316.27L363.66 316.55L363.62 316.84L363.57 317.13L363.52 317.42L363.47 317.71L363.42 318L363.37 318.3L363.32 318.6L363.27 318.9L363.22 319.2L363.17 319.51L363.11 319.81L363.06 320.12L363 320.44L362.95 320.75L362.89 321.07L362.84 321.38L362.78 321.7L362.72 322.03L362.54 323.05L362.37 324.03L362.2 324.97L362.05 325.87L361.9 326.73L361.76 327.56L361.62 328.35L361.49 329.11L361.37 329.84L361.25 330.54L361.15 331.21L361.04 331.85L360.94 332.46L360.85 333.05L360.76 333.61L360.68 334.15L360.6 334.67L360.53 335.17L360.46 335.64L360.4 336.1L360.34 336.55L360.28 336.97L360.22 337.39L360.17 337.79L360.12 338.17L360.08 338.55L360.03 338.92L359.99 339.28L359.95 339.64L359.91 339.98L359.88 340.33L359.84 340.67L359.81 341.01L359.77 341.35L359.74 341.69L359.7 342.03L359.67 342.38L359.64 342.73L359.6 343.08L359.57 343.45L359.48 344.33L359.41 345.17L359.34 345.98L359.28 346.75L359.23 347.5L359.18 348.2L359.14 348.88L359.11 349.53L359.08 350.15L359.06 350.74L359.04 351.31L359.03 351.85L359.02 352.37L359.02 352.87L359.02 353.35L359.03 353.81L359.04 354.24L359.05 354.67L359.07 355.07L359.08 355.46L359.1 355.84L359.13 356.21L359.15 356.56L359.18 356.91L359.21 357.24L359.23 357.57L359.26 357.9L359.29 358.21L359.32 358.53L359.35 358.84L359.38 359.15L359.41 359.47L359.43 359.78L359.46 360.1L359.48 360.42L359.5 360.74L359.52 361.07L359.54 361.41L359.56 361.76L359.57 362.12L359.58 362.54L359.6 362.95L359.63 363.37L359.66 363.77L359.7 364.18L359.74 364.59L359.79 364.99L359.84 365.4L359.9 365.81L359.97 366.22L360.03 366.63L360.1 367.05L360.18 367.47L360.26 367.89L360.34 368.32L360.42 368.76L360.51 369.2L360.6 369.66L360.69 370.12L360.79 370.59L360.88 371.07L360.98 371.56L361.08 372.07L361.18 372.59L361.28 373.12L361.38 373.66L361.48 374.22L361.58 374.79L361.69 375.38L361.79 375.99L361.89 376.62L361.99 377.26L362.09 377.93L362.18 378.61L362.28 379.31L362.37 380.04L362.46 380.79L362.55 381.56L362.64 382.35L362.72 383.17L362.78 383.76L362.84 384.35L362.89 384.92L362.94 385.49L362.98 386.05L363.03 386.6L363.07 387.14L363.11 387.68L363.14 388.2L363.18 388.72L363.21 389.23L363.23 389.73L363.26 390.23L363.28 390.72L363.3 391.19L363.32 391.66L363.33 392.13L363.34 392.58L363.35 393.03L363.36 393.46L363.36 393.89L363.36 394.32L363.36 394.73L363.35 395.14L363.34 395.53L363.33 395.92L363.32 396.3L363.3 396.68L363.28 397.04L363.26 397.4L363.24 397.75L363.21 398.09L363.18 398.42L363.15 398.75L363.11 399.07L363.07 399.37L363.03 399.68L362.99 399.97L362.94 400.25L362.9 400.53L362.89 400.58L362.88 400.62L362.87 400.67L362.86 400.71L362.85 400.76L362.84 400.8L362.83 400.85L362.81 400.9L362.8 400.94L362.79 400.99L362.78 401.03L362.76 401.08L362.75 401.12L362.74 401.16L362.72 401.21L362.71 401.25L362.69 401.3L362.68 401.34L362.66 401.38L362.64 401.43L362.63 401.47L362.61 401.52L362.59 401.56L362.57 401.6L362.55 401.64L362.54 401.69L362.52 401.73L362.5 401.77L362.48 401.81L362.46 401.86L362.44 401.9L362.41 401.94L362.39 401.98L362.37 402.02L362.35 402.06L362.33 402.1L362.3 402.15L362.28 402.19L362.26 402.23L362.23 402.27L361.23 403.9L374.1 391.62L378.37 384.19L380.88 374.71L381.28 362.72L381.29 362.29L381.31 361.86L381.31 361.43L381.32 361L381.33 360.57L381.33 360.14L381.33 359.71L381.33 359.28L381.33 358.85L381.32 358.42L381.32 357.99L381.31 357.56L381.3 357.13L381.29 356.7L381.27 356.27L381.26 355.84L381.24 355.42L381.22 354.99L381.19 354.56L381.17 354.13L381.14 353.7L381.12 353.27L381.09 352.84L381.05 352.41L381.02 351.99L380.98 351.56L380.94 351.13L380.9 350.7L380.86 350.27L380.82 349.85L380.77 349.42L380.72 348.99L380.67 348.57L380.62 348.14L380.57 347.71L380.51 347.29L380.45 346.86L380.39 346.44L380.33 346.01L380.27 345.59L377.52 327.53L377.51 327.48L377.5 327.43L377.5 327.38L377.49 327.34L377.48 327.29L377.47 327.24L377.46 327.19L377.45 327.15L377.44 327.1L377.44 327.05L377.43 327L377.42 326.96L377.41 326.91L377.4 326.86L377.39 326.81L377.38 326.77L377.36 326.72L377.35 326.67L377.34 326.62L377.33 326.58L377.32 326.53L377.31 326.48L377.3 326.44L377.28 326.39L377.27 326.34L377.26 326.3L377.25 326.25L377.23 326.2L377.22 326.16L377.21 326.11L377.19 326.06L377.18 326.02L377.17 325.97L377.15 325.92L377.14 325.88L377.12 325.83L377.11 325.78L377.09 325.74L377.08 325.69L377.06 325.65L353.9 256.8L362.59 285.6L362.77 286.22Z" id="e53uIDC5v"></path><path d="M356.22 271.68C356.93 273.72 358.67 277.08 358.67 279.6C358.67 282.65 361.13 286.34 362.04 290.87C363.41 297.67 364.79 294.43 362.04 294.43C357.47 294.43 349.76 281.23 349.76 273.6C349.76 265.96 347.47 258.77 352.04 258.77C355.11 258.77 354.79 267.55 356.22 271.68Z" id="e1LQHuDFTG"></path><path d="M334.27 460.55C334.27 468.82 357.54 538.89 356.23 566.56C355.78 576.03 343.64 575.49 341.82 575.49C341.23 575.49 331.05 580.27 327.39 587.88C325.22 592.4 335.01 601.52 334.27 605.77C333.14 612.29 322.17 612.76 321.89 609.88C321.63 607.14 313.72 594.64 316.08 584.88C318.08 576.56 330.14 570.64 332.58 569.99C334.9 569.38 342.62 570.12 344.13 566.56C345.49 563.38 347.59 570.86 347.74 564.68C348.06 551.55 344.8 521.98 343.63 515.29C340.66 498.28 333.45 477.58 327.39 463.24C323.75 454.64 319.61 448.33 319.61 446.47C319.61 435.37 311.97 443.35 319.12 443.35C326.27 443.35 334.27 449.45 334.27 460.55Z" id="b1rBr2Xryc"></path><path d="M276.28 189.19C275.3 180.99 274.69 175.87 274.45 173.82C273.61 166.85 272.05 159.99 269.77 153.35C269.15 151.55 267.61 147.03 265.13 139.8" id="a1u5NJlp63"></path><path d="M274.72 428.65C275.61 430.9 276.17 437.37 276.17 440.97C276.17 447.78 276.17 446.35 273.71 446.35C271.25 446.35 267.26 447.78 267.26 440.97C267.26 434.17 269.25 428.65 271.71 428.65C272.87 428.65 273.92 426.65 274.72 428.65Z" id="cnfTxvoRG"></path><path d="M310.76 222.71C322.82 220.76 341.21 232.3 344.13 242.77C347.02 253.12 343.72 250.02 335.11 264.8C328.88 275.51 322.58 303.18 322.58 315.69C322.58 324.52 316.78 347.72 316.61 362.8C316.45 377.88 307.83 408.73 290.15 401.65C288.79 401.11 290.48 431.39 286.86 431.09C286.64 431.07 287.68 445.13 288.37 462.29C288.92 476.05 292.14 493.81 292.48 510.52C292.81 526.91 290.88 536.61 291.48 548.99C291.78 555.24 292.45 561.58 292.48 565.51C292.52 570.25 285.34 569.35 280.76 570.18C277.31 570.8 268.21 572.8 267.26 570.18C266.89 569.18 271.75 569.95 276.17 568.18C279.57 566.81 282.79 562.93 282.69 561.79C282.01 553.39 286.9 529.97 286.86 533.43C286.75 542.16 286.08 500.75 285.36 500.77C283.84 500.79 277.28 427.81 276.17 427.76C261.38 427.04 244.31 425.56 238.51 413.86C235.7 408.2 242.26 399.6 247.73 389.64C253.53 379.07 258.36 367.29 258.45 367.16C259.64 365.66 267.21 342.65 270.71 320.23C274.21 297.81 275.62 284.66 278.28 270.3C279.65 262.93 281.5 254.98 284.37 248.8C291.23 234.03 299.54 224.8 305.95 224.8C306.86 224.8 308.55 223.06 310.76 222.71Z" id="bKvwLhbgB"></path><path d="M364.83 448.89C364.83 457.17 362.91 448.36 359.33 443.36C355.75 438.36 353.23 439.13 353.23 430.85C353.23 427.04 353.23 430.85 353.23 430.85C353.23 427.23 357.06 424.9 360.27 426.57C364.81 428.92 366.99 431.91 366.83 435.53C366.41 445.03 364.83 440.6 364.83 448.89Z" id="b565qYunpf"></path><path d="M298.2 248.8C295.06 256.36 293.1 261.08 292.32 262.97C284.69 281.33 281.83 301.32 283.99 321.08C284.25 323.46 284.32 325.4 284.2 326.89C283.82 331.54 276.29 380.13 276.28 380.25C274.44 404.32 276.51 392.02 276.35 415.67C276.24 431.43 276.24 444.81 276.35 455.8" id="f5Zd1y5oNs"></path><path d="M316.61 422.94C321.16 417.17 332.59 397.73 334 398.73C336.82 400.74 316.61 428.63 316.61 431.69C316.61 437.35 323.87 443.44 321.11 443.44C318.36 443.44 317.79 449.1 317.79 443.44C317.79 441.62 311.04 439.36 309.46 436.81C308.23 434.8 301.21 433.58 300.46 431.69C299.67 429.69 288.31 403.47 290.4 401.4C291.67 400.16 297.63 418.14 302.2 422.94C306.33 427.28 307.67 424.94 307.96 424.94C308.49 424.94 313.39 427.03 316.61 422.94Z" id="bnwpheUy"></path><path d="M307.96 426.48C309.5 430.3 310.46 432.69 310.84 433.65C313.28 439.71 316.21 445.56 319.61 451.14C319.61 451.14 319.61 451.14 319.61 451.14" id="f150ipmA4l"></path><path d="M354.55 257.8C365.61 291.79 372.53 313.04 375.3 321.54C379.45 334.3 381.57 347.63 381.57 361.05C381.57 363.39 381.57 359.57 381.57 364.27C381.57 369.89 380.65 375.48 378.84 380.81C377.89 383.62 379.38 379.2 378.84 380.81C375.76 389.89 369.57 397.58 361.37 402.54C358.82 404.08 363.91 401.01 361.37 402.54C353.71 407.17 349.77 416.09 351.5 424.87C352.11 427.94 351.89 426.83 352.71 430.98C353.92 437.06 356.63 442.74 360.61 447.49C361.83 448.96 357.07 443.27 357.7 444.02C363.66 451.14 367.96 459.49 370.29 468.47C370.48 469.18 370.94 470.96 371.68 473.8" id="c3POywthzG"></path><path d="M323.21 612.01C320.8 608.99 319.29 607.1 318.69 606.35C314.77 601.46 313.09 595.15 314.05 588.96C314.52 585.96 314.14 588.37 314.54 585.79C315.68 578.44 320.51 572.18 327.34 569.21C328.23 568.82 330.45 567.85 334 566.31" id="a4gu0CnMVJ"></path><path d="M355.97 56.08C357.58 57.85 361.14 62.63 366.62 70.42C371.7 77.64 375.31 85.78 377.24 94.39C377.93 97.48 378.27 99.94 378.27 101.77C378.27 106.53 381.79 124.53 379.78 134.27C379.6 135.14 382.72 137.28 384.01 138.54C384.81 139.33 388.92 149.79 388.89 152.43C388.85 155.07 389.21 159.92 387.07 164.94C385.29 169.1 382.01 177.04 378.49 180.65C375.77 183.44 370.68 189.02 367.2 190.25C365.47 190.86 362.84 190.24 361.85 188.57C361.07 187.25 361.95 185.56 360.72 185.75C359.79 185.89 359.5 188.16 358.73 189.19C357.09 191.37 356.09 193.29 354.99 194.92C350.96 200.85 350.53 200.07 338.94 208.88C327.35 217.69 307.7 217.61 303.77 216.7C299.84 215.79 279.21 206.18 276.15 189.69C275.85 188.04 271.71 185.84 269.07 181.4C265.65 175.62 263.5 167.17 262.72 162.73C262.07 159.08 261.77 149.36 262.72 143.9C263.54 139.16 265.64 140.7 265.19 140.2C263.02 137.79 263.72 133.59 263.93 127.14C264.15 120.69 263.83 114.03 265.19 101.77C266.93 86.11 270.86 78.71 277.63 67.43C284.4 56.14 298.99 43.46 317.43 42.78C323.23 42.56 327.02 42.47 328.77 42.51C336.94 42.68 344.78 45.77 350.87 51.22C353.26 53.36 354.96 54.98 355.97 56.08Z" id="a1tokKf71j"></path><path d="M354.99 153.45C354.99 157.93 348.61 159.22 344.18 161.71C341.16 163.41 337.41 167.09 333.36 167.09C323.35 167.09 315.23 160.98 315.23 153.45C315.23 145.91 323.35 139.8 333.36 139.8C343.37 139.8 354.99 145.91 354.99 153.45Z" id="bP2c0Gtf"></path><path d="M273.05 153.94C273.05 157.55 277.79 158.6 281.09 160.61C283.34 161.97 286.13 164.95 289.14 164.95C296.59 164.95 302.64 160.01 302.64 153.94C302.64 147.86 296.59 142.93 289.14 142.93C281.7 142.93 273.05 147.86 273.05 153.94Z" id="ac7xdIure"></path><path d="M369.36 139.51C370.17 138.76 370.67 138.29 370.87 138.1C372.17 136.88 373.72 135.97 375.42 135.43C375.72 135.34 374.81 135.63 375.3 135.47C376.36 135.13 377.46 134.96 378.58 134.96C378.77 134.96 379.27 134.96 380.06 134.96" id="d3SIzwG9oh"></path><path d="M380.06 154.47C380.06 157.06 379.33 158.85 378.23 160.64C377.06 162.54 375.46 164.36 373.88 164.36C372.57 164.36 371.06 165.68 370.11 164.36C368.83 162.59 368.91 160.46 368.91 157.39C368.91 152.04 371.41 147.7 374.49 147.7C377.56 147.7 380.06 149.12 380.06 154.47Z" id="a10a4ZStlS"></path><path d="M379.51 156.04C379.17 154 378.96 152.73 378.88 152.22C378.65 150.85 377.97 149.59 376.93 148.66C376.52 148.28 377.13 148.83 376.77 148.51C375.66 147.51 374 147.43 372.8 148.32C372.17 148.78 372.37 148.63 371.75 149.09C370.44 150.06 369.67 151.59 369.67 153.22C369.67 154.12 369.67 156.39 369.67 160.01L369.67 165.03L364.03 169.75" id="aWj4RAKVL"></path><path d="M369.68 77.6C370.57 79.96 371.04 81.13 372.83 84.21C376.71 90.91 377.48 99.12 376.91 103.03C376.35 106.93 380.85 127.75 378.85 132.76C377.76 135.51 380.29 132.87 378.51 134.14C378.13 134.41 377.4 133.7 375.9 134.14C374.79 134.46 374.08 134.31 373.19 134.96C372.42 135.53 369.81 138.33 368.43 138.67C366.74 139.08 356.93 149.88 354.99 150.09C350.96 150.53 347.91 144.36 346.45 144.36C338.28 144.36 344.06 146.08 344.06 123.4C344.06 118.64 356.83 99.81 357.06 95.39C357.54 86.08 356.76 78.21 355.38 70.94C354.3 65.24 346.47 51.85 349.31 51.85C353.27 51.85 367.03 70.55 369.68 77.6Z" id="bajxmS9Nw"></path><path d="M289.4 147.37C289.4 148.48 290.43 150.31 292.22 151.87C294.44 153.82 295.16 158.75 297.62 158.75C300.27 158.75 300.71 159.19 302.02 156.54C302.91 154.73 302.64 153.65 302.64 152.64C302.64 150.13 298.14 144.06 293.7 144.06C289.25 144.06 289.4 144.86 289.4 147.37Z" id="k6z4bcbk4S"></path><path d="M332.81 145.26C332.81 146.69 327.29 149.43 325.5 151.42C324.53 152.5 324.14 154.94 322.78 156.32C321.01 158.13 319.27 158.78 317.88 158.78C317.03 158.78 316.1 158.31 315.73 156.91C315.65 156.65 315.7 156.35 315.57 156.01C315.1 154.78 315.25 153.31 315.23 152.02C315.21 150.89 315.83 149.34 316.68 148.13C317.54 146.92 321.28 141.4 325.73 141.4C330.18 141.4 332.81 142.06 332.81 145.26Z" id="b66lvXlFzo"></path><path d="M378.49 116.07C378.49 118.35 378.49 123.9 378.49 132.7C377.06 133.1 375.79 133.45 374.67 133.74C371.57 134.55 369.66 137.24 368.93 137.24C367.53 137.24 365.29 129.78 366.92 121.42C367.78 117.02 372.88 112.36 372.88 108.42C372.88 96.99 369.65 83.29 371.79 83.29C373.92 83.29 378.49 104.64 378.49 116.07Z" id="h3R1SXtQUM"></path><path d="M291.49 564.68L279.24 564.68" id="a42bjc9MXp"></path><path d="M353.05 566.81L344.13 566.81" id="d1flzzrnkl"></path><path d="M299.57 61.14C292 69.24 288.37 84.75 286.8 89.62C282.61 102.62 265.9 102.25 267.52 95.59C269.13 88.93 268.9 91.75 270.65 85.12C272.4 78.5 278.59 64.93 289.4 55.46C292.18 53.01 295.44 50.81 298.47 49C309.18 42.63 324.49 44.11 332.76 44.11C334.05 44.11 312.17 47.64 299.57 61.14Z" id="c23Bm38iCS"></path><path d="M405.05 310.63C412.06 331.36 416.87 373.05 416.87 386.8C416.87 400.93 417.07 384.79 418.27 397.84C420.26 419.6 421.75 446.35 418.27 446.35C412.69 446.35 410.16 389.97 410.16 352.3C410.16 328.95 393.62 288.25 381.57 262.59C378.8 256.69 350.17 229.1 348.08 225.03C344.6 218.26 368.61 236.85 369.94 236.85C373.48 236.85 392.84 274.55 405.05 310.63Z" id="d2KR30QgDg"></path><path d="M381.57 519.73C385.06 533.33 391.86 557.44 391.86 562.35C391.86 566.1 393.38 568.24 395.36 579.18C396.03 582.88 395.36 585.56 395.36 587.81C395.35 591.05 395.75 593.42 395.36 596.7C395.19 598.15 394.05 603.98 391.86 606.98C390.17 609.3 387.43 608.92 386.72 609.84C383.57 613.97 357.54 611.76 354.78 611.76C350.68 611.76 365.45 610.13 377.33 604.77C383.06 602.18 387.16 600.21 386.72 592.63C385.61 573.54 375.33 523.31 375.33 518.35C375.33 511.5 371.16 489.43 366.33 475.16C363.37 466.41 358.64 455.8 362.83 455.8C368.96 455.8 377.21 502.78 381.57 519.73Z" id="b2PNd0dwG"></path><path d="M312.21 452.29C311.96 455.18 315.27 467.96 317.16 480.73C319.1 493.77 322.61 519.29 322.61 521.8C322.61 527.76 319.76 510.17 323.89 533.43C326.29 546.89 329.39 559.28 329.53 564.68C329.6 567.22 329.01 566.81 327.39 566.81C326.83 566.81 320.26 572.43 317.16 576.37C315.51 578.47 310.82 585.72 312.21 594.76C312.62 597.47 314.98 603.97 315.04 605.98C315.1 607.89 320.51 610.87 319.61 611.05C313.82 612.18 312.84 611.63 307.96 611.05C300.5 610.15 291.81 613.03 291.49 611.05C291.16 609.06 300.2 614.13 307.96 603.98C311.03 599.97 307.77 591.75 311.17 583.76C314.01 577.09 319.55 570.58 321.11 566.81C323.24 561.67 324.87 560.72 323.89 553.43C322.92 546.15 320.05 536.11 319.61 533.43C315.8 509.61 315.04 500.48 315.04 494.3C315.04 487.73 311.96 471.47 309.54 459.38C307.9 451.15 307.74 443.35 312.21 443.35C318.28 443.35 312.83 445.17 312.21 452.29Z" id="c4iFrTRk3j"></path><path d="M254.87 589.52C254.87 601.18 268.32 611.07 256.96 611.07C252.01 611.07 250.95 613.74 247.4 611.07C244.36 608.78 238.04 603.33 235.78 598.33C234.62 595.76 235.78 591.76 235.78 589.52C235.78 583.34 238.96 579.68 243.08 575.82C244.79 574.22 249.63 569.1 254.87 567.52C260.9 565.7 269.52 567.03 272.37 567.03C283.74 567.03 254.87 577.86 254.87 589.52Z" id="aljAcHv42"></path></defs><g><g><use xlink:href="#e53uIDC5v" opacity="1" fill="#e8bf72" fill-opacity="1"></use><g><use xlink:href="#e53uIDC5v" opacity="1" fill-opacity="0" stroke="#000000" stroke-width="3" stroke-opacity="1"></use></g></g><g><use xlink:href="#e1LQHuDFTG" opacity="1" fill="#d7a442" fill-opacity="1"></use></g><g><use xlink:href="#b1rBr2Xryc" opacity="1" fill="#eeca88" fill-opacity="1"></use></g><g><g><use xlink:href="#a1u5NJlp63" opacity="1" fill-opacity="0" stroke="#0a1216" stroke-width="3" stroke-opacity="1"></use></g></g><g><use xlink:href="#cnfTxvoRG" opacity="1" fill="#d7a442" fill-opacity="1"></use></g><g><use xlink:href="#bKvwLhbgB" opacity="1" fill="#eeca88" fill-opacity="1"></use></g><g><use xlink:href="#b565qYunpf" opacity="1" fill="#d7a442" fill-opacity="1"></use></g><g><g><use xlink:href="#f5Zd1y5oNs" opacity="1" fill-opacity="0" stroke="#000000" stroke-width="3" stroke-opacity="1"></use></g></g><g><use xlink:href="#bnwpheUy" opacity="1" fill="#d7a442" fill-opacity="1"></use></g><g><g><use xlink:href="#f150ipmA4l" opacity="1" fill-opacity="0" stroke="#000000" stroke-width="3" stroke-opacity="1"></use></g></g><g><g><use xlink:href="#c3POywthzG" opacity="1" fill-opacity="0" stroke="#000000" stroke-width="3" stroke-opacity="1"></use></g></g><g><g><use xlink:href="#a4gu0CnMVJ" opacity="1" fill-opacity="0" stroke="#000000" stroke-width="3" stroke-opacity="1"></use></g></g><g><use xlink:href="#a1tokKf71j" opacity="1" fill="#e8bf72" fill-opacity="1"></use><g><use xlink:href="#a1tokKf71j" opacity="1" fill-opacity="0" stroke="#171819" stroke-width="3" stroke-opacity="1"></use></g></g><g><use xlink:href="#bP2c0Gtf" opacity="1" fill="#e3b45b" fill-opacity="1"></use></g><g><use xlink:href="#ac7xdIure" opacity="1" fill="#e3b45b" fill-opacity="1"></use></g><g><g><use xlink:href="#d3SIzwG9oh" opacity="1" fill-opacity="0" stroke="#171819" stroke-width="3" stroke-opacity="1"></use></g></g><g><use xlink:href="#a10a4ZStlS" opacity="1" fill="#cb9a3e" fill-opacity="1"></use></g><g><g><use xlink:href="#aWj4RAKVL" opacity="1" fill-opacity="0" stroke="#171819" stroke-width="3" stroke-opacity="1"></use></g></g><g><use xlink:href="#bajxmS9Nw" opacity="1" fill="#e3b45b" fill-opacity="1"></use></g><g><use xlink:href="#k6z4bcbk4S" opacity="1" fill="#d7a442" fill-opacity="1"></use></g><g><use xlink:href="#b66lvXlFzo" opacity="1" fill="#d7a442" fill-opacity="1"></use></g><g><use xlink:href="#h3R1SXtQUM" opacity="1" fill="#ddab4d" fill-opacity="1"></use></g><g><g><use xlink:href="#a42bjc9MXp" opacity="1" fill-opacity="0" stroke="#000000" stroke-width="3" stroke-opacity="1"></use></g></g><g><g><use xlink:href="#d1flzzrnkl" opacity="1" fill-opacity="0" stroke="#000000" stroke-width="3" stroke-opacity="1"></use></g></g><g><use xlink:href="#c23Bm38iCS" opacity="1" fill="#eeca88" fill-opacity="1"></use></g><g><use xlink:href="#d2KR30QgDg" opacity="1" fill="#d7a442" fill-opacity="1"></use></g><g><use xlink:href="#b2PNd0dwG" opacity="1" fill="#d7a442" fill-opacity="1"></use></g><g><use xlink:href="#c4iFrTRk3j" opacity="1" fill="#d7a442" fill-opacity="1"></use></g><g><use xlink:href="#aljAcHv42" opacity="1" fill="#eeca88" fill-opacity="1"></use></g></g></svg>