<?xml version="1.0" encoding="UTF-8" standalone="no"?>
<!DOCTYPE svg PUBLIC "-//W3C//DTD SVG 1.1//EN" "http://www.w3.org/Graphics/SVG/1.1/DTD/svg11.dtd">
<svg version="1.1" xmlns="http://www.w3.org/2000/svg" xmlns:xlink="http://www.w3.org/1999/xlink" preserveAspectRatio="xMidYMid meet" viewBox="0 0 191 573" width="191" height="573"><defs><path d="M107.44 171.74L107.45 172.01L107.47 172.29L107.49 172.57L107.52 172.83L107.56 173.1L107.6 173.37L107.66 173.63L107.72 173.9L107.79 174.16L107.86 174.42L107.93 174.67L108.02 174.93L108.12 175.18L108.22 175.43L108.31 175.68L108.43 175.92L108.55 176.16L108.67 176.41L108.8 176.64L108.93 176.86L109.07 177.1L109.22 177.32L109.37 177.54L109.53 177.76L109.69 177.97L109.87 178.17L110.04 178.38L110.22 178.58L110.4 178.78L110.6 178.96L110.79 179.15L111 179.33L111.2 179.51L111.41 179.68L111.63 179.85L111.85 180.01L112.07 180.17L112.31 180.31L112.54 180.46L113.5 181.03L114.45 181.6L115.37 182.15L116.27 182.69L117.16 183.21L118.01 183.73L118.86 184.23L119.68 184.73L120.47 185.2L121.25 185.67L122 186.13L122.74 186.56L123.45 186.99L124.14 187.41L124.81 187.82L125.46 188.22L126.09 188.6L126.7 188.97L127.29 189.33L127.85 189.67L128.4 190.01L128.92 190.33L129.43 190.63L129.9 190.93L130.37 191.21L130.81 191.48L131.23 191.75L131.62 191.99L132 192.23L132.35 192.46L132.69 192.67L133.01 192.86L133.3 193.05L133.57 193.23L133.82 193.39L134.06 193.54L134.26 193.68L134.45 193.81L134.62 193.92L134.76 194.03L134.88 194.12L135.02 194.25L135.19 194.42L135.4 194.63L135.62 194.89L135.88 195.18L136.15 195.52L136.47 195.89L136.79 196.3L137.15 196.75L137.52 197.25L137.91 197.78L138.33 198.36L138.78 198.97L139.24 199.62L139.71 200.31L140.21 201.05L140.72 201.83L141.26 202.63L141.81 203.49L142.38 204.38L142.96 205.33L143.55 206.3L144.16 207.31L144.78 208.37L145.42 209.46L146.06 210.6L146.72 211.77L147.38 212.99L148.06 214.24L148.75 215.54L149.44 216.88L150.14 218.26L150.85 219.68L151.57 221.12L152.29 222.62L153.01 224.16L153.74 225.74L154.47 227.36L155.21 229.01L155.57 229.84L155.94 230.68L156.31 231.54L156.68 232.39L157.06 233.27L157.44 234.14L157.81 235.04L158.2 235.93L158.58 236.84L158.97 237.76L159.37 238.69L159.76 239.62L160.16 240.58L160.57 241.53L160.96 242.5L161.37 243.47L161.78 244.47L162.2 245.46L162.61 246.47L163.03 247.48L163.45 248.51L163.87 249.54L164.3 250.59L164.73 251.64L165.16 252.71L165.6 253.79L166.04 254.87L166.48 255.97L166.92 257.07L167.37 258.18L167.82 259.3L168.27 260.44L168.72 261.58L169.18 262.73L169.65 263.89L170.1 265.07L170.57 266.24L171.05 267.44L171.51 268.63L171.99 269.85L177.47 293.61L181.24 327.7L185.02 388.49L185.08 393.01L185.08 393.43L185.08 393.85L185.07 394.27L185.06 394.68L185.04 395.1L185.03 395.52L185 395.94L184.97 396.36L184.93 396.76L184.89 397.18L184.85 397.6L184.79 398.01L184.74 398.43L184.68 398.83L184.62 399.25L184.54 399.66L184.47 400.07L184.38 400.48L184.31 400.89L184.22 401.29L184.12 401.7L184.02 402.1L183.92 402.51L183.81 402.91L183.69 403.31L183.58 403.71L183.45 404.11L183.32 404.5L183.2 404.9L183.06 405.3L182.92 405.69L182.77 406.08L182.62 406.47L182.47 406.85L182.3 407.24L182.14 407.62L181.97 408.01L181.8 408.39L181.61 408.77L181.44 409.15L177.61 416.9L177.42 417.28L177.22 417.65L177.01 418.01L176.8 418.37L176.58 418.72L176.35 419.07L176.11 419.41L175.87 419.75L175.61 420.08L175.36 420.4L175.09 420.72L174.82 421.03L174.55 421.33L174.25 421.62L173.96 421.91L173.66 422.21L173.36 422.48L173.05 422.75L172.74 423.01L172.42 423.26L172.09 423.52L171.76 423.76L171.41 423.99L171.06 424.22L170.72 424.43L170.37 424.65L170.01 424.85L169.65 425.04L169.28 425.23L168.9 425.4L168.53 425.58L168.14 425.73L167.76 425.89L167.36 426.04L166.97 426.17L166.57 426.3L166.18 426.41L165.77 426.53L165.39 426.62L165.04 426.69L164.49 426.79L163.95 426.88L163.4 426.97L162.86 427.06L162.31 427.13L161.76 427.2L161.21 427.27L160.66 427.33L160.12 427.39L159.56 427.44L159.01 427.47L158.47 427.51L157.91 427.55L157.36 427.57L156.81 427.59L156.26 427.61L155.7 427.62L155.16 427.62L154.61 427.62L154.05 427.62L153.51 427.6L152.95 427.58L152.4 427.56L151.85 427.53L151.3 427.49L150.75 427.45L150.2 427.41L149.65 427.36L149.1 427.3L148.55 427.23L148.01 427.16L147.46 427.09L146.91 427.01L146.36 426.92L145.82 426.83L145.27 426.73L144.73 426.63L144.18 426.52L136.26 424.89L156.38 502.56L156.58 503.37L156.78 504.18L156.98 504.99L157.17 505.8L157.36 506.62L157.53 507.43L157.72 508.25L157.88 509.07L158.05 509.88L158.21 510.7L158.37 511.52L158.51 512.34L158.66 513.16L158.8 513.99L158.93 514.8L159.06 515.63L159.19 516.46L159.3 517.28L159.42 518.11L159.53 518.93L159.62 519.76L159.72 520.59L159.82 521.41L159.9 522.25L159.98 523.08L160.06 523.9L160.13 524.74L160.2 525.56L160.25 526.4L160.31 527.24L160.36 528.06L160.41 528.9L160.45 529.74L160.49 530.56L160.52 531.4L160.54 532.23L160.56 533.07L160.57 533.91L160.58 534.74L160.58 535.58L160.58 544.84L160.58 545.06L160.58 545.26L160.58 545.47L160.57 545.68L160.56 545.89L160.56 546.11L160.55 546.31L160.54 546.52L160.52 546.73L160.51 546.94L160.49 547.15L160.48 547.36L160.46 547.56L160.44 547.77L160.42 547.98L160.4 548.19L160.37 548.4L160.35 548.6L160.32 548.81L160.29 549.02L160.26 549.23L160.24 549.43L160.21 549.64L160.17 549.85L160.14 550.05L160.1 550.26L160.06 550.46L160.02 550.68L159.98 550.88L159.93 551.08L159.89 551.29L159.85 551.49L159.81 551.7L159.76 551.9L159.71 552.1L159.66 552.31L159.6 552.51L159.56 552.67L159.51 552.86L159.37 553.26L159.23 553.65L159.07 554.03L158.9 554.4L158.73 554.77L158.53 555.13L158.33 555.48L158.12 555.83L157.9 556.16L157.67 556.49L157.43 556.81L157.17 557.12L156.91 557.42L156.64 557.71L156.36 558.01L156.06 558.28L155.76 558.54L155.46 558.79L155.15 559.05L154.83 559.28L154.5 559.5L154.16 559.72L153.82 559.92L153.47 560.12L153.12 560.3L152.75 560.47L152.38 560.63L152.01 560.78L151.63 560.91L151.25 561.04L150.86 561.15L150.47 561.25L150.07 561.34L149.67 561.41L149.26 561.47L148.85 561.51L148.44 561.55L148.02 561.57L147.61 561.58L12.84 561.58L10.41 558.87L10.2 558.64L10 558.4L9.79 558.17L9.59 557.95L9.39 557.71L9.18 557.48L8.99 557.25L8.78 557.01L8.59 556.77L8.39 556.54L8.2 556.3L8 556.06L7.8 555.83L7.61 555.58L7.42 555.35L7.23 555.11L7.03 554.87L6.85 554.62L6.65 554.38L6.47 554.14L6.27 553.89L6.09 553.65L5.91 553.41L5.72 553.16L5.54 552.91L5.35 552.67L5.17 552.42L4.99 552.17L4.81 551.92L4.63 551.68L4.45 551.42L4.27 551.17L4.1 550.93L3.84 550.48L3.6 550.03L3.38 549.59L3.16 549.13L2.96 548.66L2.77 548.21L2.59 547.73L2.43 547.26L2.28 546.79L2.14 546.3L2.02 545.82L1.9 545.34L1.8 544.85L1.72 544.37L1.64 543.87L1.58 543.38L1.53 542.89L1.49 542.39L1.47 541.9L1.46 541.4L1.46 540.91L1.47 540.41L1.5 539.91L1.55 539.42L1.6 538.92L1.67 538.44L1.74 537.94L1.84 537.44L1.95 536.96L2.07 536.47L2.2 535.99L2.35 535.51L2.5 535.03L2.68 534.56L2.86 534.08L3.06 533.61L3.27 533.15L3.49 532.69L4.12 531.46L4.22 531.24L4.34 531.03L4.45 530.81L4.55 530.6L4.67 530.39L4.79 530.17L4.89 529.96L5.01 529.75L5.13 529.54L5.24 529.33L5.36 529.12L5.49 528.91L5.6 528.7L5.72 528.49L5.85 528.29L5.97 528.08L6.09 527.87L6.22 527.66L6.34 527.46L6.47 527.26L6.6 527.05L6.72 526.85L6.85 526.64L6.98 526.44L7.11 526.25L7.25 526.04L7.37 525.84L7.51 525.64L7.65 525.44L7.78 525.23L7.92 525.04L8.05 524.85L8.19 524.64L8.33 524.45L8.47 524.25L8.61 524.06L8.75 523.86L8.89 523.67L9.04 523.47L9.18 523.28L9.99 522.19L10.26 521.84L10.54 521.49L10.82 521.15L11.12 520.82L11.42 520.5L11.72 520.18L12.04 519.88L12.35 519.58L12.68 519.28L13.01 519L13.35 518.72L13.69 518.46L14.04 518.2L14.4 517.94L14.76 517.7L15.13 517.47L15.5 517.24L15.88 517.03L16.26 516.82L16.64 516.62L17.04 516.44L17.43 516.25L17.82 516.08L18.23 515.92L18.63 515.77L19.05 515.62L19.46 515.48L19.88 515.36L20.29 515.24L20.72 515.13L21.15 515.04L21.58 514.96L22 514.88L22.44 514.81L22.88 514.75L23.32 514.71L23.75 514.68L24.19 514.65L24.64 514.63L25.09 514.63L47.44 514.63L47.44 513.73L47.44 513.05L47.45 512.37L47.46 511.69L47.47 511.01L47.49 510.32L47.51 509.64L47.55 508.96L47.58 508.28L47.62 507.6L47.67 506.92L47.72 506.24L47.78 505.57L47.83 504.89L47.89 504.21L47.96 503.53L48.04 502.86L48.12 502.17L48.19 501.49L48.28 500.82L48.38 500.15L48.48 499.47L48.57 498.8L48.68 498.13L48.79 497.46L48.9 496.78L49.02 496.11L49.15 495.45L49.27 494.78L49.41 494.11L49.55 493.43L49.69 492.77L49.84 492.1L49.99 491.44L50.15 490.78L50.3 490.12L50.47 489.46L50.64 488.8L50.82 488.14L50.99 487.48L51.18 486.81L51.58 485.42L50.13 454.16L48.96 447.38L46.57 429.44L44.63 409.24L35.1 409.24L34.15 409.22L33.2 409.17L32.26 409.08L31.33 408.96L30.41 408.81L29.5 408.62L28.61 408.41L27.72 408.16L26.85 407.89L25.98 407.57L25.13 407.23L24.3 406.87L23.48 406.48L22.68 406.06L21.9 405.6L21.13 405.12L20.38 404.63L19.65 404.09L18.94 403.55L18.24 402.97L17.57 402.36L16.92 401.74L16.3 401.1L15.69 400.43L15.1 399.74L14.55 399.03L14.01 398.3L13.5 397.55L13.01 396.77L12.56 395.99L12.13 395.18L11.72 394.36L11.35 393.52L11 392.66L10.69 391.79L10.41 390.9L10.14 390L9.93 389.08L9.74 388.15L9.58 387.21L9.56 387.1L9.54 386.99L9.53 386.89L9.51 386.79L9.5 386.68L9.48 386.59L9.47 386.5L9.45 386.4L9.44 386.31L9.42 386.23L9.42 386.14L9.4 386.06L9.39 385.98L9.37 385.9L9.36 385.83L9.35 385.75L9.33 385.68L9.32 385.61L9.31 385.55L9.29 385.49L9.28 385.43L9.27 385.37L9.26 385.31L9.24 385.26L9.23 385.2L9.22 385.16L9.21 385.12L9.2 385.07L9.19 385.03L9.18 384.99L9.16 384.95L9.15 384.92L9.14 384.89L9.13 384.86L9.12 384.84L9.11 384.82L9.11 384.8L9.1 384.78L9.09 384.76L9.08 384.74L8.51 383.84L7.97 382.93L7.46 382.01L6.98 381.07L6.54 380.12L6.12 379.17L5.74 378.2L5.39 377.22L5.07 376.24L4.78 375.25L4.53 374.26L4.29 373.26L4.11 372.25L3.94 371.24L3.81 370.22L3.71 369.21L3.64 368.19L3.6 367.17L3.6 366.15L3.62 365.13L3.68 364.12L3.77 363.1L3.88 362.09L4.04 361.08L4.21 360.07L4.43 359.07L4.67 358.08L4.94 357.09L5.24 356.11L5.58 355.14L5.95 354.17L6.34 353.22L6.77 352.28L7.24 351.34L7.72 350.42L8.25 349.52L8.79 348.62L9.38 347.74L9.99 346.87L10.63 346.03L11.16 345.36L11.62 344.75L12.09 344.14L12.55 343.53L13 342.91L13.45 342.28L13.9 341.65L14.33 341.02L14.76 340.39L15.19 339.76L15.62 339.11L16.04 338.46L16.44 337.82L16.84 337.17L17.25 336.51L17.64 335.86L18.03 335.2L18.41 334.53L18.79 333.86L19.16 333.18L19.53 332.51L19.89 331.83L20.24 331.15L20.59 330.47L20.93 329.79L21.27 329.1L21.6 328.4L21.92 327.71L22.24 327.01L22.55 326.31L22.85 325.61L23.15 324.9L23.45 324.19L23.73 323.48L24.02 322.76L24.3 322.05L24.56 321.33L24.83 320.61L25.09 319.89L25.34 319.16L25.58 318.43L29.35 307.1L29.54 306.53L29.73 305.95L29.92 305.36L30.1 304.78L30.29 304.2L30.46 303.6L30.64 303.02L30.81 302.44L30.99 301.84L31.15 301.26L31.32 300.67L31.48 300.08L31.65 299.49L31.8 298.9L31.96 298.3L32.11 297.71L32.27 297.12L32.42 296.52L32.56 295.93L32.71 295.34L32.84 294.75L32.99 294.14L33.12 293.55L33.25 292.96L33.39 292.35L33.51 291.76L33.64 291.16L33.76 290.56L33.88 289.96L34 289.36L34.12 288.76L34.22 288.15L34.34 287.55L34.45 286.95L34.55 286.35L34.65 285.74L34.75 285.14L34.85 284.54L34.94 283.94L35.03 283.32L39.01 256.68L43.37 228.39L43.52 227.48L43.65 226.6L43.8 225.74L43.94 224.9L44.07 224.08L44.2 223.28L44.33 222.5L44.46 221.75L44.59 221.01L44.71 220.29L44.83 219.59L44.96 218.91L45.07 218.26L45.19 217.62L45.31 217L45.41 216.4L45.52 215.83L45.63 215.27L45.73 214.74L45.84 214.22L45.94 213.73L46.04 213.25L46.13 212.8L46.23 212.37L46.32 211.96L46.41 211.56L46.49 211.19L46.58 210.84L46.67 210.5L46.75 210.19L46.82 209.91L46.9 209.63L46.97 209.38L47.05 209.15L47.12 208.94L47.18 208.75L47.25 208.58L47.31 208.44L47.38 208.31L47.44 208.19L47.84 207.51L48.26 206.81L48.69 206.09L49.14 205.34L49.59 204.58L50.07 203.8L50.56 203.01L51.05 202.22L51.57 201.4L52.09 200.58L52.63 199.77L53.17 198.94L53.73 198.11L54.3 197.29L54.88 196.46L55.48 195.64L56.08 194.83L56.69 194.02L57.31 193.23L57.95 192.45L58.6 191.68L59.25 190.93L59.91 190.19L60.59 189.48L61.27 188.79L61.96 188.12L62.66 187.48L63.37 186.87L64.09 186.28L64.82 185.73L65.56 185.2L66.3 184.73L67.05 184.28L67.81 183.87L68.58 183.5L69.35 183.18L70.14 182.9L70.92 182.68L71.72 182.49L72.52 182.36L76.48 182.36L72.52 155.02L107.43 159.83L107.43 171.47L107.44 171.74ZM159.55 552.71L159.56 552.67L159.62 552.46L159.44 553.12L159.5 552.91L159.55 552.71ZM3.4 549.91L3.56 550.16L3.74 550.41L3.91 550.67L4.1 550.92L4.1 550.93L4.36 551.36L4.64 551.79L2.88 549.14L3.05 549.4L3.22 549.65L3.4 549.91ZM81.22 398.75L81.1 398.88L81 399.06L80.93 399.26L80.85 399.51L80.79 399.8L80.74 400.13L80.7 400.49L80.64 401.25L80.59 401.96L80.54 402.62L80.5 403.25L80.47 403.84L80.45 404.4L80.43 404.95L80.43 405.46L80.43 405.96L80.44 406.44L80.46 406.9L80.49 407.37L80.52 407.83L80.56 408.27L80.61 408.74L80.66 409.21L80.73 409.68L80.8 410.17L80.89 410.69L80.98 411.21L81.07 411.76L81.17 412.36L81.29 412.98L81.4 413.63L81.53 414.33L81.67 415.07L81.81 415.86L81.96 416.7L82.12 417.6L82.29 418.55L82.46 419.57L82.64 420.66L82.83 421.82L83.03 423.05L83.23 424.35L83.44 425.74L83.66 427.22L83.88 428.79L84.13 430.45L84.36 432.21L84.39 432.41L84.44 432.7L84.49 433.07L84.56 433.51L84.64 434.02L84.74 434.58L84.83 435.21L84.95 435.89L85.07 436.63L85.19 437.41L85.33 438.24L85.48 439.09L85.62 440L85.78 440.92L85.93 441.87L86.1 442.84L86.25 443.84L86.42 444.84L86.59 445.86L86.76 446.88L86.92 447.89L87.1 448.91L87.27 449.92L87.42 450.91L87.59 451.89L87.74 452.86L87.9 453.79L88.04 454.69L88.19 455.57L88.32 456.41L88.45 457.2L88.57 457.95L88.67 458.66L88.78 459.3L88.87 459.9L88.96 460.42L89.02 460.88L89.07 461.28L89.12 461.59L89.15 461.82L89.33 463.36L89.5 464.88L89.68 466.4L89.86 467.91L90.05 469.4L90.24 470.89L90.42 472.38L90.62 473.86L90.82 475.31L91.02 476.77L91.22 478.23L91.44 479.67L91.64 481.1L91.85 482.53L92.07 483.95L92.29 485.36L92.51 486.76L92.73 488.15L92.96 489.53L93.2 490.91L93.43 492.28L93.66 493.64L93.9 494.99L94.14 496.33L94.39 497.66L94.63 499L94.89 500.31L95.14 501.62L95.39 502.92L95.65 504.22L95.92 505.51L96.19 506.78L96.45 508.06L96.72 509.31L97 510.56L97.28 511.81L97.56 513.05L97.84 514.28L98.13 515.5L98.42 516.71L110.68 516.71L110.68 498.22L110.67 497.54L110.67 496.86L110.66 496.18L110.65 495.5L110.63 494.82L110.61 494.13L110.58 493.45L110.54 492.77L110.51 492.1L110.47 491.42L110.42 490.74L110.37 490.06L110.32 489.38L110.26 488.71L110.2 488.03L110.13 487.36L110.06 486.68L109.98 486.01L109.91 485.33L109.83 484.66L109.74 483.98L109.64 483.31L109.56 482.63L109.45 481.96L109.35 481.29L109.24 480.62L109.13 479.95L109.01 479.28L108.89 478.61L108.77 477.94L108.63 477.28L108.5 476.61L108.36 475.95L108.22 475.28L108.08 474.61L107.92 473.95L107.77 473.28L107.61 472.62L107.45 471.96L107.28 471.31L97.34 432.55L97.23 432.12L97.11 431.68L97 431.26L96.88 430.82L96.76 430.39L96.64 429.95L96.51 429.53L96.39 429.1L96.27 428.67L96.13 428.24L96 427.81L95.87 427.39L95.74 426.96L95.61 426.53L95.47 426.1L95.32 425.68L95.19 425.26L95.04 424.83L94.9 424.4L94.75 423.98L94.6 423.56L94.46 423.14L94.3 422.72L94.15 422.29L94 421.87L93.84 421.46L93.68 421.04L93.53 420.62L93.36 420.2L93.2 419.78L93.03 419.37L92.86 418.96L92.7 418.54L92.52 418.12L92.35 417.71L92.18 417.31L92 416.89L91.82 416.48L91.65 416.07L91.46 415.66L90.97 414.53L90.47 413.46L90 412.41L89.54 411.4L89.08 410.43L88.65 409.5L88.22 408.6L87.8 407.76L87.39 406.93L86.99 406.15L86.61 405.42L86.24 404.72L85.88 404.05L85.54 403.42L85.2 402.84L84.88 402.29L84.57 401.77L84.27 401.29L83.99 400.87L83.72 400.47L83.45 400.11L83.2 399.78L82.96 399.5L82.73 399.25L82.51 399.04L82.31 398.87L82.12 398.74L81.94 398.65L81.77 398.59L81.62 398.57L81.47 398.59L81.34 398.65L81.22 398.75ZM165.39 426.62L165.58 426.58L166.13 426.47L164.95 426.72L165.36 426.63L165.39 426.62ZM127.84 244.49L128.01 245.09L128.16 245.69L128.31 246.28L128.46 246.9L128.59 247.5L128.72 248.1L128.84 248.71L128.96 249.32L129.08 249.93L129.17 250.54L129.27 251.14L129.37 251.76L129.45 252.37L129.52 252.99L129.59 253.6L129.66 254.22L129.72 254.83L129.77 255.45L129.82 256.06L129.86 256.69L129.88 257.3L129.9 257.92L129.92 258.53L129.93 259.16L129.94 259.78L129.93 260.39L129.93 261.01L129.91 261.63L129.89 262.25L129.87 262.87L129.83 263.49L129.79 264.1L129.74 264.73L129.68 265.35L129.61 265.96L129.54 266.58L129.47 267.19L129.39 267.82L129.35 268.04L129.32 268.27L129.29 268.51L129.25 268.75L129.22 268.98L129.18 269.23L129.15 269.47L129.11 269.71L129.08 269.97L129.04 270.22L129 270.47L128.96 270.72L128.92 270.98L128.88 271.24L128.83 271.49L128.8 271.75L128.76 272.03L128.71 272.29L128.67 272.56L128.62 272.83L128.58 273.11L128.53 273.38L128.49 273.66L128.45 273.94L128.4 274.22L128.35 274.51L128.3 274.79L128.25 275.08L128.2 275.37L128.15 275.66L128.11 275.95L128.06 276.26L128 276.55L127.95 276.85L127.89 277.16L127.84 277.46L127.78 277.77L127.74 278.07L127.68 278.38L127.62 278.71L127.44 279.7L127.28 280.65L127.11 281.56L126.97 282.44L126.82 283.27L126.69 284.08L126.55 284.85L126.42 285.59L126.31 286.3L126.19 286.98L126.09 287.63L125.99 288.25L125.89 288.84L125.8 289.42L125.71 289.96L125.64 290.49L125.56 290.99L125.49 291.48L125.42 291.94L125.36 292.38L125.31 292.82L125.25 293.23L125.19 293.64L125.14 294.03L125.09 294.4L125.05 294.77L125 295.12L124.97 295.47L124.93 295.82L124.89 296.16L124.86 296.5L124.82 296.83L124.79 297.16L124.75 297.49L124.72 297.82L124.68 298.15L124.65 298.49L124.63 298.83L124.59 299.17L124.56 299.53L124.47 300.38L124.4 301.2L124.33 301.99L124.28 302.74L124.23 303.47L124.18 304.15L124.14 304.81L124.11 305.44L124.08 306.04L124.06 306.62L124.04 307.17L124.03 307.69L124.02 308.2L124.02 308.69L124.02 309.15L124.03 309.6L124.04 310.02L124.05 310.44L124.07 310.83L124.08 311.2L124.1 311.57L124.13 311.93L124.15 312.27L124.18 312.61L124.21 312.93L124.23 313.26L124.26 313.58L124.28 313.88L124.31 314.19L124.34 314.49L124.37 314.79L124.4 315.1L124.42 315.4L124.45 315.72L124.47 316.03L124.49 316.34L124.51 316.66L124.53 316.99L124.55 317.33L124.56 317.68L124.57 318.09L124.59 318.49L124.62 318.89L124.64 319.28L124.68 319.68L124.72 320.08L124.77 320.47L124.82 320.87L124.88 321.27L124.95 321.66L125 322.06L125.07 322.47L125.15 322.88L125.23 323.29L125.31 323.71L125.38 324.13L125.47 324.56L125.56 325.01L125.65 325.46L125.74 325.91L125.83 326.38L125.93 326.86L126.03 327.35L126.12 327.86L126.22 328.37L126.32 328.9L126.41 329.44L126.51 330L126.62 330.57L126.72 331.16L126.81 331.78L126.91 332.4L127.01 333.05L127.09 333.71L127.19 334.39L127.28 335.1L127.37 335.83L127.45 336.58L127.54 337.35L127.62 338.14L127.68 338.72L127.74 339.29L127.78 339.84L127.83 340.4L127.87 340.94L127.92 341.48L127.96 342L128 342.53L128.03 343.03L128.07 343.54L128.1 344.03L128.12 344.52L128.14 345.01L128.16 345.48L128.18 345.94L128.2 346.4L128.21 346.85L128.22 347.29L128.23 347.73L128.24 348.15L128.24 348.56L128.24 348.98L128.24 349.38L128.23 349.78L128.22 350.16L128.21 350.54L128.2 350.91L128.18 351.28L128.16 351.63L128.14 351.98L128.12 352.32L128.1 352.65L128.07 352.97L128.04 353.29L128 353.6L127.96 353.89L127.92 354.19L127.88 354.48L127.83 354.75L127.79 355.02L127.78 355.07L127.77 355.11L127.77 355.16L127.76 355.19L127.75 355.24L127.74 355.28L127.73 355.33L127.71 355.38L127.7 355.42L127.69 355.47L127.68 355.51L127.66 355.55L127.65 355.59L127.64 355.63L127.62 355.68L127.61 355.72L127.59 355.77L127.58 355.81L127.56 355.85L127.54 355.89L127.53 355.93L127.51 355.98L127.49 356.02L127.47 356.06L127.45 356.1L127.44 356.15L127.42 356.19L127.41 356.22L127.39 356.26L127.37 356.31L127.35 356.35L127.32 356.39L127.3 356.43L127.28 356.47L127.26 356.51L127.24 356.55L127.21 356.59L127.19 356.63L127.17 356.67L127.14 356.71L126.17 358.3L138.68 346.36L142.83 339.13L145.27 329.92L145.66 318.26L145.67 317.84L145.69 317.43L145.69 317.01L145.7 316.59L145.71 316.17L145.71 315.75L145.71 315.34L145.71 314.92L145.71 314.5L145.7 314.08L145.7 313.66L145.69 313.25L145.68 312.83L145.67 312.41L145.65 311.99L145.64 311.57L145.62 311.17L145.6 310.75L145.58 310.33L145.56 309.91L145.53 309.49L145.51 309.08L145.48 308.66L145.44 308.24L145.41 307.83L145.37 307.41L145.33 306.99L145.29 306.58L145.25 306.16L145.22 305.75L145.17 305.33L145.12 304.91L145.07 304.51L145.02 304.09L144.97 303.67L144.91 303.26L144.86 302.84L144.8 302.44L144.74 302.02L144.68 301.61L142.01 284.05L142 284L141.99 283.95L141.99 283.91L141.98 283.87L141.97 283.82L141.96 283.77L141.95 283.72L141.94 283.68L141.93 283.63L141.93 283.59L141.92 283.54L141.91 283.5L141.9 283.45L141.89 283.4L141.88 283.35L141.87 283.31L141.85 283.26L141.84 283.22L141.83 283.17L141.82 283.13L141.81 283.08L141.8 283.03L141.79 282.99L141.77 282.94L141.76 282.9L141.75 282.86L141.74 282.81L141.73 282.76L141.72 282.72L141.71 282.67L141.69 282.62L141.68 282.58L141.67 282.54L141.65 282.49L141.64 282.45L141.62 282.4L141.61 282.35L141.59 282.31L141.58 282.26L141.56 282.22L119.04 215.29L127.49 243.29L127.67 243.89L127.84 244.49Z" id="giGGqmaA1"></path><path d="M107.44 171.74L107.45 172.01L107.47 172.29L107.49 172.57L107.52 172.83L107.56 173.1L107.6 173.37L107.66 173.63L107.72 173.9L107.79 174.16L107.86 174.42L107.93 174.67L108.02 174.93L108.12 175.18L108.22 175.43L108.31 175.68L108.43 175.92L108.55 176.16L108.67 176.41L108.8 176.64L108.93 176.86L109.07 177.1L109.22 177.32L109.37 177.54L109.53 177.76L109.69 177.97L109.87 178.17L110.04 178.38L110.22 178.58L110.4 178.78L110.6 178.96L110.79 179.15L111 179.33L111.2 179.51L111.41 179.68L111.63 179.85L111.85 180.01L112.07 180.17L112.31 180.31L112.54 180.46L113.5 181.03L114.45 181.6L115.37 182.15L116.27 182.69L117.16 183.21L118.01 183.73L118.86 184.23L119.68 184.73L120.47 185.2L121.25 185.67L122 186.13L122.74 186.56L123.45 186.99L124.14 187.41L124.81 187.82L125.46 188.22L126.09 188.6L126.7 188.97L127.29 189.33L127.85 189.67L128.4 190.01L128.92 190.33L129.43 190.63L129.9 190.93L130.37 191.21L130.81 191.48L131.23 191.75L131.62 191.99L132 192.23L132.35 192.46L132.69 192.67L133.01 192.86L133.3 193.05L133.57 193.23L133.82 193.39L134.06 193.54L134.26 193.68L134.45 193.81L134.62 193.92L134.76 194.03L134.88 194.12L135.02 194.25L135.19 194.42L135.4 194.63L135.62 194.89L135.88 195.18L136.15 195.52L136.47 195.89L136.79 196.3L137.15 196.75L137.52 197.25L137.91 197.78L138.33 198.36L138.78 198.97L139.24 199.62L139.71 200.31L140.21 201.05L140.72 201.83L141.26 202.63L141.81 203.49L142.38 204.38L142.96 205.33L143.55 206.3L144.16 207.31L144.78 208.37L145.42 209.46L146.06 210.6L146.72 211.77L147.38 212.99L148.06 214.24L148.75 215.54L149.44 216.88L150.14 218.26L150.85 219.68L151.57 221.12L152.29 222.62L153.01 224.16L153.74 225.74L154.47 227.36L155.21 229.01L155.57 229.84L155.94 230.68L156.31 231.54L156.68 232.39L157.06 233.27L157.44 234.14L157.81 235.04L158.2 235.93L158.58 236.84L158.97 237.76L159.37 238.69L159.76 239.62L160.16 240.58L160.57 241.53L160.96 242.5L161.37 243.47L161.78 244.47L162.2 245.46L162.61 246.47L163.03 247.48L163.45 248.51L163.87 249.54L164.3 250.59L164.73 251.64L165.16 252.71L165.6 253.79L166.04 254.87L166.48 255.97L166.92 257.07L167.37 258.18L167.82 259.3L168.27 260.44L168.72 261.58L169.18 262.73L169.65 263.89L170.1 265.07L170.57 266.24L171.05 267.44L171.51 268.63L171.99 269.85L177.47 293.61L181.24 327.7L185.02 388.49L185.08 393.01L185.08 393.43L185.08 393.85L185.07 394.27L185.06 394.68L185.04 395.1L185.03 395.52L185 395.94L184.97 396.36L184.93 396.76L184.89 397.18L184.85 397.6L184.79 398.01L184.74 398.43L184.68 398.83L184.62 399.25L184.54 399.66L184.47 400.07L184.38 400.48L184.31 400.89L184.22 401.29L184.12 401.7L184.02 402.1L183.92 402.51L183.81 402.91L183.69 403.31L183.58 403.71L183.45 404.11L183.32 404.5L183.2 404.9L183.06 405.3L182.92 405.69L182.77 406.08L182.62 406.47L182.47 406.85L182.3 407.24L182.14 407.62L181.97 408.01L181.8 408.39L181.61 408.77L181.44 409.15L177.61 416.9L177.42 417.28L177.22 417.65L177.01 418.01L176.8 418.37L176.58 418.72L176.35 419.07L176.11 419.41L175.87 419.75L175.61 420.08L175.36 420.4L175.09 420.72L174.82 421.03L174.55 421.33L174.25 421.62L173.96 421.91L173.66 422.21L173.36 422.48L173.05 422.75L172.74 423.01L172.42 423.26L172.09 423.52L171.76 423.76L171.41 423.99L171.06 424.22L170.72 424.43L170.37 424.65L170.01 424.85L169.65 425.04L169.28 425.23L168.9 425.4L168.53 425.58L168.14 425.73L167.76 425.89L167.36 426.04L166.97 426.17L166.57 426.3L166.18 426.41L165.77 426.53L165.39 426.62L165.04 426.69L164.49 426.79L163.95 426.88L163.4 426.97L162.86 427.06L162.31 427.13L161.76 427.2L161.21 427.27L160.66 427.33L160.12 427.39L159.56 427.44L159.01 427.47L158.47 427.51L157.91 427.55L157.36 427.57L156.81 427.59L156.26 427.61L155.7 427.62L155.16 427.62L154.61 427.62L154.05 427.62L153.51 427.6L152.95 427.58L152.4 427.56L151.85 427.53L151.3 427.49L150.75 427.45L150.2 427.41L149.65 427.36L149.1 427.3L148.55 427.23L148.01 427.16L147.46 427.09L146.91 427.01L146.36 426.92L145.82 426.83L145.27 426.73L144.73 426.63L144.18 426.52L136.26 424.89L156.38 502.56L156.58 503.37L156.78 504.18L156.98 504.99L157.17 505.8L157.36 506.62L157.53 507.43L157.72 508.25L157.88 509.07L158.05 509.88L158.21 510.7L158.37 511.52L158.51 512.34L158.66 513.16L158.8 513.99L158.93 514.8L159.06 515.63L159.19 516.46L159.3 517.28L159.42 518.11L159.53 518.93L159.62 519.76L159.72 520.59L159.82 521.41L159.9 522.25L159.98 523.08L160.06 523.9L160.13 524.74L160.2 525.56L160.25 526.4L160.31 527.24L160.36 528.06L160.41 528.9L160.45 529.74L160.49 530.56L160.52 531.4L160.54 532.23L160.56 533.07L160.57 533.91L160.58 534.74L160.58 535.58L160.58 544.84L160.58 545.06L160.58 545.26L160.58 545.47L160.57 545.68L160.56 545.89L160.56 546.11L160.55 546.31L160.54 546.52L160.52 546.73L160.51 546.94L160.49 547.15L160.48 547.36L160.46 547.56L160.44 547.77L160.42 547.98L160.4 548.19L160.37 548.4L160.35 548.6L160.32 548.81L160.29 549.02L160.26 549.23L160.24 549.43L160.21 549.64L160.17 549.85L160.14 550.05L160.1 550.26L160.06 550.46L160.02 550.68L159.98 550.88L159.93 551.08L159.89 551.29L159.85 551.49L159.81 551.7L159.76 551.9L159.71 552.1L159.66 552.31L159.6 552.51L159.56 552.67L159.51 552.86L159.37 553.26L159.23 553.65L159.07 554.03L158.9 554.4L158.73 554.77L158.53 555.13L158.33 555.48L158.12 555.83L157.9 556.16L157.67 556.49L157.43 556.81L157.17 557.12L156.91 557.42L156.64 557.71L156.36 558.01L156.06 558.28L155.76 558.54L155.46 558.79L155.15 559.05L154.83 559.28L154.5 559.5L154.16 559.72L153.82 559.92L153.47 560.12L153.12 560.3L152.75 560.47L152.38 560.63L152.01 560.78L151.63 560.91L151.25 561.04L150.86 561.15L150.47 561.25L150.07 561.34L149.67 561.41L149.26 561.47L148.85 561.51L148.44 561.55L148.02 561.57L147.61 561.58L12.84 561.58L10.41 558.87L10.2 558.64L10 558.4L9.79 558.17L9.59 557.95L9.39 557.71L9.18 557.48L8.99 557.25L8.78 557.01L8.59 556.77L8.39 556.54L8.2 556.3L8 556.06L7.8 555.83L7.61 555.58L7.42 555.35L7.23 555.11L7.03 554.87L6.85 554.62L6.65 554.38L6.47 554.14L6.27 553.89L6.09 553.65L5.91 553.41L5.72 553.16L5.54 552.91L5.35 552.67L5.17 552.42L4.99 552.17L4.81 551.92L4.63 551.68L4.45 551.42L4.27 551.17L4.1 550.93L3.84 550.48L3.6 550.03L3.38 549.59L3.16 549.13L2.96 548.66L2.77 548.21L2.59 547.73L2.43 547.26L2.28 546.79L2.14 546.3L2.02 545.82L1.9 545.34L1.8 544.85L1.72 544.37L1.64 543.87L1.58 543.38L1.53 542.89L1.49 542.39L1.47 541.9L1.46 541.4L1.46 540.91L1.47 540.41L1.5 539.91L1.55 539.42L1.6 538.92L1.67 538.44L1.74 537.94L1.84 537.44L1.95 536.96L2.07 536.47L2.2 535.99L2.35 535.51L2.5 535.03L2.68 534.56L2.86 534.08L3.06 533.61L3.27 533.15L3.49 532.69L4.12 531.46L4.22 531.24L4.34 531.03L4.45 530.81L4.55 530.6L4.67 530.39L4.79 530.17L4.89 529.96L5.01 529.75L5.13 529.54L5.24 529.33L5.36 529.12L5.49 528.91L5.6 528.7L5.72 528.49L5.85 528.29L5.97 528.08L6.09 527.87L6.22 527.66L6.34 527.46L6.47 527.26L6.6 527.05L6.72 526.85L6.85 526.64L6.98 526.44L7.11 526.25L7.25 526.04L7.37 525.84L7.51 525.64L7.65 525.44L7.78 525.23L7.92 525.04L8.05 524.85L8.19 524.64L8.33 524.45L8.47 524.25L8.61 524.06L8.75 523.86L8.89 523.67L9.04 523.47L9.18 523.28L9.99 522.19L10.26 521.84L10.54 521.49L10.82 521.15L11.12 520.82L11.42 520.5L11.72 520.18L12.04 519.88L12.35 519.58L12.68 519.28L13.01 519L13.35 518.72L13.69 518.46L14.04 518.2L14.4 517.94L14.76 517.7L15.13 517.47L15.5 517.24L15.88 517.03L16.26 516.82L16.64 516.62L17.04 516.44L17.43 516.25L17.82 516.08L18.23 515.92L18.63 515.77L19.05 515.62L19.46 515.48L19.88 515.36L20.29 515.24L20.72 515.13L21.15 515.04L21.58 514.96L22 514.88L22.44 514.81L22.88 514.75L23.32 514.71L23.75 514.68L24.19 514.65L24.64 514.63L25.09 514.63L47.44 514.63L47.44 513.73L47.44 513.05L47.45 512.37L47.46 511.69L47.47 511.01L47.49 510.32L47.51 509.64L47.55 508.96L47.58 508.28L47.62 507.6L47.67 506.92L47.72 506.24L47.78 505.57L47.83 504.89L47.89 504.21L47.96 503.53L48.04 502.86L48.12 502.17L48.19 501.49L48.28 500.82L48.38 500.15L48.48 499.47L48.57 498.8L48.68 498.13L48.79 497.46L48.9 496.78L49.02 496.11L49.15 495.45L49.27 494.78L49.41 494.11L49.55 493.43L49.69 492.77L49.84 492.1L49.99 491.44L50.15 490.78L50.3 490.12L50.47 489.46L50.64 488.8L50.82 488.14L50.99 487.48L51.18 486.81L51.58 485.42L50.13 454.16L48.96 447.38L46.57 429.44L44.63 409.24L35.1 409.24L34.15 409.22L33.2 409.17L32.26 409.08L31.33 408.96L30.41 408.81L29.5 408.62L28.61 408.41L27.72 408.16L26.85 407.89L25.98 407.57L25.13 407.23L24.3 406.87L23.48 406.48L22.68 406.06L21.9 405.6L21.13 405.12L20.38 404.63L19.65 404.09L18.94 403.55L18.24 402.97L17.57 402.36L16.92 401.74L16.3 401.1L15.69 400.43L15.1 399.74L14.55 399.03L14.01 398.3L13.5 397.55L13.01 396.77L12.56 395.99L12.13 395.18L11.72 394.36L11.35 393.52L11 392.66L10.69 391.79L10.41 390.9L10.14 390L9.93 389.08L9.74 388.15L9.58 387.21L9.56 387.1L9.54 386.99L9.53 386.89L9.51 386.79L9.5 386.68L9.48 386.59L9.47 386.5L9.45 386.4L9.44 386.31L9.42 386.23L9.42 386.14L9.4 386.06L9.39 385.98L9.37 385.9L9.36 385.83L9.35 385.75L9.33 385.68L9.32 385.61L9.31 385.55L9.29 385.49L9.28 385.43L9.27 385.37L9.26 385.31L9.24 385.26L9.23 385.2L9.22 385.16L9.21 385.12L9.2 385.07L9.19 385.03L9.18 384.99L9.16 384.95L9.15 384.92L9.14 384.89L9.13 384.86L9.12 384.84L9.11 384.82L9.11 384.8L9.1 384.78L9.09 384.76L9.08 384.74L8.51 383.84L7.97 382.93L7.46 382.01L6.98 381.07L6.54 380.12L6.12 379.17L5.74 378.2L5.39 377.22L5.07 376.24L4.78 375.25L4.53 374.26L4.29 373.26L4.11 372.25L3.94 371.24L3.81 370.22L3.71 369.21L3.64 368.19L3.6 367.17L3.6 366.15L3.62 365.13L3.68 364.12L3.77 363.1L3.88 362.09L4.04 361.08L4.21 360.07L4.43 359.07L4.67 358.08L4.94 357.09L5.24 356.11L5.58 355.14L5.95 354.17L6.34 353.22L6.77 352.28L7.24 351.34L7.72 350.42L8.25 349.52L8.79 348.62L9.38 347.74L9.99 346.87L10.63 346.03L11.16 345.36L11.62 344.75L12.09 344.14L12.55 343.53L13 342.91L13.45 342.28L13.9 341.65L14.33 341.02L14.76 340.39L15.19 339.76L15.62 339.11L16.04 338.46L16.44 337.82L16.84 337.17L17.25 336.51L17.64 335.86L18.03 335.2L18.41 334.53L18.79 333.86L19.16 333.18L19.53 332.51L19.89 331.83L20.24 331.15L20.59 330.47L20.93 329.79L21.27 329.1L21.6 328.4L21.92 327.71L22.24 327.01L22.55 326.31L22.85 325.61L23.15 324.9L23.45 324.19L23.73 323.48L24.02 322.76L24.3 322.05L24.56 321.33L24.83 320.61L25.09 319.89L25.34 319.16L25.58 318.43L29.35 307.1L29.54 306.53L29.73 305.95L29.92 305.36L30.1 304.78L30.29 304.2L30.46 303.6L30.64 303.02L30.81 302.44L30.99 301.84L31.15 301.26L31.32 300.67L31.48 300.08L31.65 299.49L31.8 298.9L31.96 298.3L32.11 297.71L32.27 297.12L32.42 296.52L32.56 295.93L32.71 295.34L32.84 294.75L32.99 294.14L33.12 293.55L33.25 292.96L33.39 292.35L33.51 291.76L33.64 291.16L33.76 290.56L33.88 289.96L34 289.36L34.12 288.76L34.22 288.15L34.34 287.55L34.45 286.95L34.55 286.35L34.65 285.74L34.75 285.14L34.85 284.54L34.94 283.94L35.03 283.32L39.01 256.68L43.37 228.39L43.52 227.48L43.65 226.6L43.8 225.74L43.94 224.9L44.07 224.08L44.2 223.28L44.33 222.5L44.46 221.75L44.59 221.01L44.71 220.29L44.83 219.59L44.96 218.91L45.07 218.26L45.19 217.62L45.31 217L45.41 216.4L45.52 215.83L45.63 215.27L45.73 214.74L45.84 214.22L45.94 213.73L46.04 213.25L46.13 212.8L46.23 212.37L46.32 211.96L46.41 211.56L46.49 211.19L46.58 210.84L46.67 210.5L46.75 210.19L46.82 209.91L46.9 209.63L46.97 209.38L47.05 209.15L47.12 208.94L47.18 208.75L47.25 208.58L47.31 208.44L47.38 208.31L47.44 208.19L47.84 207.51L48.26 206.81L48.69 206.09L49.14 205.34L49.59 204.58L50.07 203.8L50.56 203.01L51.05 202.22L51.57 201.4L52.09 200.58L52.63 199.77L53.17 198.94L53.73 198.11L54.3 197.29L54.88 196.46L55.48 195.64L56.08 194.83L56.69 194.02L57.31 193.23L57.95 192.45L58.6 191.68L59.25 190.93L59.91 190.19L60.59 189.48L61.27 188.79L61.96 188.12L62.66 187.48L63.37 186.87L64.09 186.28L64.82 185.73L65.56 185.2L66.3 184.73L67.05 184.28L67.81 183.87L68.58 183.5L69.35 183.18L70.14 182.9L70.92 182.68L71.72 182.49L72.52 182.36L76.48 182.36L72.52 155.02L107.43 159.83L107.43 171.47L107.44 171.74ZM159.55 552.71L159.56 552.67L159.62 552.46L159.44 553.12L159.5 552.91L159.55 552.71ZM3.4 549.91L3.56 550.16L3.74 550.41L3.91 550.67L4.1 550.92L4.1 550.93L4.36 551.36L4.64 551.79L2.88 549.14L3.05 549.4L3.22 549.65L3.4 549.91ZM81.22 398.75L81.1 398.88L81 399.06L80.93 399.26L80.85 399.51L80.79 399.8L80.74 400.13L80.7 400.49L80.64 401.25L80.59 401.96L80.54 402.62L80.5 403.25L80.47 403.84L80.45 404.4L80.43 404.95L80.43 405.46L80.43 405.96L80.44 406.44L80.46 406.9L80.49 407.37L80.52 407.83L80.56 408.27L80.61 408.74L80.66 409.21L80.73 409.68L80.8 410.17L80.89 410.69L80.98 411.21L81.07 411.76L81.17 412.36L81.29 412.98L81.4 413.63L81.53 414.33L81.67 415.07L81.81 415.86L81.96 416.7L82.12 417.6L82.29 418.55L82.46 419.57L82.64 420.66L82.83 421.82L83.03 423.05L83.23 424.35L83.44 425.74L83.66 427.22L83.88 428.79L84.13 430.45L84.36 432.21L84.39 432.41L84.44 432.7L84.49 433.07L84.56 433.51L84.64 434.02L84.74 434.58L84.83 435.21L84.95 435.89L85.07 436.63L85.19 437.41L85.33 438.24L85.48 439.09L85.62 440L85.78 440.92L85.93 441.87L86.1 442.84L86.25 443.84L86.42 444.84L86.59 445.86L86.76 446.88L86.92 447.89L87.1 448.91L87.27 449.92L87.42 450.91L87.59 451.89L87.74 452.86L87.9 453.79L88.04 454.69L88.19 455.57L88.32 456.41L88.45 457.2L88.57 457.95L88.67 458.66L88.78 459.3L88.87 459.9L88.96 460.42L89.02 460.88L89.07 461.28L89.12 461.59L89.15 461.82L89.33 463.36L89.5 464.88L89.68 466.4L89.86 467.91L90.05 469.4L90.24 470.89L90.42 472.38L90.62 473.86L90.82 475.31L91.02 476.77L91.22 478.23L91.44 479.67L91.64 481.1L91.85 482.53L92.07 483.95L92.29 485.36L92.51 486.76L92.73 488.15L92.96 489.53L93.2 490.91L93.43 492.28L93.66 493.64L93.9 494.99L94.14 496.33L94.39 497.66L94.63 499L94.89 500.31L95.14 501.62L95.39 502.92L95.65 504.22L95.92 505.51L96.19 506.78L96.45 508.06L96.72 509.31L97 510.56L97.28 511.81L97.56 513.05L97.84 514.28L98.13 515.5L98.42 516.71L110.68 516.71L110.68 498.22L110.67 497.54L110.67 496.86L110.66 496.18L110.65 495.5L110.63 494.82L110.61 494.13L110.58 493.45L110.54 492.77L110.51 492.1L110.47 491.42L110.42 490.74L110.37 490.06L110.32 489.38L110.26 488.71L110.2 488.03L110.13 487.36L110.06 486.68L109.98 486.01L109.91 485.33L109.83 484.66L109.74 483.98L109.64 483.31L109.56 482.63L109.45 481.96L109.35 481.29L109.24 480.62L109.13 479.95L109.01 479.28L108.89 478.61L108.77 477.94L108.63 477.28L108.5 476.61L108.36 475.95L108.22 475.28L108.08 474.61L107.92 473.95L107.77 473.28L107.61 472.62L107.45 471.96L107.28 471.31L97.34 432.55L97.23 432.12L97.11 431.68L97 431.26L96.88 430.82L96.76 430.39L96.64 429.95L96.51 429.53L96.39 429.1L96.27 428.67L96.13 428.24L96 427.81L95.87 427.39L95.74 426.96L95.61 426.53L95.47 426.1L95.32 425.68L95.19 425.26L95.04 424.83L94.9 424.4L94.75 423.98L94.6 423.56L94.46 423.14L94.3 422.72L94.15 422.29L94 421.87L93.84 421.46L93.68 421.04L93.53 420.62L93.36 420.2L93.2 419.78L93.03 419.37L92.86 418.96L92.7 418.54L92.52 418.12L92.35 417.71L92.18 417.31L92 416.89L91.82 416.48L91.65 416.07L91.46 415.66L90.97 414.53L90.47 413.46L90 412.41L89.54 411.4L89.08 410.43L88.65 409.5L88.22 408.6L87.8 407.76L87.39 406.93L86.99 406.15L86.61 405.42L86.24 404.72L85.88 404.05L85.54 403.42L85.2 402.84L84.88 402.29L84.57 401.77L84.27 401.29L83.99 400.87L83.72 400.47L83.45 400.11L83.2 399.78L82.96 399.5L82.73 399.25L82.51 399.04L82.31 398.87L82.12 398.74L81.94 398.65L81.77 398.59L81.62 398.57L81.47 398.59L81.34 398.65L81.22 398.75ZM165.39 426.62L165.58 426.58L166.13 426.47L164.95 426.72L165.36 426.63L165.39 426.62ZM127.84 244.49L128.01 245.09L128.16 245.69L128.31 246.28L128.46 246.9L128.59 247.5L128.72 248.1L128.84 248.71L128.96 249.32L129.08 249.93L129.17 250.54L129.27 251.14L129.37 251.76L129.45 252.37L129.52 252.99L129.59 253.6L129.66 254.22L129.72 254.83L129.77 255.45L129.82 256.06L129.86 256.69L129.88 257.3L129.9 257.92L129.92 258.53L129.93 259.16L129.94 259.78L129.93 260.39L129.93 261.01L129.91 261.63L129.89 262.25L129.87 262.87L129.83 263.49L129.79 264.1L129.74 264.73L129.68 265.35L129.61 265.96L129.54 266.58L129.47 267.19L129.39 267.82L129.35 268.04L129.32 268.27L129.29 268.51L129.25 268.75L129.22 268.98L129.18 269.23L129.15 269.47L129.11 269.71L129.08 269.97L129.04 270.22L129 270.47L128.96 270.72L128.92 270.98L128.88 271.24L128.83 271.49L128.8 271.75L128.76 272.03L128.71 272.29L128.67 272.56L128.62 272.83L128.58 273.11L128.53 273.38L128.49 273.66L128.45 273.94L128.4 274.22L128.35 274.51L128.3 274.79L128.25 275.08L128.2 275.37L128.15 275.66L128.11 275.95L128.06 276.26L128 276.55L127.95 276.85L127.89 277.16L127.84 277.46L127.78 277.77L127.74 278.07L127.68 278.38L127.62 278.71L127.44 279.7L127.28 280.65L127.11 281.56L126.97 282.44L126.82 283.27L126.69 284.08L126.55 284.85L126.42 285.59L126.31 286.3L126.19 286.98L126.09 287.63L125.99 288.25L125.89 288.84L125.8 289.42L125.71 289.96L125.64 290.49L125.56 290.99L125.49 291.48L125.42 291.94L125.36 292.38L125.31 292.82L125.25 293.23L125.19 293.64L125.14 294.03L125.09 294.4L125.05 294.77L125 295.12L124.97 295.47L124.93 295.82L124.89 296.16L124.86 296.5L124.82 296.83L124.79 297.16L124.75 297.49L124.72 297.82L124.68 298.15L124.65 298.49L124.63 298.83L124.59 299.17L124.56 299.53L124.47 300.38L124.4 301.2L124.33 301.99L124.28 302.74L124.23 303.47L124.18 304.15L124.14 304.81L124.11 305.44L124.08 306.04L124.06 306.62L124.04 307.17L124.03 307.69L124.02 308.2L124.02 308.69L124.02 309.15L124.03 309.6L124.04 310.02L124.05 310.44L124.07 310.83L124.08 311.2L124.1 311.57L124.13 311.93L124.15 312.27L124.18 312.61L124.21 312.93L124.23 313.26L124.26 313.58L124.28 313.88L124.31 314.19L124.34 314.49L124.37 314.79L124.4 315.1L124.42 315.4L124.45 315.72L124.47 316.03L124.49 316.34L124.51 316.66L124.53 316.99L124.55 317.33L124.56 317.68L124.57 318.09L124.59 318.49L124.62 318.89L124.64 319.28L124.68 319.68L124.72 320.08L124.77 320.47L124.82 320.87L124.88 321.27L124.95 321.66L125 322.06L125.07 322.47L125.15 322.88L125.23 323.29L125.31 323.71L125.38 324.13L125.47 324.56L125.56 325.01L125.65 325.46L125.74 325.91L125.83 326.38L125.93 326.86L126.03 327.35L126.12 327.86L126.22 328.37L126.32 328.9L126.41 329.44L126.51 330L126.62 330.57L126.72 331.16L126.81 331.78L126.91 332.4L127.01 333.05L127.09 333.71L127.19 334.39L127.28 335.1L127.37 335.83L127.45 336.58L127.54 337.35L127.62 338.14L127.68 338.72L127.74 339.29L127.78 339.84L127.83 340.4L127.87 340.94L127.92 341.48L127.96 342L128 342.53L128.03 343.03L128.07 343.54L128.1 344.03L128.12 344.52L128.14 345.01L128.16 345.48L128.18 345.94L128.2 346.4L128.21 346.85L128.22 347.29L128.23 347.73L128.24 348.15L128.24 348.56L128.24 348.98L128.24 349.38L128.23 349.78L128.22 350.16L128.21 350.54L128.2 350.91L128.18 351.28L128.16 351.63L128.14 351.98L128.12 352.32L128.1 352.65L128.07 352.97L128.04 353.29L128 353.6L127.96 353.89L127.92 354.19L127.88 354.48L127.83 354.75L127.79 355.02L127.78 355.07L127.77 355.11L127.77 355.16L127.76 355.19L127.75 355.24L127.74 355.28L127.73 355.33L127.71 355.38L127.7 355.42L127.69 355.47L127.68 355.51L127.66 355.55L127.65 355.59L127.64 355.63L127.62 355.68L127.61 355.72L127.59 355.77L127.58 355.81L127.56 355.85L127.54 355.89L127.53 355.93L127.51 355.98L127.49 356.02L127.47 356.06L127.45 356.1L127.44 356.15L127.42 356.19L127.41 356.22L127.39 356.26L127.37 356.31L127.35 356.35L127.32 356.39L127.3 356.43L127.28 356.47L127.26 356.51L127.24 356.55L127.21 356.59L127.19 356.63L127.17 356.67L127.14 356.71L126.17 358.3L138.68 346.36L142.83 339.13L145.27 329.92L145.66 318.26L145.67 317.84L145.69 317.43L145.69 317.01L145.7 316.59L145.71 316.17L145.71 315.75L145.71 315.34L145.71 314.92L145.71 314.5L145.7 314.08L145.7 313.66L145.69 313.25L145.68 312.83L145.67 312.41L145.65 311.99L145.64 311.57L145.62 311.17L145.6 310.75L145.58 310.33L145.56 309.91L145.53 309.49L145.51 309.08L145.48 308.66L145.44 308.24L145.41 307.83L145.37 307.41L145.33 306.99L145.29 306.58L145.25 306.16L145.22 305.75L145.17 305.33L145.12 304.91L145.07 304.51L145.02 304.09L144.97 303.67L144.91 303.26L144.86 302.84L144.8 302.44L144.74 302.02L144.68 301.61L142.01 284.05L142 284L141.99 283.95L141.99 283.91L141.98 283.87L141.97 283.82L141.96 283.77L141.95 283.72L141.94 283.68L141.93 283.63L141.93 283.59L141.92 283.54L141.91 283.5L141.9 283.45L141.89 283.4L141.88 283.35L141.87 283.31L141.85 283.26L141.84 283.22L141.83 283.17L141.82 283.13L141.81 283.08L141.8 283.03L141.79 282.99L141.77 282.94L141.76 282.9L141.75 282.86L141.74 282.81L141.73 282.76L141.72 282.72L141.71 282.67L141.69 282.62L141.68 282.58L141.67 282.54L141.65 282.49L141.64 282.45L141.62 282.4L141.61 282.35L141.59 282.31L141.58 282.26L141.56 282.22L119.04 215.29L127.49 243.29L127.67 243.89L127.84 244.49Z" id="c19bZ7PLUv"></path><path d="M123.68 237.46C123.68 240.42 126.07 244.01 126.96 248.41C128.29 255.02 129.63 251.87 126.96 251.87C122.52 251.87 115.02 239.04 115.02 231.62C115.02 224.2 112.79 217.21 117.24 217.21C120.22 217.21 119.91 225.74 121.3 229.76C121.99 231.74 123.68 235.01 123.68 237.46Z" id="f2iwvTmYlv"></path><path d="M121.31 516.43C120.87 525.63 109.07 525.11 107.3 525.11C106.73 525.11 96.83 529.75 93.27 537.15C91.16 541.55 100.68 550.41 99.96 554.54C98.86 560.88 88.2 561.34 87.93 558.54C87.67 555.88 79.98 543.72 82.28 534.24C84.22 526.15 95.95 520.39 98.32 519.76C100.57 519.17 108.08 519.89 109.55 516.43C110.87 513.33 112.91 520.61 113.06 514.6C113.37 501.83 110.2 473.09 109.06 466.58C106.17 450.05 99.16 429.92 93.27 415.98C89.73 407.62 85.71 401.49 85.71 399.68C85.71 388.89 78.28 396.65 85.23 396.65C92.18 396.65 99.96 402.58 99.96 413.37C99.96 421.41 122.58 489.53 121.31 516.43Z" id="b8h319dUp"></path><path d="M43.59 149.56C42.63 141.59 42.04 136.62 41.81 134.62C40.99 127.85 39.47 121.18 37.26 114.72C36.65 112.97 35.16 108.58 32.75 101.55" id="ajt1Hk7Zd"></path><path d="M43.48 394.33C43.48 400.95 43.48 399.56 41.09 399.56C38.7 399.56 34.82 400.95 34.82 394.33C34.82 387.72 36.75 382.36 39.14 382.36C40.27 382.36 41.29 380.41 42.07 382.36C42.93 384.54 43.48 390.83 43.48 394.33Z" id="k2SYmvjM1Y"></path><path d="M109.55 201.65C112.36 211.71 109.15 208.7 100.78 223.07C94.72 233.48 88.6 260.38 88.6 272.54C88.6 281.13 82.96 303.68 82.79 318.34C82.64 333 74.26 362.99 57.07 356.11C55.75 355.58 57.39 385.02 53.87 384.73C53.66 384.71 54.67 398.38 55.34 415.06C55.87 428.44 59 445.7 59.34 461.95C59.66 477.88 57.78 487.31 58.36 499.35C58.65 505.42 59.31 511.59 59.34 515.41C59.37 520.01 52.39 519.14 47.94 519.95C44.59 520.55 35.74 522.49 34.82 519.95C34.46 518.97 39.18 519.72 43.48 518C46.78 516.67 49.92 512.9 49.82 511.79C49.16 503.62 53.91 480.86 53.87 484.22C53.76 492.71 53.11 452.45 52.41 452.47C50.94 452.49 44.56 381.54 43.48 381.49C29.1 380.79 12.51 379.35 6.87 367.98C4.14 362.48 10.51 354.12 15.83 344.43C21.47 334.16 26.17 322.71 26.25 322.58C27.41 321.12 34.77 298.75 38.17 276.96C41.57 255.16 42.94 242.38 45.53 228.42C46.86 221.25 48.66 213.52 51.45 207.51C58.12 193.16 66.2 184.18 72.43 184.18C73.31 184.18 74.96 182.49 77.11 182.15C88.83 180.26 106.71 191.47 109.55 201.65Z" id="c2ZYrLZJFt"></path><path d="M124.32 396.66C120.84 391.8 118.39 392.54 118.39 384.5C118.39 380.79 118.39 384.5 118.39 384.5C118.39 380.98 122.12 378.71 125.24 380.33C129.65 382.62 131.77 385.53 131.61 389.04C131.21 398.28 129.67 393.97 129.67 402.03C129.67 410.08 127.8 401.52 124.32 396.66Z" id="a6axPpqeh"></path><path d="M64.9 207.51C61.84 214.86 59.94 219.45 59.18 221.29C51.76 239.14 48.98 258.57 51.08 277.78C51.33 280.1 51.4 281.98 51.29 283.43C50.92 287.95 43.6 335.19 43.59 335.3C41.8 358.7 43.81 346.75 43.65 369.74C43.55 385.06 43.55 398.07 43.65 408.75" id="c5XlLXVBMn"></path><path d="M99.7 353.27C102.44 355.22 82.79 382.34 82.79 385.31C82.79 390.81 89.85 396.73 87.17 396.73C84.49 396.73 83.94 402.24 83.94 396.73C83.94 394.97 77.38 392.77 75.84 390.29C74.65 388.34 67.82 387.15 67.09 385.31C66.32 383.37 55.28 357.88 57.31 355.87C58.55 354.66 64.34 372.14 68.78 376.81C72.8 381.02 74.1 378.75 74.38 378.75C74.9 378.75 79.66 380.78 82.79 376.81C87.22 371.2 98.33 352.3 99.7 353.27Z" id="e1KNDOolsf"></path><path d="M74.38 380.25C75.88 383.96 76.81 386.28 77.18 387.22C79.56 393.11 82.4 398.8 85.71 404.22C85.71 404.22 85.71 404.22 85.71 404.22" id="a6eUv81tkK"></path><path d="M119.68 216.26C130.43 249.31 137.16 269.97 139.85 278.23C143.88 290.63 145.94 303.59 145.94 316.64C145.94 318.91 145.94 315.2 145.94 319.77C145.94 325.23 145.05 330.67 143.29 335.85C142.37 338.58 143.82 334.28 143.29 335.85C140.3 344.68 134.28 352.15 126.31 356.97C123.83 358.47 128.78 355.49 126.31 356.97C118.86 361.47 115.03 370.15 116.71 378.68C117.3 381.67 117.09 380.59 117.89 384.62C119.06 390.53 121.7 396.05 125.57 400.67C126.75 402.1 122.13 396.57 122.74 397.3C128.53 404.22 132.71 412.34 134.98 421.07C135.16 421.76 135.61 423.49 136.33 426.25" id="f1WQzPssZU"></path><path d="M89.21 560.61C86.87 557.67 85.4 555.84 84.82 555.11C81 550.35 79.37 544.22 80.3 538.2C80.76 535.29 80.39 537.63 80.78 535.12C81.89 527.98 86.58 521.89 93.22 519C94.09 518.62 96.25 517.68 99.7 516.18" id="a1KkrkHr5r"></path><path d="M131.41 34.1C136.35 41.12 139.86 49.03 141.74 57.4C142.41 60.41 142.74 62.8 142.74 64.58C142.74 69.21 146.16 86.7 144.2 96.17C144.03 97.02 147.06 99.1 148.32 100.32C149.09 101.09 153.09 111.26 153.06 113.83C153.02 116.39 153.37 121.11 151.29 125.99C149.56 130.03 146.37 137.75 142.95 141.26C140.31 143.97 135.36 149.4 131.97 150.59C130.29 151.19 127.74 150.58 126.77 148.96C126.02 147.68 126.87 146.04 125.68 146.22C124.77 146.36 124.49 148.56 123.74 149.56C122.15 151.68 121.17 153.55 120.1 155.13C116.19 160.9 115.77 160.14 104.5 168.71C93.23 177.27 74.13 177.19 70.31 176.31C66.49 175.42 46.43 166.08 43.46 150.05C43.17 148.45 39.14 146.31 36.58 141.99C33.25 136.37 31.16 128.16 30.4 123.84C29.77 120.29 29.48 110.84 30.4 105.54C31.2 100.93 33.24 102.42 32.81 101.94C30.7 99.6 31.38 95.51 31.58 89.24C31.79 82.97 31.48 76.5 32.81 64.58C34.5 49.35 38.32 42.16 44.9 31.19C51.48 20.22 65.66 7.89 83.59 7.23C89.23 7.02 92.91 6.93 94.61 6.97C102.56 7.13 110.18 10.14 116.1 15.44C118.42 17.52 120.08 19.09 121.06 20.16C122.62 21.88 126.08 26.53 131.41 34.1Z" id="a4A9in7WZq"></path><path d="M131.41 34.1C136.35 41.12 139.86 49.03 141.74 57.4C142.41 60.41 142.74 62.8 142.74 64.58C142.74 69.21 146.16 86.7 144.2 96.17C144.03 97.02 147.06 99.1 148.32 100.32C149.09 101.09 153.09 111.26 153.06 113.83C153.02 116.39 153.37 121.11 151.29 125.99C149.56 130.03 146.37 137.75 142.95 141.26C140.31 143.97 135.36 149.4 131.97 150.59C130.29 151.19 127.74 150.58 126.77 148.96C126.02 147.68 126.87 146.04 125.68 146.22C124.77 146.36 124.49 148.56 123.74 149.56C122.15 151.68 121.17 153.55 120.1 155.13C116.19 160.9 115.77 160.14 104.5 168.71C93.23 177.27 74.13 177.19 70.31 176.31C66.49 175.42 46.43 166.08 43.46 150.05C43.17 148.45 39.14 146.31 36.58 141.99C33.25 136.37 31.16 128.16 30.4 123.84C29.77 120.29 29.48 110.84 30.4 105.54C31.2 100.93 33.24 102.42 32.81 101.94C30.7 99.6 31.38 95.51 31.58 89.24C31.79 82.97 31.48 76.5 32.81 64.58C34.5 49.35 38.32 42.16 44.9 31.19C51.48 20.22 65.66 7.89 83.59 7.23C89.23 7.02 92.91 6.93 94.61 6.97C102.56 7.13 110.18 10.14 116.1 15.44C118.42 17.52 120.08 19.09 121.06 20.16C122.62 21.88 126.08 26.53 131.41 34.1Z" id="f7wxaLdia"></path><path d="M109.6 122.85C106.66 124.5 103.01 128.08 99.08 128.08C89.35 128.08 81.45 122.14 81.45 114.82C81.45 107.49 89.35 101.55 99.08 101.55C108.81 101.55 120.1 107.49 120.1 114.82C120.1 119.17 113.9 120.43 109.6 122.85Z" id="a3mWgYAwUH"></path><path d="M48.26 121.78C50.45 123.1 53.16 126 56.09 126C63.33 126 69.21 121.2 69.21 115.3C69.21 109.39 63.33 104.59 56.09 104.59C48.86 104.59 40.45 109.39 40.45 115.3C40.45 118.81 45.05 119.83 48.26 121.78Z" id="b12dNnt7wI"></path><path d="M134.07 101.27C134.86 100.54 135.35 100.08 135.54 99.9C136.81 98.71 138.31 97.83 139.97 97.3C140.26 97.21 139.37 97.5 139.85 97.34C140.88 97.01 141.95 96.84 143.04 96.84C143.22 96.84 143.71 96.84 144.48 96.84" id="abZr93Q3r"></path><path d="M142.7 121.81C141.56 123.66 140 125.43 138.47 125.43C137.2 125.43 135.73 126.71 134.8 125.43C133.56 123.7 133.64 121.63 133.64 118.65C133.64 113.45 136.07 109.23 139.06 109.23C142.05 109.23 144.48 110.61 144.48 115.81C144.48 118.33 143.77 120.07 142.7 121.81Z" id="a1S3Gf0nOg"></path><path d="M143.94 117.34C143.61 115.35 143.41 114.12 143.33 113.62C143.11 112.29 142.44 111.07 141.43 110.16C141.04 109.79 141.63 110.33 141.28 110.02C140.2 109.04 138.59 108.97 137.42 109.83C136.81 110.28 137 110.13 136.4 110.58C135.12 111.52 134.38 113.01 134.38 114.6C134.38 115.47 134.38 117.68 134.38 121.2C134.38 121.52 134.38 123.15 134.38 126.08L128.89 130.67" id="b1AGbhbh0g"></path><path d="M137.45 47.51C141.22 54.02 141.97 62 141.41 65.8C140.87 69.59 145.24 89.83 143.3 94.71C142.24 97.38 144.7 94.81 142.97 96.05C142.6 96.31 141.89 95.62 140.43 96.05C139.35 96.36 138.66 96.21 137.8 96.84C137.05 97.4 134.51 100.12 133.17 100.45C131.53 100.85 121.99 111.35 120.1 111.55C116.19 111.98 113.22 105.98 111.8 105.98C103.86 105.98 109.48 107.65 109.48 85.61C109.48 80.98 121.89 62.67 122.12 58.38C122.58 49.33 121.83 41.67 120.48 34.61C119.43 29.07 111.82 16.05 114.58 16.05C118.43 16.05 131.81 34.23 134.39 41.08C135.25 43.38 135.71 44.51 137.45 47.51Z" id="bfA2l35dX"></path><path d="M59.08 113.28C61.24 115.18 61.94 119.97 64.33 119.97C66.91 119.97 67.34 120.4 68.61 117.82C69.47 116.06 69.21 115.01 69.21 114.03C69.21 111.59 64.84 105.69 60.52 105.69C56.2 105.69 56.34 106.47 56.34 108.91C56.34 109.99 57.34 111.77 59.08 113.28Z" id="h5I73fAhit"></path><path d="M91.44 112.85C90.49 113.9 90.11 116.27 88.79 117.61C87.07 119.37 85.38 120 84.03 120C83.2 120 82.3 119.54 81.94 118.18C81.86 117.93 81.91 117.64 81.78 117.31C81.33 116.11 81.47 114.68 81.45 113.43C81.43 112.33 82.04 110.82 82.86 109.65C83.7 108.47 87.33 103.1 91.66 103.1C95.99 103.1 98.54 103.75 98.54 106.86C98.54 108.25 93.18 110.91 91.44 112.85Z" id="a3tpSG2Rg"></path><path d="M142.95 94.65C141.56 95.04 140.33 95.38 139.24 95.66C136.22 96.45 134.37 99.06 133.66 99.06C132.3 99.06 130.12 91.81 131.7 83.68C132.54 79.4 137.5 74.87 137.5 71.04C137.5 59.93 134.36 46.61 136.44 46.61C138.51 46.61 142.95 67.37 142.95 78.48C142.95 80.7 142.95 86.09 142.95 94.65Z" id="awuPUttrF"></path><path d="M58.37 514.6L46.46 514.6" id="c1kHnr4qHw"></path><path d="M118.22 516.67L109.55 516.67" id="c6ktteARY"></path><path d="M53.81 52.77C49.74 65.4 33.5 65.05 35.07 58.57C36.64 52.1 36.41 54.84 38.11 48.39C39.81 41.96 45.83 28.76 56.34 19.56C59.04 17.18 62.21 15.04 65.16 13.28C75.57 7.09 90.45 8.52 98.49 8.52C99.75 8.52 78.48 11.96 66.23 25.08C58.87 32.95 55.34 48.03 53.81 52.77Z" id="cNr294LnP"></path><path d="M180.26 341.67C180.26 355.41 180.46 339.72 181.62 352.4C183.56 373.56 185.01 399.56 181.62 399.56C176.2 399.56 173.74 344.75 173.74 308.13C173.74 285.43 157.66 245.87 145.94 220.92C143.25 215.18 115.42 188.36 113.39 184.41C110 177.82 133.35 195.9 134.64 195.9C138.08 195.9 156.9 232.55 168.77 267.62C175.59 287.78 180.26 328.3 180.26 341.67Z" id="aBBMTUqsH"></path><path d="M155.95 512.33C155.95 515.98 157.43 518.06 159.35 528.69C160 532.29 159.35 534.9 159.35 537.08C159.34 540.23 159.73 542.54 159.35 545.73C159.19 547.14 158.08 552.8 155.95 555.72C154.31 557.98 151.64 557.61 150.95 558.5C147.89 562.52 122.58 560.37 119.9 560.37C115.91 560.37 130.27 558.78 141.82 553.57C147.39 551.05 151.38 549.14 150.95 541.77C149.87 523.21 139.88 474.38 139.88 469.56C139.88 462.9 135.82 441.44 131.13 427.57C128.25 419.07 123.65 408.75 127.73 408.75C133.69 408.75 141.71 454.42 145.94 470.9C149.34 484.12 155.95 507.56 155.95 512.33Z" id="eWKSBc5iU"></path><path d="M83.33 432.99C85.21 445.66 88.63 470.47 88.63 472.91C88.63 478.71 85.86 461.61 89.87 484.22C92.2 497.3 95.22 509.35 95.35 514.6C95.42 517.07 94.85 516.67 93.27 516.67C92.73 516.67 86.34 522.13 83.33 525.96C81.72 528 77.16 535.05 78.52 543.84C78.91 546.48 81.21 552.79 81.27 554.75C81.33 556.61 86.58 559.5 85.71 559.68C80.08 560.78 79.13 560.24 74.38 559.68C67.13 558.8 58.68 561.6 58.37 559.68C58.05 557.74 66.84 562.67 74.38 552.8C77.37 548.91 74.2 540.91 77.5 533.15C80.27 526.66 85.65 520.33 87.17 516.67C89.24 511.67 90.82 510.75 89.87 503.66C88.93 496.58 86.14 486.82 85.71 484.22C82.01 461.06 81.27 452.19 81.27 446.18C81.27 439.79 78.27 423.98 75.92 412.23C74.33 404.23 74.17 396.65 78.52 396.65C84.42 396.65 79.12 398.42 78.52 405.34C78.27 408.15 81.49 420.57 83.33 432.99Z" id="a1fAh6ASsE"></path><path d="M24.8 559.7C19.99 559.7 18.96 562.29 15.51 559.7C12.56 557.47 6.41 552.17 4.21 547.31C3.09 544.81 4.21 540.92 4.21 538.75C4.21 532.74 7.31 529.18 11.31 525.43C12.97 523.87 17.68 518.9 22.77 517.36C28.63 515.59 37.01 516.88 39.79 516.88C50.84 516.88 22.77 527.41 22.77 538.75C22.77 550.08 35.85 559.7 24.8 559.7Z" id="h1gPeRWMqT"></path><path d="M32.75 101.27L43.59 149.56" id="d3cJaM93Y"></path></defs><g><g><g><use xlink:href="#giGGqmaA1" opacity="1" fill="#e8bf72" fill-opacity="1"></use><g><use xlink:href="#giGGqmaA1" opacity="1" fill-opacity="0" stroke="#000000" stroke-width="1" stroke-opacity="0"></use></g></g><g><use xlink:href="#c19bZ7PLUv" opacity="1" fill="#000000" fill-opacity="0"></use><g><use xlink:href="#c19bZ7PLUv" opacity="1" fill-opacity="0" stroke="#000000" stroke-width="3" stroke-opacity="1"></use></g></g><g><use xlink:href="#f2iwvTmYlv" opacity="1" fill="#d7a442" fill-opacity="1"></use><g><use xlink:href="#f2iwvTmYlv" opacity="1" fill-opacity="0" stroke="#000000" stroke-width="1" stroke-opacity="0"></use></g></g><g><use xlink:href="#b8h319dUp" opacity="1" fill="#eeca88" fill-opacity="1"></use><g><use xlink:href="#b8h319dUp" opacity="1" fill-opacity="0" stroke="#000000" stroke-width="1" stroke-opacity="0"></use></g></g><g><use xlink:href="#ajt1Hk7Zd" opacity="1" fill="#000000" fill-opacity="0"></use><g><use xlink:href="#ajt1Hk7Zd" opacity="1" fill-opacity="0" stroke="#0a1216" stroke-width="3" stroke-opacity="1"></use></g></g><g><use xlink:href="#k2SYmvjM1Y" opacity="1" fill="#d7a442" fill-opacity="1"></use><g><use xlink:href="#k2SYmvjM1Y" opacity="1" fill-opacity="0" stroke="#000000" stroke-width="1" stroke-opacity="0"></use></g></g><g><use xlink:href="#c2ZYrLZJFt" opacity="1" fill="#eeca88" fill-opacity="1"></use><g><use xlink:href="#c2ZYrLZJFt" opacity="1" fill-opacity="0" stroke="#000000" stroke-width="1" stroke-opacity="0"></use></g></g><g><use xlink:href="#a6axPpqeh" opacity="1" fill="#d7a442" fill-opacity="1"></use><g><use xlink:href="#a6axPpqeh" opacity="1" fill-opacity="0" stroke="#000000" stroke-width="1" stroke-opacity="0"></use></g></g><g><use xlink:href="#c5XlLXVBMn" opacity="1" fill="#000000" fill-opacity="0"></use><g><use xlink:href="#c5XlLXVBMn" opacity="1" fill-opacity="0" stroke="#000000" stroke-width="3" stroke-opacity="1"></use></g></g><g><use xlink:href="#e1KNDOolsf" opacity="1" fill="#d7a442" fill-opacity="1"></use><g><use xlink:href="#e1KNDOolsf" opacity="1" fill-opacity="0" stroke="#000000" stroke-width="1" stroke-opacity="0"></use></g></g><g><use xlink:href="#a6eUv81tkK" opacity="1" fill="#000000" fill-opacity="0"></use><g><use xlink:href="#a6eUv81tkK" opacity="1" fill-opacity="0" stroke="#000000" stroke-width="3" stroke-opacity="1"></use></g></g><g><use xlink:href="#f1WQzPssZU" opacity="1" fill="#000000" fill-opacity="0"></use><g><use xlink:href="#f1WQzPssZU" opacity="1" fill-opacity="0" stroke="#000000" stroke-width="3" stroke-opacity="1"></use></g></g><g><use xlink:href="#a1KkrkHr5r" opacity="1" fill="#000000" fill-opacity="0"></use><g><use xlink:href="#a1KkrkHr5r" opacity="1" fill-opacity="0" stroke="#000000" stroke-width="3" stroke-opacity="1"></use></g></g><g><use xlink:href="#a4A9in7WZq" opacity="1" fill="#e8bf72" fill-opacity="1"></use><g><use xlink:href="#a4A9in7WZq" opacity="1" fill-opacity="0" stroke="#000000" stroke-width="1" stroke-opacity="0"></use></g></g><g><use xlink:href="#f7wxaLdia" opacity="1" fill="#000000" fill-opacity="0"></use><g><use xlink:href="#f7wxaLdia" opacity="1" fill-opacity="0" stroke="#171819" stroke-width="3" stroke-opacity="1"></use></g></g><g><use xlink:href="#a3mWgYAwUH" opacity="1" fill="#e3b45b" fill-opacity="1"></use><g><use xlink:href="#a3mWgYAwUH" opacity="1" fill-opacity="0" stroke="#000000" stroke-width="1" stroke-opacity="0"></use></g></g><g><use xlink:href="#b12dNnt7wI" opacity="1" fill="#e3b45b" fill-opacity="1"></use><g><use xlink:href="#b12dNnt7wI" opacity="1" fill-opacity="0" stroke="#000000" stroke-width="1" stroke-opacity="0"></use></g></g><g><use xlink:href="#abZr93Q3r" opacity="1" fill="#000000" fill-opacity="0"></use><g><use xlink:href="#abZr93Q3r" opacity="1" fill-opacity="0" stroke="#171819" stroke-width="3" stroke-opacity="1"></use></g></g><g><use xlink:href="#a1S3Gf0nOg" opacity="1" fill="#cb9a3e" fill-opacity="1"></use><g><use xlink:href="#a1S3Gf0nOg" opacity="1" fill-opacity="0" stroke="#000000" stroke-width="1" stroke-opacity="0"></use></g></g><g><use xlink:href="#b1AGbhbh0g" opacity="1" fill="#000000" fill-opacity="0"></use><g><use xlink:href="#b1AGbhbh0g" opacity="1" fill-opacity="0" stroke="#171819" stroke-width="3" stroke-opacity="1"></use></g></g><g><use xlink:href="#bfA2l35dX" opacity="1" fill="#e3b45b" fill-opacity="1"></use><g><use xlink:href="#bfA2l35dX" opacity="1" fill-opacity="0" stroke="#000000" stroke-width="1" stroke-opacity="0"></use></g></g><g><use xlink:href="#h5I73fAhit" opacity="1" fill="#d7a442" fill-opacity="1"></use><g><use xlink:href="#h5I73fAhit" opacity="1" fill-opacity="0" stroke="#000000" stroke-width="1" stroke-opacity="0"></use></g></g><g><use xlink:href="#a3tpSG2Rg" opacity="1" fill="#d7a442" fill-opacity="1"></use><g><use xlink:href="#a3tpSG2Rg" opacity="1" fill-opacity="0" stroke="#000000" stroke-width="1" stroke-opacity="0"></use></g></g><g><use xlink:href="#awuPUttrF" opacity="1" fill="#ddab4d" fill-opacity="1"></use><g><use xlink:href="#awuPUttrF" opacity="1" fill-opacity="0" stroke="#000000" stroke-width="1" stroke-opacity="0"></use></g></g><g><use xlink:href="#c1kHnr4qHw" opacity="1" fill="#000000" fill-opacity="0"></use><g><use xlink:href="#c1kHnr4qHw" opacity="1" fill-opacity="0" stroke="#000000" stroke-width="3" stroke-opacity="1"></use></g></g><g><use xlink:href="#c6ktteARY" opacity="1" fill="#000000" fill-opacity="0"></use><g><use xlink:href="#c6ktteARY" opacity="1" fill-opacity="0" stroke="#000000" stroke-width="3" stroke-opacity="1"></use></g></g><g><use xlink:href="#cNr294LnP" opacity="1" fill="#eeca88" fill-opacity="1"></use><g><use xlink:href="#cNr294LnP" opacity="1" fill-opacity="0" stroke="#000000" stroke-width="1" stroke-opacity="0"></use></g></g><g><use xlink:href="#aBBMTUqsH" opacity="1" fill="#d7a442" fill-opacity="1"></use><g><use xlink:href="#aBBMTUqsH" opacity="1" fill-opacity="0" stroke="#000000" stroke-width="1" stroke-opacity="0"></use></g></g><g><use xlink:href="#eWKSBc5iU" opacity="1" fill="#d7a442" fill-opacity="1"></use><g><use xlink:href="#eWKSBc5iU" opacity="1" fill-opacity="0" stroke="#000000" stroke-width="1" stroke-opacity="0"></use></g></g><g><use xlink:href="#a1fAh6ASsE" opacity="1" fill="#d7a442" fill-opacity="1"></use><g><use xlink:href="#a1fAh6ASsE" opacity="1" fill-opacity="0" stroke="#000000" stroke-width="1" stroke-opacity="0"></use></g></g><g><use xlink:href="#h1gPeRWMqT" opacity="1" fill="#eeca88" fill-opacity="1"></use><g><use xlink:href="#h1gPeRWMqT" opacity="1" fill-opacity="0" stroke="#000000" stroke-width="1" stroke-opacity="0"></use></g></g><g><g><use xlink:href="#d3cJaM93Y" opacity="1" fill-opacity="0" stroke="#171819" stroke-width="3" stroke-opacity="1"></use></g></g></g></g></svg>