<?xml version="1.0" encoding="UTF-8" standalone="no"?>
<!DOCTYPE svg PUBLIC "-//W3C//DTD SVG 1.1//EN" "http://www.w3.org/Graphics/SVG/1.1/DTD/svg11.dtd">
<svg version="1.1" xmlns="http://www.w3.org/2000/svg" xmlns:xlink="http://www.w3.org/1999/xlink" preserveAspectRatio="xMidYMid meet" viewBox="230.70968975708337 360.0148256405376 169.3325787244608 257.1368369709467" width="164.83" height="252.64"><defs><path d="M272.96 402.36L273.98 420.05L275.02 463.49C275.25 465.32 275.39 466.46 275.44 466.92C275.44 466.92 276.9 490.81 276.9 490.81C276.9 492.87 276.9 491.51 276.9 494.69C276.9 497.95 279.97 500.34 283.13 499.54C286.65 498.65 289.72 497.88 292.93 497.07C298.08 495.77 303.45 495.62 308.66 496.63C311.91 497.25 317.46 498.33 321.64 499.13C323.21 499.44 324.59 498.07 324.31 496.5C323.74 493.29 322.3 485.26 320 472.41C317.06 459.65 315.22 451.67 314.48 448.48C313.99 446.36 317.02 445.4 317.85 447.41C319.26 450.84 319.39 451.16 321.83 457.09C321.83 457.09 327.4 472.23 327.4 472.23C327.68 473.11 328.4 475.31 329.54 478.82C332.23 491.35 333.91 499.19 334.58 502.32C334.84 503.52 336.25 504.05 337.24 503.32C340.61 500.81 342.42 499.46 344.25 498.11C350.48 493.47 358.45 491.82 366.02 493.58C369.13 494.31 372.95 495.2 377.67 496.3C379.38 496.7 380.87 495.08 380.32 493.41C379.59 491.2 377.78 485.66 374.87 476.8C370.4 467.48 367.6 461.65 366.49 459.32C363.77 453.65 360.61 448.2 357.05 443.01C357.05 443.01 357.05 443.01 357.05 443.01C354.88 436.7 353.53 432.75 352.98 431.17C351.75 427.57 351.41 423.72 352.01 419.95C352.25 418.43 352.48 417.01 352.82 414.84C353.09 413.18 353.7 411.59 354.62 410.18C355.34 409.09 356.08 407.95 356.8 406.86C357.72 405.45 358.78 404.13 359.95 402.92C358.77 404.13 358.77 404.13 359.95 402.92C363.04 399.75 365.95 400.61 366.84 396.32C367.02 395.44 366.76 391.21 366.84 390.31C366.85 390.15 366.86 389.64 366.86 388.78C366.85 385.57 366.41 382.38 365.55 379.29C364.71 376.28 363.19 370.78 362.27 367.49C361.74 365.56 359.97 364.25 357.97 364.31C349.84 364.54 341.31 364.78 336.3 364.93C323.65 365.29 310.99 364.69 298.44 363.14C294.67 362.67 292.15 362.36 285.86 361.58C282.14 361.12 278.56 363.18 277.1 366.63C276.48 368.09 277.59 365.46 277.1 366.63C275.04 371.47 273.89 376.66 273.7 381.92C273.6 384.65 273.35 391.46 272.96 402.36Z" id="amQiFZR0"></path><path d="M363.49 377.48C364.53 379.62 365.23 388.41 365.23 390.76C365.23 392.91 365.8 395.31 365.23 396.99C364.99 397.71 363.8 398.32 363.49 398.69C363.01 399.27 358.08 402.98 354.69 407.24C353.48 408.75 351.27 415.43 350.44 419.72C350.33 420.28 350.55 430.77 353.73 438.31C355.36 442.18 359.05 448 362.43 454.44C364.25 457.91 365.63 461.56 367.34 465.18C369.22 469.14 371.47 473.07 373.01 476.7C376.7 485.37 378.67 492.31 378.7 493.81C378.79 498.39 356.64 451.56 354.69 447.58C352.74 443.6 350.65 436.42 350.44 436.42C348.68 436.42 347.34 423.7 349.23 413.02C349.81 409.76 353.21 404.04 354.08 401.02C355.36 396.57 356.28 391.21 356.28 389.76C356.28 384.09 353.2 377.48 356.28 377.48C358.08 377.48 362.02 374.47 363.49 377.48Z" id="b70nyavhs"></path><path d="M306.3 424.09L318.25 448.75" id="fzImz598R"></path><path d="M280.74 362.91C282.12 362.09 283.71 361.71 285.31 361.81C289.7 362.11 300.68 362.85 318.25 364.03C339.78 363.42 353.24 363.04 358.63 362.89C360.38 362.84 361.95 363.96 362.47 365.63C362.67 366.29 363.19 367.94 364 370.57C364.26 371.76 364.42 372.51 364.48 372.81C364.91 374.81 363.3 376.66 361.26 376.5C355.6 376.06 341.45 374.97 318.81 373.23L318.54 373.23C296.2 373.23 282.24 373.23 276.66 373.23C275.29 373.23 274.27 371.98 274.55 370.64C274.75 369.72 274.22 372.24 274.27 372C275.06 368.2 277.41 364.9 280.74 362.91C281.17 362.66 279.7 363.54 280.74 362.91Z" id="asXkP50YV"></path><path d="M319.76 373.18C319.74 373.98 319.07 374.6 318.27 374.57C313.49 374.38 301.56 373.91 297.02 373.73C295.58 373.68 294.47 372.44 294.57 371C294.7 369.09 294.94 365.47 295.08 363.43C295.16 362.33 296.09 361.49 297.19 361.52C301.76 361.64 313.52 361.95 318.09 362.08C319.18 362.11 320.03 363.01 320 364.09C319.94 366.2 319.82 370.97 319.76 373.18Z" id="d3nXePsaug"></path><path d="M307.96 375.17L297.51 375.17C297.58 377.25 297.63 378.56 297.65 379.08C298.01 389.14 299.49 399.13 302.06 408.86C302.63 411 304.04 416.36 306.3 424.92L307.96 375.17Z" id="cbPTamQsV"></path><path d="M366.33 395.92C364.13 395.71 362.76 395.58 362.21 395.52C355.5 394.88 349.87 390.21 348.01 383.73C347.7 382.67 346.94 380.01 345.71 375.76" id="c1TxReXANc"></path><path d="" id="f48fdjYSCk"></path><path d="M286.86 372.67C286.58 373.82 286.41 374.54 286.35 374.83C284.83 381.27 280.8 386.85 275.16 390.32C274.86 390.5 274.13 390.95 272.96 391.67" id="a3abQnmOG"></path><path d="M351.1 375.76L364.55 375.76" id="b39mD9AJF"></path><path d="" id="b3lzZHF2J"></path><path d="M314.22 443.9C314.76 446.48 313.9 450.71 314.22 453.33C314.98 459.59 316.81 465.05 318.25 470.85C322.05 486.23 319.06 477.66 320 481.79C322.49 492.68 324.11 499.11 322.93 499.11C321.3 499.11 307.96 477.33 307.96 460.35C307.96 443.37 306.33 429.58 307.96 429.58C308.72 429.58 312.64 436.27 314.22 443.9Z" id="c1EiGcwDP1"></path><path d="" id="b16u8TCIbW"></path><path d="M277.92 564.64C286.66 564.53 300.99 564.25 312.79 564.35C319.5 564.4 327.9 563.91 331.48 564.68C332.8 564.96 331.31 565.73 331.92 566.31C332.64 567 325.99 569.65 321.48 573.28C316.6 577.2 314.29 586.13 314.29 586.99C314.29 588.08 313.46 596.54 316.15 603.19C318.4 608.74 324.36 612.68 323.39 613.34C320.87 615.08 309.78 613.51 297.69 613.34C278.37 613.08 254.94 613.34 248.06 613.34C233.24 613.34 232.21 592.8 232.21 584.66C232.21 579.86 238.6 571.1 249.08 566.91C256.35 564 266.98 564.68 273.06 564.68C274.35 564.68 276 564.67 277.92 564.64Z" id="ef5DSJXZR"></path><path d="M324.84 543.08C329.44 544.7 329.54 550.62 329.54 552.68C329.54 554.03 330.12 557.54 331.28 563.21C310.27 563.21 298.25 563.21 295.21 563.21C292.09 563.21 283.74 563.55 281.52 562.05C278.69 560.15 280.89 554.89 280.89 551.68C280.89 545.95 280.38 541.3 287.46 541.3C291.99 541.3 316.66 540.21 324.84 543.08Z" id="a258W1rsEb"></path><path d="" id="c1Lg1QtWth"></path><path d="M241.68 583.98C239.49 591.55 250.42 599.99 254.11 603.78C257.92 607.69 267.85 607.32 275.02 607.5C287.77 607.82 290.15 608.43 290.15 610.39C290.15 613.31 285.36 611.77 275.51 611.56C266.78 611.38 257.74 611.56 255.15 611.56C253.05 611.56 248.26 612.9 243.9 610.39C242.19 609.4 240.55 609.47 239.16 607.5C237.87 605.68 236.81 601.82 236.11 600.62C235.05 598.8 234.31 590.72 234.41 585.67C234.48 582.57 235.27 581.65 235.27 580.95C235.27 575.43 249.63 567.53 255.15 567.53C256.53 567.53 244.52 574.14 241.68 583.98Z" id="g1YHXOTSyB"></path><path d="" id="aCDCvuZ0h"></path><path d="M395.66 568.53C395.66 570.52 402.57 606.76 385.49 611.76C380.96 613.09 372.99 614.17 366.57 614.15C347.79 614.1 325.11 611.56 322.93 611.56C320.41 611.56 317.06 608.52 315.64 603.64C313.84 597.42 314.31 588.87 314.31 586.59C314.31 584.26 317.02 577.54 321.27 573.1C324.41 569.82 329.6 566.81 332.04 566.81C337.78 566.81 395.66 564.47 395.66 568.53Z" id="bEbUE3aes"></path><path d="M323.89 596.53C327.53 599.72 336.31 602.05 341.65 603.62C361.03 609.32 385.79 605.53 385.79 608.95C385.79 614.47 332.22 609.95 326.7 609.95C321.18 609.95 316.46 606.8 316.46 601.28C316.46 595.76 312.94 585.62 318.46 585.62C319.61 585.62 319.45 592.63 323.89 596.53Z" id="a3djZBjzrT"></path><path d="" id="c9HBCEu4Z"></path><path d="M394.32 564.24C394.32 569.76 351.95 566.14 346.43 566.14C340.91 566.14 345.15 552.8 345.15 547.28C345.15 541.76 382.58 544.95 388.1 544.95C393.62 544.95 394.32 558.73 394.32 564.24Z" id="c18R1B0BaF"></path></defs><g><g><use xlink:href="#amQiFZR0" opacity="1" fill="#2c1903" fill-opacity="1"></use><g><use xlink:href="#amQiFZR0" opacity="1" fill-opacity="0" stroke="#000000" stroke-width="3" stroke-opacity="1"></use></g></g><g><use xlink:href="#b70nyavhs" opacity="1" fill="#110a01" fill-opacity="1"></use></g><g><g><use xlink:href="#fzImz598R" opacity="1" fill-opacity="0" stroke="#000000" stroke-width="3" stroke-opacity="1"></use></g></g><g><use xlink:href="#asXkP50YV" opacity="1" fill="#141516" fill-opacity="1"></use><g><use xlink:href="#asXkP50YV" opacity="1" fill-opacity="0" stroke="#000000" stroke-width="2" stroke-opacity="1"></use></g></g><g><use xlink:href="#d3nXePsaug" opacity="1" fill="#9da0a1" fill-opacity="1"></use><g><use xlink:href="#d3nXePsaug" opacity="1" fill-opacity="0" stroke="#000000" stroke-width="2" stroke-opacity="1"></use></g></g><g><g><use xlink:href="#cbPTamQsV" opacity="1" fill-opacity="0" stroke="#000000" stroke-width="2" stroke-opacity="1"></use></g></g><g><g><use xlink:href="#c1TxReXANc" opacity="1" fill-opacity="0" stroke="#000000" stroke-width="2" stroke-opacity="1"></use></g></g><g><g><use xlink:href="#f48fdjYSCk" opacity="1" fill-opacity="0" stroke="#000000" stroke-width="2" stroke-opacity="1"></use></g></g><g><g><use xlink:href="#a3abQnmOG" opacity="1" fill-opacity="0" stroke="#000000" stroke-width="2" stroke-opacity="1"></use></g></g><g><g><use xlink:href="#b39mD9AJF" opacity="1" fill-opacity="0" stroke="#000000" stroke-width="2" stroke-opacity="1"></use></g></g><g><g><use xlink:href="#b3lzZHF2J" opacity="1" fill-opacity="0" stroke="#000000" stroke-width="2" stroke-opacity="1"></use></g></g><g><use xlink:href="#c1EiGcwDP1" opacity="1" fill="#110a01" fill-opacity="1"></use></g><g><g><use xlink:href="#b16u8TCIbW" opacity="1" fill-opacity="0" stroke="#000000" stroke-width="2" stroke-opacity="1"></use></g></g><g><use xlink:href="#ef5DSJXZR" opacity="1" fill="#1c1b1b" fill-opacity="1"></use><g><use xlink:href="#ef5DSJXZR" opacity="1" fill-opacity="0" stroke="#000000" stroke-width="3" stroke-opacity="1"></use></g></g><g><use xlink:href="#a258W1rsEb" opacity="1" fill="#dfdfdf" fill-opacity="1"></use><g><use xlink:href="#a258W1rsEb" opacity="1" fill-opacity="0" stroke="#000000" stroke-width="3" stroke-opacity="1"></use></g></g><g><g><use xlink:href="#c1Lg1QtWth" opacity="1" fill-opacity="0" stroke="#160b0b" stroke-width="3" stroke-opacity="1"></use></g></g><g><use xlink:href="#g1YHXOTSyB" opacity="1" fill="#3e3e3e" fill-opacity="1"></use></g><g><g><use xlink:href="#aCDCvuZ0h" opacity="1" fill-opacity="0" stroke="#160b0b" stroke-width="3" stroke-opacity="1"></use></g></g><g><use xlink:href="#bEbUE3aes" opacity="1" fill="#1c1b1b" fill-opacity="1"></use><g><use xlink:href="#bEbUE3aes" opacity="1" fill-opacity="0" stroke="#000000" stroke-width="3" stroke-opacity="1"></use></g></g><g><use xlink:href="#a3djZBjzrT" opacity="1" fill="#3e3e3e" fill-opacity="1"></use></g><g><g><use xlink:href="#c9HBCEu4Z" opacity="1" fill-opacity="0" stroke="#310707" stroke-width="3" stroke-opacity="1"></use></g></g><g><use xlink:href="#c18R1B0BaF" opacity="1" fill="#dfdfdf" fill-opacity="1"></use><g><use xlink:href="#c18R1B0BaF" opacity="1" fill-opacity="0" stroke="#000000" stroke-width="3" stroke-opacity="1"></use></g></g></g></svg>