<?xml version="1.0" encoding="UTF-8" standalone="no"?>
<!DOCTYPE svg PUBLIC "-//W3C//DTD SVG 1.1//EN" "http://www.w3.org/Graphics/SVG/1.1/DTD/svg11.dtd">
<svg version="1.1" xmlns="http://www.w3.org/2000/svg" xmlns:xlink="http://www.w3.org/1999/xlink" preserveAspectRatio="xMidYMid meet" viewBox="260.3501048461355 52.069883143794144 209.18144117783868 350.363492205599" width="204.68" height="345.86"><defs><path d="M296.27 272.61C284.16 294.76 276.59 308.6 273.56 314.14C273.56 314.14 268.11 324.79 268.11 324.79C267.42 326.22 268.6 323.76 268.07 324.86C265.81 329.58 264.09 334.54 262.92 339.64C262.58 341.16 262.87 339.87 262.42 341.84C261.62 345.38 261.66 349.05 262.56 352.57C262.84 353.68 263.54 356.45 264.67 360.9L269.12 389.17C268.65 379.89 268.36 374.09 268.24 371.78C267.85 364.14 268.47 356.49 270.08 349.02C270.16 348.64 270.36 347.69 270.69 346.18C271.17 348.73 271.48 350.32 271.6 350.96C272.45 355.43 274.6 359.55 277.78 362.81C277.97 363 278.45 363.49 279.22 364.28C277.32 360.2 276.14 357.64 275.67 356.62C274.34 353.76 273.65 350.63 273.65 347.47C273.65 346.65 273.65 348.67 273.65 347.78C273.65 344.84 273.92 341.91 274.46 339.02C274.72 337.67 274.12 340.83 274.24 340.2C275.23 334.95 277.23 329.95 280.14 325.47C282.43 321.94 286.98 314.94 289.79 310.61C290.99 308.77 291.99 306.8 292.78 304.74C292.99 304.18 292.54 305.36 292.78 304.74C293.48 302.9 294.34 301.11 295.33 299.41C299.18 292.79 306.63 280 309.82 274.51C313.01 269.04 315.66 263.28 317.75 257.31C319.14 253.33 320.9 248.28 322.48 243.78C323.95 239.55 324.7 235.11 324.7 230.64C324.7 229.79 324.7 232.9 324.7 231.78C324.7 229.51 322.14 228.2 320.3 229.51C319.69 229.95 319.62 230 318.35 230.9C317.63 231.42 317.05 232.09 316.64 232.88C313.93 238.17 307.14 251.42 296.27 272.61Z" id="d1KwZeiuDe"></path><path d="M399.98 197.93L403.53 200.43L408.03 211.31C409.26 218.48 410.03 222.97 410.34 224.76C415.28 253.62 427.52 281.1 443.8 305.41C443.93 305.61 447.48 311.07 454.44 321.8C462.33 333.96 466.53 348.15 466.53 362.65C466.53 363.89 466.53 366.98 466.53 371.93C466.14 369.03 465.9 367.21 465.8 366.49C464.5 356.85 462.24 347.37 459.03 338.18C459.03 338.18 459.03 338.18 459.03 338.18C459.21 341.16 459.32 343.02 459.37 343.77C460.39 360.75 457.54 377.74 451.03 393.47C450.71 394.26 449.88 396.25 448.57 399.43C450.75 386.18 452.11 377.89 452.65 374.58C454.57 362.92 453.84 350.98 450.53 339.65C450.27 338.75 449.61 336.51 448.57 332.93C448.11 336.57 447.83 338.84 447.71 339.75C446.3 351.02 442.41 361.84 436.32 371.43C436.32 371.43 436.32 371.43 436.32 371.43C439.26 357.66 441.1 349.06 441.84 345.62C442.58 342.17 442.89 338.65 442.78 335.14C442.68 332.35 442.84 336.98 442.81 336.12C442.49 326.38 439.26 316.97 433.55 309.08C430.56 304.94 423.06 294.58 411.07 278.01C402.25 263.29 397.9 252.78 398.02 246.48C398.09 242.66 395.78 237.4 395.27 227.69C394.93 221.35 395.16 213.25 395.97 203.39L399.98 197.93Z" id="b4zSDZU6qb"></path><path d="M301.05 208.87L298.68 258.12C298.68 255.54 298.68 253.92 298.68 253.28C298.68 247.01 298.05 240.76 296.8 234.62C296.8 234.62 296.8 234.62 296.8 234.62C295.06 240.19 293.98 243.66 293.55 245.05C292.33 248.95 291.5 252.95 291.07 257.01C290.9 258.59 290.48 262.54 289.8 268.87C288.88 265.4 288.3 263.22 288.07 262.35C286.49 256.38 286.48 250.09 288.03 244.11C288.13 243.71 288.39 242.72 288.81 241.12L284.99 253.24L282.55 265.87C281.61 260.61 282.1 253.98 284.01 245.98C285.16 241.18 287.69 238.13 290.51 231.35C290.78 230.71 290.99 230.08 291.14 229.47C293.04 221.81 293.42 213.86 292.28 206.06C291.64 201.76 290.07 191.04 287.55 173.87L299.43 196.62L301.05 208.87Z" id="b140nZqVQZ"></path><path d="M384.34 159.93L383.95 194.93C383.26 197.97 382.83 199.86 382.66 200.62C377.96 221.28 376.76 242.57 379.13 263.62C379.13 263.62 379.13 263.62 379.13 263.62C379.13 263.62 379.13 263.62 379.13 263.62C375.42 253.62 374.49 242.8 376.41 232.31C376.48 231.93 376.65 230.97 376.93 229.44C375.8 232.9 375.09 235.07 374.81 235.93C370.08 250.36 370.84 266.03 376.93 279.93C376.93 279.93 376.93 279.93 376.93 279.93C376.73 279.73 376.6 279.6 376.55 279.54C368.5 271.44 364.9 259.94 366.89 248.7C366.97 248.26 367.16 247.17 367.47 245.43C367.02 246.72 366.74 247.53 366.63 247.85C364.24 254.77 363.29 262.1 363.85 269.4C363.94 270.47 364.14 273.15 364.47 277.43C363.59 275 363.04 273.49 362.82 272.88C360.62 266.81 359.99 260.28 360.98 253.9C361.38 251.28 360.68 255.84 360.98 253.9C362.32 245.21 364.59 236.69 367.75 228.48C369.45 224.06 366.8 230.95 367.75 228.48C373.37 213.88 376.16 198.34 375.97 182.7C375.91 178.29 375.77 167.25 375.56 149.59L384.34 159.93Z" id="aiD4axeo3"></path><path d="M299.43 202.81C298.48 194.84 297.88 189.86 297.65 187.87C296.83 181.09 295.32 174.42 293.1 167.97C292.5 166.22 291 161.82 288.59 154.8" id="a1o98Vk17D"></path><path d="M351.35 53.59L351.98 53.62L352.6 53.66L353.21 53.71L353.83 53.77L354.45 53.84L355.06 53.93L355.67 54.02L356.28 54.12L356.89 54.24L357.49 54.36L358.09 54.5L358.69 54.65L359.29 54.81L359.88 54.97L360.47 55.15L361.05 55.34L361.64 55.54L362.21 55.75L362.79 55.97L363.36 56.2L363.93 56.44L364.49 56.69L365.05 56.95L365.6 57.22L366.15 57.5L366.69 57.79L367.23 58.09L367.77 58.4L368.3 58.72L368.82 59.05L369.34 59.39L369.85 59.73L370.36 60.09L370.86 60.46L371.35 60.83L371.84 61.22L372.33 61.61L372.8 62.02L380.8 68.93L381.33 69.4L381.86 69.87L382.38 70.34L382.9 70.82L383.41 71.31L383.92 71.8L384.42 72.3L384.92 72.8L385.41 73.31L385.89 73.82L386.37 74.33L386.85 74.85L387.32 75.38L387.78 75.91L388.24 76.45L388.69 76.99L389.14 77.53L389.58 78.08L390.02 78.63L390.45 79.19L390.87 79.75L391.29 80.32L391.7 80.89L392.11 81.46L392.51 82.04L392.9 82.63L393.29 83.21L393.67 83.81L394.05 84.4L394.42 85L394.78 85.61L395.14 86.21L395.49 86.82L395.84 87.44L396.18 88.06L396.51 88.68L396.84 89.31L397.16 89.94L397.47 90.57L397.78 91.21L397.91 91.49L398.04 91.76L398.17 92.02L398.29 92.28L398.41 92.53L398.53 92.78L398.64 93.02L398.76 93.26L398.86 93.49L398.97 93.71L399.07 93.93L399.18 94.14L399.27 94.35L399.37 94.55L399.46 94.74L399.55 94.93L399.64 95.11L399.72 95.29L399.8 95.46L399.88 95.62L399.95 95.78L400.03 95.93L400.1 96.08L400.16 96.22L400.23 96.36L400.29 96.48L400.34 96.61L400.4 96.72L400.45 96.84L400.5 96.94L400.55 97.04L400.59 97.13L400.63 97.22L400.67 97.3L400.71 97.38L400.74 97.45L400.77 97.51L400.8 97.57L400.82 97.62L400.84 97.67L401.32 98.73L401.79 99.8L402.24 100.87L402.67 101.94L403.1 103.02L403.51 104.1L403.91 105.18L404.3 106.27L404.67 107.37L405.03 108.46L405.38 109.56L405.72 110.66L406.04 111.77L406.36 112.88L406.66 113.99L406.94 115.11L407.22 116.22L407.49 117.35L407.74 118.47L407.98 119.6L408.21 120.73L408.43 121.86L408.64 122.99L408.84 124.13L409.03 125.27L409.21 126.41L409.37 127.55L409.53 128.69L409.67 129.84L409.81 130.99L409.93 132.14L410.05 133.29L410.15 134.45L410.25 135.6L410.34 136.76L410.41 137.92L410.48 139.08L410.54 140.24L410.59 141.4L410.63 142.56L410.63 142.66L410.63 142.78L410.63 142.93L410.63 143.11L410.64 143.3L410.64 143.51L410.64 143.74L410.64 143.99L410.64 144.25L410.64 144.53L410.64 144.82L410.64 145.12L410.64 145.44L410.64 145.76L410.64 146.09L410.64 146.43L410.64 146.77L410.64 147.12L410.64 147.47L410.64 147.82L410.64 148.17L410.64 148.52L410.64 148.86L410.64 149.21L410.64 149.54L410.63 149.87L410.63 150.2L410.63 150.51L410.63 150.81L410.63 151.11L410.63 151.65L410.63 151.9L410.63 152.13L410.63 152.34L410.63 152.53L410.63 152.7L410.63 152.85L410.63 152.98L410.63 153.08L410.63 153.25L410.63 153.44L410.64 153.62L410.65 153.81L410.66 154L410.68 154.2L410.7 154.4L410.72 154.61L410.75 154.82L410.78 155.03L410.81 155.25L410.84 155.48L410.88 155.7L410.92 155.94L410.96 156.17L411.01 156.41L411.06 156.66L411.11 156.91L411.17 157.16L411.23 157.42L411.29 157.68L411.35 157.95L411.42 158.22L411.49 158.49L411.56 158.77L411.64 159.05L411.72 159.34L411.8 159.63L411.89 159.93L411.98 160.23L412.07 160.53L412.16 160.84L412.26 161.16L412.36 161.47L412.46 161.8L412.57 162.12L412.68 162.45L412.79 162.79L412.91 163.13L413.03 163.47L412.59 167.75L412.49 168.65L412.38 169.54L412.25 170.43L412.11 171.32L411.96 172.2L411.8 173.08L411.62 173.96L411.43 174.83L411.23 175.7L411.01 176.57L410.78 177.43L410.54 178.29L410.28 179.14L410.02 179.99L409.74 180.83L409.44 181.68L409.14 182.51L408.82 183.34L408.49 184.17L408.15 184.99L407.8 185.81L407.43 186.62L407.05 187.42L406.66 188.22L406.26 189.01L405.85 189.8L405.42 190.58L404.98 191.36L404.53 192.13L404.07 192.89L403.6 193.65L403.12 194.4L402.62 195.14L402.11 195.87L401.6 196.6L401.07 197.32L400.53 198.03L399.97 198.74L399.41 199.44L398.84 200.13L398.81 200.16L398.79 200.19L398.76 200.21L398.74 200.24L398.72 200.27L398.69 200.3L398.67 200.33L398.64 200.36L398.62 200.38L398.59 200.41L398.57 200.44L398.55 200.47L398.52 200.5L398.5 200.53L398.47 200.56L398.45 200.58L398.42 200.61L398.4 200.64L398.38 200.67L398.35 200.7L398.33 200.73L398.3 200.75L398.28 200.78L398.25 200.81L398.23 200.84L398.2 200.87L398.15 200.92L398.13 200.95L398.1 200.98L398.08 201.01L398.05 201.04L398.03 201.06L398.01 201.09L397.98 201.12L397.96 201.15L397.93 201.18L397.88 201.23L397.86 201.26L397.4 201.77L397.15 202.05L396.89 202.31L396.62 202.56L396.35 202.79L396.07 203.02L395.78 203.24L395.48 203.44L395.18 203.63L394.88 203.81L394.56 203.98L394.25 204.13L393.93 204.28L393.6 204.41L393.27 204.53L392.94 204.64L392.6 204.74L392.26 204.82L391.92 204.89L391.58 204.95L391.23 205L391.18 205.01L391.05 205.16L384.87 205.76L382.04 203.36L384.4 193.21L384.45 192.53L385.26 178.75L379.37 140.09L379.37 170.79L375.7 141.42L373.04 169.82L368.7 137.41L370.04 162.39L357.14 120.71L359.37 156.25L342.37 114.7L353.7 154.41L353.7 154.4L353.41 154.14L353.12 153.87L352.84 153.6L352.56 153.33L352.29 153.06L352.02 152.78L351.75 152.49L351.49 152.21L351.23 151.92L350.97 151.63L350.72 151.34L350.47 151.04L350.22 150.74L349.98 150.44L349.74 150.13L349.5 149.83L349.27 149.51L349.04 149.2L348.82 148.88L348.6 148.56L348.39 148.24L348.17 147.92L347.97 147.59L347.76 147.26L347.56 146.93L347.37 146.6L347.17 146.26L346.98 145.92L346.8 145.58L346.62 145.24L346.44 144.89L346.27 144.54L346.11 144.19L345.94 143.84L345.78 143.48L345.63 143.13L345.48 142.77L345.33 142.41L345.19 142.04L345.05 141.68L331.7 105.68L331.7 122.33L331.71 123.28L331.72 124.23L331.73 125.18L331.76 126.13L331.79 127.08L331.82 128.02L331.87 128.97L331.92 129.92L331.98 130.86L332.04 131.81L332.11 132.76L332.19 133.7L332.27 134.65L332.36 135.59L332.46 136.53L332.56 137.47L332.67 138.41L332.79 139.36L332.91 140.29L333.04 141.23L333.18 142.17L333.32 143.11L333.47 144.04L333.63 144.98L333.79 145.91L333.96 146.84L334.14 147.77L334.32 148.7L334.51 149.63L334.71 150.56L334.91 151.49L335.12 152.41L335.33 153.34L335.56 154.26L335.78 155.18L336.02 156.1L336.26 157.02L336.51 157.93L336.77 158.85L337.03 159.76L337.04 159.8L322.37 130.07L335.37 166.01L335.37 166.01L334.64 165.73L333.92 165.44L333.21 165.15L332.5 164.84L331.8 164.52L331.1 164.19L330.41 163.86L329.72 163.51L329.04 163.15L328.36 162.79L327.69 162.41L327.03 162.03L326.37 161.63L325.72 161.23L325.07 160.81L324.43 160.39L323.8 159.96L323.17 159.52L322.55 159.07L321.93 158.61L321.33 158.14L320.73 157.66L320.13 157.17L319.55 156.68L318.97 156.18L318.39 155.67L317.83 155.15L317.27 154.62L316.72 154.08L316.18 153.53L315.65 152.98L315.12 152.42L314.6 151.85L314.09 151.27L313.59 150.69L313.1 150.1L312.61 149.5L312.13 148.89L311.66 148.27L311.2 147.65L305.7 140.09L318.37 167.98L313.22 163.84L313.02 163.67L312.81 163.5L312.6 163.33L312.4 163.15L312.19 162.98L311.99 162.81L311.79 162.63L311.59 162.45L311.39 162.28L311.19 162.1L310.99 161.92L310.79 161.74L310.6 161.56L310.4 161.37L310.21 161.19L310.01 161L309.82 160.82L309.63 160.63L309.44 160.44L309.25 160.25L309.06 160.06L308.88 159.87L308.69 159.68L308.51 159.48L308.32 159.29L308.14 159.09L307.96 158.9L307.78 158.7L307.6 158.5L307.42 158.3L307.27 158.12L307.26 158.11L307.1 157.89L306.94 157.67L306.79 157.45L306.63 157.23L306.48 157.01L306.33 156.79L306.18 156.57L306.03 156.35L305.88 156.13L305.73 155.91L305.58 155.68L305.43 155.46L305.29 155.24L305.14 155.01L305 154.78L304.85 154.56L304.71 154.33L304.57 154.1L304.43 153.88L304.29 153.65L304.15 153.42L304.01 153.19L303.87 152.96L303.74 152.73L303.6 152.5L303.47 152.27L303.33 152.03L303.2 151.8L303.07 151.57L294.53 136.41L299.04 163.47L291.33 142.76L294.53 168.46L301.57 197.54L287.37 163.47L297.7 197.54L287.37 182.84L281.7 163.47L282.7 192.53L279.7 175.06L279.64 174.68L279.57 174.29L279.51 173.9L279.45 173.52L279.4 173.13L279.34 172.74L279.29 172.35L279.24 171.96L279.19 171.58L279.14 171.19L279.1 170.8L279.06 170.41L279.02 170.02L278.98 169.63L278.94 169.24L278.91 168.85L278.88 168.46L278.85 168.07L278.82 167.68L278.79 167.29L278.77 166.9L278.75 166.5L278.73 166.11L278.71 165.72L278.7 165.33L278.68 164.94L278.67 164.55L278.66 164.16L278.66 163.76L278.65 163.37L278.65 162.98L278.65 162.59L278.65 162.2L278.65 161.81L278.66 161.41L278.67 161.02L278.68 160.63L278.69 160.24L278.7 159.85L278.72 159.46L279.7 137.41L284.15 105.13L284.19 104.81L284.24 104.49L284.29 104.17L284.34 103.85L284.4 103.53L284.45 103.21L284.51 102.89L284.57 102.57L284.63 102.25L284.7 101.94L284.77 101.62L284.83 101.3L284.91 100.98L284.98 100.67L285.06 100.35L285.13 100.04L285.21 99.72L285.29 99.41L285.38 99.1L285.47 98.79L285.55 98.47L285.64 98.16L285.74 97.85L285.83 97.54L285.93 97.23L286.03 96.92L286.13 96.61L286.23 96.31L286.34 96L286.44 95.69L286.55 95.39L286.66 95.08L286.78 94.78L286.89 94.48L287.01 94.17L287.13 93.87L287.25 93.57L287.38 93.27L287.5 92.97L287.63 92.67L287.64 92.65L287.81 92.26L287.99 91.87L288.17 91.48L288.36 91.1L288.56 90.72L288.76 90.35L288.96 89.97L289.17 89.6L289.38 89.24L289.6 88.88L289.83 88.52L290.06 88.16L290.29 87.81L290.53 87.46L290.78 87.11L291.03 86.77L291.28 86.43L291.54 86.09L291.8 85.76L292.07 85.44L292.34 85.11L292.62 84.79L292.9 84.48L293.19 84.16L293.48 83.86L293.77 83.55L294.07 83.25L294.38 82.96L294.69 82.67L295 82.38L295.32 82.1L295.64 81.82L295.96 81.54L296.29 81.28L296.62 81.01L296.96 80.75L297.3 80.49L297.65 80.24L298 80L298.35 79.76L299.04 79.29L306.95 68.95L307.1 68.76L307.26 68.57L307.41 68.39L307.58 68.2L307.74 68.02L307.9 67.85L308.07 67.67L308.25 67.5L308.42 67.34L308.6 67.17L308.78 67.01L308.97 66.86L309.15 66.7L309.34 66.55L309.53 66.41L309.73 66.27L309.93 66.13L310.12 65.99L310.33 65.86L310.53 65.73L310.74 65.61L310.95 65.49L311.16 65.37L311.37 65.26L311.59 65.15L311.8 65.05L312.02 64.95L312.24 64.85L312.47 64.76L312.69 64.67L312.92 64.59L313.15 64.51L313.38 64.43L313.61 64.36L313.84 64.29L314.08 64.23L314.31 64.17L314.55 64.11L314.79 64.06L315.03 64.02L317.37 63.59L325.39 59.5L325.97 59.21L326.55 58.93L327.13 58.66L327.71 58.39L328.3 58.13L328.89 57.87L329.48 57.63L330.08 57.39L330.68 57.16L331.28 56.93L331.88 56.71L332.48 56.5L333.09 56.3L333.7 56.1L334.31 55.91L334.92 55.73L335.54 55.55L336.16 55.39L336.78 55.23L337.4 55.07L338.02 54.93L338.65 54.79L339.27 54.66L339.9 54.54L340.53 54.42L341.16 54.31L341.79 54.21L342.43 54.11L343.06 54.03L343.7 53.95L344.33 53.88L344.97 53.81L345.61 53.76L346.25 53.71L346.89 53.66L347.53 53.63L348.17 53.6L348.82 53.59L349.46 53.57L350.11 53.57L350.73 53.58L351.35 53.59ZM395.84 149.7L396.14 149.67L396.45 149.65L396.75 149.63L397.05 149.63L397.18 149.63L396.9 149.72L396.57 149.84L396.24 149.96L395.92 150.1L395.6 150.24L395.29 150.39L394.98 150.56L394.68 150.73L394.38 150.9L394.09 151.09L393.8 151.29L393.52 151.49L393.24 151.7L392.97 151.92L392.71 152.15L392.45 152.38L392.2 152.62L391.96 152.87L391.72 153.13L391.49 153.39L391.26 153.67L391.05 153.94L390.84 154.23L390.64 154.52L390.63 154.53L390.59 154.59L390.55 154.66L390.51 154.73L390.47 154.79L390.43 154.86L390.4 154.93L390.36 155L390.33 155.07L390.3 155.13L390.26 155.21L390.23 155.28L390.21 155.35L390.18 155.42L390.15 155.49L390.13 155.56L390.1 155.64L390.08 155.71L390.06 155.78L390.04 155.86L390.02 155.93L390 156.01L389.98 156.08L389.97 156.16L389.95 156.23L389.94 156.31L389.93 156.39L389.92 156.46L389.91 156.54L389.9 156.62L388.15 177.02L384.4 193.21L383.77 201.89L383.77 201.93L383.77 201.97L383.77 202.01L383.77 202.06L383.77 202.1L383.78 202.14L383.78 202.18L383.79 202.22L383.79 202.26L383.8 202.31L383.81 202.35L383.82 202.39L383.83 202.43L383.84 202.47L383.85 202.51L383.87 202.55L383.88 202.58L383.9 202.62L383.91 202.66L383.93 202.7L383.95 202.74L383.97 202.77L383.99 202.81L384.01 202.84L384.03 202.88L384.05 202.91L384.08 202.95L384.1 202.98L384.13 203.01L384.15 203.05L384.18 203.08L384.21 203.11L384.24 203.14L384.27 203.17L384.3 203.2L384.33 203.22L384.36 203.25L384.4 203.28L384.43 203.3L384.47 203.33L384.47 203.33L384.78 203.54L385.1 203.73L385.41 203.91L385.74 204.07L386.07 204.23L386.4 204.37L386.73 204.49L387.07 204.61L387.41 204.71L387.75 204.8L388.1 204.88L388.44 204.94L388.79 204.99L389.14 205.03L389.49 205.06L389.84 205.07L390.19 205.07L390.54 205.06L390.88 205.04L391.18 205.01L397.26 197.71L397.99 196.82L398.69 195.91L399.38 194.99L400.04 194.05L400.68 193.1L401.29 192.14L401.88 191.17L402.46 190.18L403 189.18L403.53 188.17L404.03 187.15L404.51 186.12L404.96 185.08L405.39 184.03L405.8 182.97L406.18 181.9L406.54 180.82L406.88 179.73L407.19 178.64L407.47 177.54L407.73 176.43L407.97 175.31L408.18 174.19L408.36 173.06L408.52 171.93L408.66 170.79L408.77 169.65L408.83 168.73L408.83 168.64L408.83 168.49L408.82 168.34L408.82 168.19L408.81 168.04L408.8 167.89L408.79 167.75L408.78 167.6L408.77 167.45L408.75 167.3L408.74 167.15L408.72 167L408.7 166.85L408.68 166.7L408.66 166.56L408.64 166.41L408.61 166.26L408.59 166.11L408.56 165.97L408.53 165.82L408.5 165.67L408.47 165.53L408.44 165.38L408.41 165.23L406.36 156.5L406.31 156.32L406.27 156.15L406.22 155.97L406.16 155.8L406.1 155.63L406.04 155.46L405.98 155.3L405.91 155.13L405.83 154.97L405.76 154.8L405.68 154.64L405.6 154.48L405.51 154.33L405.42 154.17L405.33 154.02L405.23 153.87L405.13 153.72L405.03 153.57L404.93 153.43L404.82 153.28L404.71 153.14L404.59 153L404.47 152.87L404.35 152.74L404.23 152.6L404.1 152.48L403.97 152.35L403.84 152.23L403.7 152.11L403.47 151.91L403.23 151.72L402.98 151.54L402.73 151.36L402.48 151.2L402.22 151.04L401.96 150.89L401.69 150.75L401.42 150.61L401.15 150.49L400.87 150.37L400.59 150.26L400.31 150.16L400.02 150.07L399.73 149.99L399.44 149.91L399.15 149.85L398.85 149.79L398.56 149.74L398.26 149.7L397.96 149.67L397.66 149.65L397.36 149.63L397.18 149.63L397.23 149.61L397.57 149.52L397.91 149.43L398.25 149.35L398.6 149.28L398.95 149.22L395.53 149.75L395.84 149.7ZM408.83 168.73L408.83 168.79L408.83 168.94L408.83 169.09L408.83 169.24L408.83 169.39L408.82 169.54L408.91 167.36L408.85 168.51L408.83 168.73ZM306.04 156.66L306.21 156.87L306.38 157.08L306.55 157.29L306.72 157.49L306.9 157.69L307.07 157.9L307.25 158.1L307.27 158.12L307.41 158.32L307.57 158.54L307.73 158.76L307.89 158.97L308.05 159.19L308.21 159.4L308.38 159.61L308.54 159.82L308.7 160.04L308.87 160.25L309.03 160.46L305.7 156.25L305.87 156.46L306.04 156.66Z" id="d1oJkKLXG1"></path><path d="M320 131C320 133.79 319.61 130.9 321.74 135.3C323.23 138.37 325.03 144.34 326.7 147.92C330.61 156.27 334.02 163 332.53 163C329.49 163 311.2 150.12 311.2 140.83C311.2 131.54 314.16 110.67 317.2 110.67C320.23 110.67 320 121.71 320 131Z" id="cs8vsi8Il"></path><path d="M299.28 100.08C299.28 103.2 295.66 120.25 295.37 127.82C295.14 133.65 298.68 135.41 296.28 135.41C290.76 135.41 291.62 109.93 291.62 104.41C291.62 98.89 299.43 78.75 304.95 78.75C310.47 78.75 299.28 94.56 299.28 100.08Z" id="aGPSCqSxG"></path><path d="M383.33 106.41C383.33 111.93 381.51 138.41 376 138.41C372.85 138.41 373.93 127.64 372.01 117.36C370.55 109.6 365.66 102.12 365.66 99.75C365.66 94.23 345.14 73.75 350.66 73.75C356.18 73.75 383.33 100.89 383.33 106.41Z" id="bdO0szOOr"></path><path d="M345.84 88.08C345.84 90.76 344.34 87.46 346.64 95.72C349.07 104.49 355.23 125.41 352.39 125.41C349.18 125.41 343.03 95.83 334.6 86.42C328.5 79.61 318.6 78.4 318.6 76.08C318.6 70.56 317.74 71.41 323.26 71.41C328.78 71.41 345.84 82.56 345.84 88.08Z" id="a25DbGHjte"></path><path d="M305.76 275.38C305.76 276.84 305.45 275.2 302.76 280.34C297.87 289.67 291.77 301.28 289.05 301.28C284.83 301.28 309.68 263.11 310.7 259.52C311.72 255.92 313.61 247.9 317.83 247.9C322.05 247.9 305.76 271.29 305.76 275.38Z" id="ggSEggMX6"></path><path d="M271.88 332.02C271.88 334.59 271.1 332.32 269.09 340.17C268 344.46 266.81 352.32 266.81 357.54C266.81 360.61 268.36 361.32 267.53 361.32C262.73 361.32 268.11 339.73 268.11 334.93C268.11 330.12 275.2 314.91 280.01 314.91C284.81 314.91 271.88 327.22 271.88 332.02Z" id="cbZA3rBLg"></path><path d="M412.36 253.08C412.36 258.6 448.21 316.41 442.69 316.41C439.8 316.41 436.1 300.43 426.59 285.72C417.99 272.4 408.69 255.03 408.69 252.41C408.69 246.89 400.17 228.75 405.69 228.75C411.21 228.75 412.36 247.56 412.36 253.08Z" id="assQRUmlr"></path></defs><g><g><use xlink:href="#d1KwZeiuDe" opacity="1" fill="#f7cd70" fill-opacity="1"></use><g><use xlink:href="#d1KwZeiuDe" opacity="1" fill-opacity="0" stroke="#000000" stroke-width="3" stroke-opacity="1"></use></g></g><g><use xlink:href="#b4zSDZU6qb" opacity="1" fill="#f7cd70" fill-opacity="1"></use><g><use xlink:href="#b4zSDZU6qb" opacity="1" fill-opacity="0" stroke="#000000" stroke-width="3" stroke-opacity="1"></use></g></g><g><use xlink:href="#b140nZqVQZ" opacity="1" fill="#e0b74a" fill-opacity="1"></use><g><use xlink:href="#b140nZqVQZ" opacity="1" fill-opacity="0" stroke="#000000" stroke-width="3" stroke-opacity="1"></use></g></g><g><use xlink:href="#aiD4axeo3" opacity="1" fill="#e0b74a" fill-opacity="1"></use><g><use xlink:href="#aiD4axeo3" opacity="1" fill-opacity="0" stroke="#000000" stroke-width="3" stroke-opacity="1"></use></g></g><g><use xlink:href="#a1o98Vk17D" opacity="1" fill="#000000" fill-opacity="0"></use><g><use xlink:href="#a1o98Vk17D" opacity="1" fill-opacity="0" stroke="#0a1216" stroke-width="3" stroke-opacity="1"></use></g></g><g><use xlink:href="#d1oJkKLXG1" opacity="1" fill="#f7cd70" fill-opacity="1"></use><g><use xlink:href="#d1oJkKLXG1" opacity="1" fill-opacity="0" stroke="#000000" stroke-width="3" stroke-opacity="1"></use></g></g><g><use xlink:href="#cs8vsi8Il" opacity="1" fill="#e0b74a" fill-opacity="1"></use></g><g><use xlink:href="#aGPSCqSxG" opacity="1" fill="#e0b74a" fill-opacity="1"></use></g><g><use xlink:href="#bdO0szOOr" opacity="1" fill="#e0b74a" fill-opacity="1"></use></g><g><use xlink:href="#a25DbGHjte" opacity="1" fill="#e0b74a" fill-opacity="1"></use></g><g><use xlink:href="#ggSEggMX6" opacity="1" fill="#e0b74a" fill-opacity="1"></use></g><g><use xlink:href="#cbZA3rBLg" opacity="1" fill="#e0b74a" fill-opacity="1"></use></g><g><use xlink:href="#assQRUmlr" opacity="1" fill="#e0b74a" fill-opacity="1"></use></g></g></svg>