<?xml version="1.0" encoding="UTF-8" standalone="no"?>
<!DOCTYPE svg PUBLIC "-//W3C//DTD SVG 1.1//EN" "http://www.w3.org/Graphics/SVG/1.1/DTD/svg11.dtd">
<svg version="1.1" xmlns="http://www.w3.org/2000/svg" xmlns:xlink="http://www.w3.org/1999/xlink" preserveAspectRatio="xMidYMid meet" viewBox="270.2134481835107 220.98885544803318 123.77451456391901 171.59650475972887" width="119.27" height="167.1"><defs><path d="M303.38 224.83C303.38 224.83 303.38 224.83 303.38 224.83C297.47 227.63 292.36 231.85 288.5 237.12C286.21 240.25 285.07 241.8 282.74 244.98C278.99 250.1 276.4 255.98 275.15 262.21C274.69 264.49 273.55 270.2 271.71 279.33L284.71 285.42L295.05 251.14C292.24 260.31 290.48 266.04 289.78 268.33C289.78 268.33 283.62 293.28 283.62 293.28C283.23 295.32 284.1 290.75 283.62 293.28C282.34 300.05 281.69 306.91 281.69 313.79C281.69 316.65 281.69 315.18 281.69 318.11C281.69 318.11 280.46 337.94 280.46 337.94C279.22 347.82 276.18 372.09 274.8 383.1C274.52 385.3 276.31 387.21 278.52 387.08C285.72 386.65 295.06 386.1 300.25 385.8C309.73 385.24 319.24 385.42 328.7 386.34C336.03 387.05 352.55 388.65 362.06 389.57C363.79 389.74 365.24 388.3 365.09 386.57C364.68 381.97 363.67 370.48 362.05 352.09L363.47 325.34L365.38 310.39L365.38 298.76C364.17 293.91 363.41 290.88 363.11 289.67C362.45 287.05 363.26 284.27 365.23 282.41C367.21 280.53 364.26 283.33 364.81 282.8C371.42 276.55 380.28 273.24 389.37 273.64C389.91 273.66 386.44 273.51 389.26 273.63C390.51 273.69 391.37 272.38 390.82 271.25C387.2 263.89 381.3 251.9 378.62 246.43C374.8 238.67 368.41 232.46 360.54 228.86C357.43 227.44 352.98 225.4 348.04 223.15C346.11 222.26 343.89 222.27 341.97 223.16C338.73 224.67 330.65 228.42 317.71 234.42L309.71 223.83L303.38 224.83Z" id="d77AM9wN"></path><path d="M355.54 262.25C356.2 264.55 358.2 267.75 358.2 272.04C358.2 277.19 363.36 286.97 361.38 286.18C359.66 285.49 352.6 282.24 352.6 276.98C352.6 272.24 349.96 272.67 351.1 269.58C352.66 265.32 350.98 257.08 352.6 257.08C354.34 257.08 354.47 258.49 355.54 262.25Z" id="e4khqr1Ui"></path><path d="M353.53 257.08L362.87 284.75" id="c1GdeskMS"></path><path d="M370.72 237.57C382.24 250.01 388.89 267.82 388.89 270.91C388.89 272.26 386.04 271.47 384.05 267.99C381 262.66 377.56 252.37 370.72 244.37C363.8 236.27 349.84 228.16 347.74 228.16C342.22 228.16 332.15 236.67 332.15 231.16C332.15 228.23 335.69 228.64 337.96 227.16C339.97 225.85 343.89 223.55 346.49 223.55C348.92 223.55 361.67 227.8 370.72 237.57Z" id="al90JghO7"></path></defs><g><g><use xlink:href="#d77AM9wN" opacity="1" fill="#fb03b6" fill-opacity="1"></use><g><use xlink:href="#d77AM9wN" opacity="1" fill-opacity="0" stroke="#000000" stroke-width="3" stroke-opacity="1"></use></g></g><g><use xlink:href="#e4khqr1Ui" opacity="1" fill="#ac1181" fill-opacity="1"></use></g><g><g><use xlink:href="#c1GdeskMS" opacity="1" fill-opacity="0" stroke="#000000" stroke-width="3" stroke-opacity="1"></use></g></g><g><use xlink:href="#al90JghO7" opacity="1" fill="#ac1181" fill-opacity="1"></use></g></g></svg>