<?xml version="1.0" encoding="UTF-8" standalone="no"?>
<!DOCTYPE svg PUBLIC "-//W3C//DTD SVG 1.1//EN" "http://www.w3.org/Graphics/SVG/1.1/DTD/svg11.dtd">
<svg version="1.1" xmlns="http://www.w3.org/2000/svg" xmlns:xlink="http://www.w3.org/1999/xlink" preserveAspectRatio="xMidYMid meet" viewBox="0 0 191 573" width="191" height="573"><defs><path d="M69.59 184.19C63.91 186.87 58.99 190.94 55.28 196.01C53.08 199.02 51.98 200.51 49.75 203.56C46.14 208.49 43.65 214.14 42.45 220.13C42.01 222.32 40.91 227.81 39.15 236.59C39.98 236.98 44.15 238.93 51.65 242.44C57.61 222.67 60.92 211.68 61.58 209.49C58.88 218.3 57.19 223.81 56.51 226.01C56.51 226.01 50.59 250 50.59 250C50.22 251.96 51.05 247.57 50.59 250C49.36 256.51 48.74 263.11 48.74 269.72C48.74 272.47 48.74 271.06 48.74 273.87C48.74 273.87 47.55 292.94 47.55 292.94C46.36 302.44 43.44 325.77 42.11 336.36C41.85 338.47 43.56 340.31 45.7 340.18C52.61 339.77 61.59 339.24 66.59 338.95C75.7 338.41 84.84 338.59 93.93 339.47C100.99 340.15 116.86 341.69 126 342.58C127.67 342.74 129.06 341.36 128.92 339.69C128.53 335.27 127.55 324.22 125.99 306.54C126.09 304.83 126.54 296.26 127.37 280.82L129.2 266.45C129.2 259.74 129.2 256.01 129.2 255.26C128.03 250.61 127.31 247.69 127.01 246.53C126.39 244 127.17 241.34 129.05 239.55C130.95 237.74 128.12 240.44 128.65 239.93C135 233.92 143.52 230.73 152.26 231.12C152.78 231.14 149.44 230.99 152.15 231.11C153.37 231.17 154.18 229.91 153.65 228.82C150.17 221.74 144.51 210.22 141.92 204.96C138.25 197.49 132.12 191.53 124.54 188.07C121.56 186.7 117.27 184.74 112.53 182.58C110.68 181.72 108.54 181.73 106.69 182.59C103.58 184.03 95.81 187.64 83.37 193.41C82.86 192.73 80.3 189.34 75.68 183.23L69.59 184.19C69.59 184.19 69.59 184.19 69.59 184.19Z" id="e1onVi39eX"></path><path d="M69.59 184.19C63.91 186.87 58.99 190.94 55.28 196.01C53.08 199.02 51.98 200.51 49.75 203.56C46.14 208.49 43.65 214.14 42.45 220.13C42.01 222.32 40.91 227.81 39.15 236.59C39.98 236.98 44.15 238.93 51.65 242.44C57.61 222.67 60.92 211.68 61.58 209.49C58.88 218.3 57.19 223.81 56.51 226.01C56.51 226.01 50.59 250 50.59 250C50.22 251.96 51.05 247.57 50.59 250C49.36 256.51 48.74 263.11 48.74 269.72C48.74 272.47 48.74 271.06 48.74 273.87C48.74 273.87 47.55 292.94 47.55 292.94C46.36 302.44 43.44 325.77 42.11 336.36C41.85 338.47 43.56 340.31 45.7 340.18C52.61 339.77 61.59 339.24 66.59 338.95C75.7 338.41 84.84 338.59 93.93 339.47C100.99 340.15 116.86 341.69 126 342.58C127.67 342.74 129.06 341.36 128.92 339.69C128.53 335.27 127.55 324.22 125.99 306.54C126.09 304.83 126.54 296.26 127.37 280.82L129.2 266.45C129.2 259.74 129.2 256.01 129.2 255.26C128.03 250.61 127.31 247.69 127.01 246.53C126.39 244 127.17 241.34 129.05 239.55C130.95 237.74 128.12 240.44 128.65 239.93C135 233.92 143.52 230.73 152.26 231.12C152.78 231.14 149.44 230.99 152.15 231.11C153.37 231.17 154.18 229.91 153.65 228.82C150.17 221.74 144.51 210.22 141.92 204.96C138.25 197.49 132.12 191.53 124.54 188.07C121.56 186.7 117.27 184.74 112.53 182.58C110.68 181.72 108.54 181.73 106.69 182.59C103.58 184.03 95.81 187.64 83.37 193.41C82.86 192.73 80.3 189.34 75.68 183.23L69.59 184.19C69.59 184.19 69.59 184.19 69.59 184.19Z" id="a2kzvNSHH4"></path><path d="M121.52 228.56C121.52 233.51 126.48 242.92 124.58 242.16C122.93 241.49 116.14 238.37 116.14 233.31C116.14 228.75 113.6 229.17 114.7 226.2C116.2 222.1 114.58 214.18 116.14 214.18C117.81 214.18 117.94 215.53 118.97 219.15C119.6 221.36 121.52 224.44 121.52 228.56Z" id="b9D0ULJ4WE"></path><path d="M117.03 214.18L126.01 240.78" id="cb2vxZ1Wk"></path><path d="M151.03 227.48C151.03 228.77 148.29 228.01 146.38 224.67C143.44 219.54 140.14 209.65 133.56 201.96C126.91 194.17 113.49 186.37 111.47 186.37C106.16 186.37 96.48 194.56 96.48 189.26C96.48 186.44 99.88 186.84 102.06 185.41C104 184.15 107.77 181.94 110.27 181.94C112.6 181.94 124.86 186.03 133.56 195.42C144.64 207.38 151.03 224.5 151.03 227.48Z" id="bJhvZ3Nky"></path></defs><g><g><g><use xlink:href="#e1onVi39eX" opacity="1" fill="#0313fb" fill-opacity="1"></use><g><use xlink:href="#e1onVi39eX" opacity="1" fill-opacity="0" stroke="#000000" stroke-width="1" stroke-opacity="0"></use></g></g><g><use xlink:href="#a2kzvNSHH4" opacity="1" fill="#000000" fill-opacity="0"></use><g><use xlink:href="#a2kzvNSHH4" opacity="1" fill-opacity="0" stroke="#000000" stroke-width="3" stroke-opacity="1"></use></g></g><g><use xlink:href="#b9D0ULJ4WE" opacity="1" fill="#0e18b3" fill-opacity="1"></use><g><use xlink:href="#b9D0ULJ4WE" opacity="1" fill-opacity="0" stroke="#000000" stroke-width="1" stroke-opacity="0"></use></g></g><g><use xlink:href="#cb2vxZ1Wk" opacity="1" fill="#000000" fill-opacity="0"></use><g><use xlink:href="#cb2vxZ1Wk" opacity="1" fill-opacity="0" stroke="#000000" stroke-width="3" stroke-opacity="1"></use></g></g><g><use xlink:href="#bJhvZ3Nky" opacity="1" fill="#0e18b3" fill-opacity="1"></use><g><use xlink:href="#bJhvZ3Nky" opacity="1" fill-opacity="0" stroke="#000000" stroke-width="1" stroke-opacity="0"></use></g></g></g></g></svg>