<?xml version="1.0" encoding="UTF-8" standalone="no"?>
<!DOCTYPE svg PUBLIC "-//W3C//DTD SVG 1.1//EN" "http://www.w3.org/Graphics/SVG/1.1/DTD/svg11.dtd">
<svg version="1.1" xmlns="http://www.w3.org/2000/svg" xmlns:xlink="http://www.w3.org/1999/xlink" preserveAspectRatio="xMidYMid meet" viewBox="230.30000305175804 374.08759784337235 170.219789133368 243.59510331358035" width="165.72" height="239.1"><defs><path d="M314.52 376.41C338.4 376.92 353.32 377.25 359.29 377.37C361.7 377.43 363.63 379.4 363.63 381.81C363.63 383.1 363.63 386.32 363.63 391.47C339.71 389.87 324.76 388.87 318.78 388.47C318.78 388.47 308.79 388.31 308.79 388.31C302.14 388.54 287.17 389.06 280.51 389.29C277.78 389.39 275.51 387.2 275.51 384.47C275.51 382.67 275.51 382.27 275.51 380.47C275.51 377.73 277.77 375.52 280.51 375.59C285.05 375.7 296.38 375.97 314.52 376.41Z" id="bxUVd0MhC"></path><path d="M317.55 388.42C340.86 389.75 355.43 390.58 361.26 390.91C361.86 390.94 362.35 391.39 362.43 391.98C362.62 393.27 363.09 396.5 363.85 401.65C363.85 401.65 363.85 401.65 363.85 401.65C352.82 408.98 348.12 422.82 352.38 435.35C352.72 436.34 351.37 432.38 352.93 436.95C353.69 439.19 354.77 441.3 356.14 443.21C357.37 444.93 360.44 449.22 365.36 456.09L370.62 473.45L377.19 474.3C377.74 478.24 378.08 480.7 378.22 481.68C378.4 482.92 377.39 484.01 376.14 483.93C368.9 483.45 350.81 482.27 321.87 480.37C295.44 480.9 278.93 481.22 272.32 481.35C270.5 481.39 269.06 479.84 269.23 478.03C270.88 460.11 275.68 408.09 277.37 389.76C277.44 389 278.08 388.42 278.84 388.42C284 388.42 296.91 388.42 317.55 388.42Z" id="b1D8G7ZV3N"></path><path d="M334.27 564.68C337.45 566.93 326.38 568.08 322.37 571.49C316.36 576.61 313.79 586.08 313.79 589.16C313.79 590.07 313.21 598 315.64 602.71C318.55 608.35 325.95 611.39 323.89 612.25C310.91 617.72 253.81 612.25 246.8 612.25C235.76 612.25 231.8 603.2 231.8 592.16C231.8 581.12 242.76 564.68 253.8 564.68C258.88 564.68 332.97 563.76 334.27 564.68Z" id="bbYOInUY9"></path><path d="M277.88 566.81C278.05 570.15 280.16 581.72 277.88 581.72C275.61 581.72 265.76 586.22 265.76 581.72C265.76 577.21 264.98 564.68 267.26 564.68C269.53 564.68 277.72 563.47 277.88 566.81Z" id="e3XDx3nbW8"></path><path d="M328.5 534.02C328.78 538.83 331.94 552.14 331.94 556.51C331.94 557.98 334.22 563.38 332.56 564.68C326.29 569.56 316.09 571.46 308.76 571.46C302.37 571.46 283.52 573.25 281.03 564.27C279.91 560.24 283.32 538.76 283.32 536.59C283.32 529.6 294.83 532.93 304.1 532.93C307.57 532.93 328.22 529.22 328.5 534.02Z" id="a4HwjsWcTR"></path><path d="" id="a15Ksa7cu"></path><path d="M391.79 568.06C399.6 572.41 397.16 591.21 397.16 595.91C397.16 600.43 397.38 608.39 390.39 611.56C380.34 616.13 359.74 613.01 353.23 613.01C349.2 613.01 331.51 614.31 325.44 612.25C314.88 608.68 313.79 596.42 313.79 589.41C313.79 582.67 319.84 572.08 329.54 568.06C335.74 565.49 351.98 566.56 356.28 566.56C362.63 566.56 381.23 562.18 391.79 568.06Z" id="b3KcaaE2GO"></path><path d="M344.13 578.63C342.76 577.11 333.3 569.58 334 567.97C334.67 566.43 342.42 566.31 342.42 566.31C345.59 565.66 342.9 565.41 345.9 566.31C348.73 567.16 357.7 572.83 358.04 574.09C358.38 575.36 346.24 580.95 344.13 578.63Z" id="h3nhKTtoHI"></path><path d="M388.05 533.16C393.72 534.5 395.1 568.54 395.1 569.35C395.1 572.11 365.66 566.31 362.9 566.31C362.17 566.31 356.84 566.21 351.94 565.95C348.61 565.76 345.48 565.95 344.13 564.27C339.99 559.11 342.55 548.09 342.55 546.55C342.55 543.79 340.74 533.95 343.5 533.95C345.44 533.95 374.5 529.95 388.05 533.16Z" id="d8FCI7L8X3"></path><path d="M350.17 436.8L347.22 431.68L348.24 419.77C349.14 414.74 349.71 411.61 349.94 410.35C350.7 406.11 350.5 401.75 349.36 397.59C349.36 397.59 349.36 397.59 349.36 397.59C348.22 395.73 345.4 393.06 346.41 391.47C347.37 389.97 351.56 391.01 353.6 391.12C355.49 391.23 358.21 390.41 360.03 391.47C361.85 392.53 361.14 391.53 361.71 394.81C362.29 398.09 361.76 400.46 361.71 400.53C361.17 401.45 358.91 402.35 357.93 404.48C356.91 406.7 355.58 407.84 354.08 409.73C352.76 411.39 351.64 413.85 350.72 417.1L349.36 423.14L349.36 429.45C349.88 430.9 350.21 431.8 350.34 432.16C350.34 432.16 351.1 434.23 351.1 434.23C352.81 438.79 353.8 441.34 354.08 441.89C354.48 442.67 360.59 451.49 360.67 452.29C360.83 453.92 360.89 449.95 364.3 457.64C366.07 461.6 366.35 466.73 368.64 471.61C369.57 473.6 375.54 472.74 376.56 474.4C377.51 475.95 377.29 477.63 377.11 479.03C376.87 480.82 377 482.15 376.56 482.19C374.19 482.36 372.09 482.35 369.7 481.69C367.7 481.13 365.5 479.95 362.77 475.4C361.44 473.2 360.1 469.55 358.75 464.46C358.75 464.46 353.01 445.31 353.01 445.31C352.63 444.17 351.68 441.34 350.17 436.8Z" id="a3MFx2ha"></path><path d="M362.15 387.53C362.15 389.76 361.76 389.42 360.03 389.4C357.49 389.38 352.94 388.92 349.65 388.92C345.6 388.92 344.5 390.35 345.15 385.95C345.39 384.36 345.15 382.74 345.15 381.28C345.15 379.32 346.03 379.31 347.42 379.03C349.93 378.51 354.09 379.03 357.65 379.03C363.17 379.03 362.15 382.01 362.15 387.53Z" id="b6QUNP7zRm"></path><path d="M390.81 571.49C392.46 571.07 393.57 571.39 394.15 572.45C395.52 575 395.44 578.21 395.66 579.99C396.27 585.02 395.66 588.85 395.66 591.49C395.66 596.57 396.15 603.88 393.57 607.41C390.55 611.55 382.87 612.35 376.91 612.35C365.87 612.35 389.38 607.87 389.38 596.83C389.38 591.12 389.86 582.68 390.81 571.49Z" id="a5TEGVgGn"></path><path d="M313.79 581.27C310.89 586.36 313.79 599.95 313.79 602.79C313.79 604.7 321.5 611.44 320 611.76C317.16 612.37 317.4 613.01 313.79 613.01C308.27 613.01 306.99 596.31 306.99 590.79C306.99 585.27 313.05 572.45 318.57 572.45C321.25 572.45 316.52 576.49 313.79 581.27Z" id="dqs0eTOvQ"></path><path d="M247.67 574.09C242.96 579.23 237.84 586.92 237.84 588.31C237.84 591.07 238.03 600.62 235.27 600.62C233.41 600.62 232.9 593.67 233.74 588.31C234.15 585.73 236.02 583.51 236.02 582.62C236.02 581.35 238.75 575.68 241.7 572.45C243.47 570.52 247.06 567.87 250.36 566.81C253.53 565.79 256.42 566.31 257.15 566.31C258.51 566.31 252.29 569.06 247.67 574.09Z" id="e9K22rgTu"></path><path d="M323.89 582.93C323.89 585.61 323.72 588.58 323.21 593.83C322.68 599.4 326.06 605.83 323.21 605.83C317.69 605.83 315.64 597.35 315.64 591.83C315.64 589.4 316.43 584.9 318.53 580.63C321.22 575.18 327.2 570.1 330.29 570.1C335.81 570.1 323.89 577.41 323.89 582.93Z" id="bcujmboGc9"></path></defs><g><g><use xlink:href="#bxUVd0MhC" opacity="1" fill="#c41111" fill-opacity="1"></use><g><use xlink:href="#bxUVd0MhC" opacity="1" fill-opacity="0" stroke="#000000" stroke-width="3" stroke-opacity="1"></use></g></g><g><use xlink:href="#b1D8G7ZV3N" opacity="1" fill="#c41111" fill-opacity="1"></use><g><use xlink:href="#b1D8G7ZV3N" opacity="1" fill-opacity="0" stroke="#000000" stroke-width="3" stroke-opacity="1"></use></g></g><g><use xlink:href="#bbYOInUY9" opacity="1" fill="#c41111" fill-opacity="1"></use><g><use xlink:href="#bbYOInUY9" opacity="1" fill-opacity="0" stroke="#000000" stroke-width="3" stroke-opacity="1"></use></g></g><g><use xlink:href="#e3XDx3nbW8" opacity="1" fill="#c5c5c5" fill-opacity="1"></use><g><use xlink:href="#e3XDx3nbW8" opacity="1" fill-opacity="0" stroke="#000000" stroke-width="3" stroke-opacity="1"></use></g></g><g><use xlink:href="#a4HwjsWcTR" opacity="1" fill="#ddd1dc" fill-opacity="1"></use><g><use xlink:href="#a4HwjsWcTR" opacity="1" fill-opacity="0" stroke="#000000" stroke-width="3" stroke-opacity="1"></use></g></g><g><g><use xlink:href="#a15Ksa7cu" opacity="1" fill-opacity="0" stroke="#000000" stroke-width="3" stroke-opacity="1"></use></g></g><g><g><filter id="shadow8672380" x="304.79" y="555.99" width="102.73" height="68.06" filterUnits="userSpaceOnUse" primitiveUnits="userSpaceOnUse"><feFlood></feFlood><feComposite in2="SourceAlpha" operator="in"></feComposite><feGaussianBlur stdDeviation="1"></feGaussianBlur><feOffset dx="1" dy="1" result="afterOffset"></feOffset><feFlood flood-color="#000000" flood-opacity="0.5"></feFlood><feComposite in2="afterOffset" operator="in"></feComposite><feMorphology operator="dilate" radius="1"></feMorphology><feComposite in2="SourceAlpha" operator="out"></feComposite></filter><path d="M391.79 568.06C399.6 572.41 397.16 591.21 397.16 595.91C397.16 600.43 397.38 608.39 390.39 611.56C380.34 616.13 359.74 613.01 353.23 613.01C349.2 613.01 331.51 614.31 325.44 612.25C314.88 608.68 313.79 596.42 313.79 589.41C313.79 582.67 319.84 572.08 329.54 568.06C335.74 565.49 351.98 566.56 356.28 566.56C362.63 566.56 381.23 562.18 391.79 568.06Z" id="b1sNC9LYlN" fill="white" fill-opacity="1" filter="url(#shadow8672380)"></path></g><use xlink:href="#b3KcaaE2GO" opacity="1" fill="#c41111" fill-opacity="1"></use><g><use xlink:href="#b3KcaaE2GO" opacity="1" fill-opacity="0" stroke="#000000" stroke-width="3" stroke-opacity="1"></use></g></g><g><use xlink:href="#h3nhKTtoHI" opacity="1" fill="#c5c5c5" fill-opacity="1"></use><g><use xlink:href="#h3nhKTtoHI" opacity="1" fill-opacity="0" stroke="#000000" stroke-width="3" stroke-opacity="1"></use></g></g><g><use xlink:href="#d8FCI7L8X3" opacity="1" fill="#c5c5c5" fill-opacity="1"></use><g><use xlink:href="#d8FCI7L8X3" opacity="1" fill-opacity="0" stroke="#000000" stroke-width="3" stroke-opacity="1"></use></g></g><g><use xlink:href="#a3MFx2ha" opacity="1" fill="#860d0d" fill-opacity="1"></use></g><g><use xlink:href="#b6QUNP7zRm" opacity="1" fill="#860d0d" fill-opacity="1"></use></g><g><use xlink:href="#a5TEGVgGn" opacity="1" fill="#951010" fill-opacity="1"></use></g><g><use xlink:href="#dqs0eTOvQ" opacity="1" fill="#951010" fill-opacity="1"></use></g><g><use xlink:href="#e9K22rgTu" opacity="1" fill="#df1818" fill-opacity="1"></use></g><g><use xlink:href="#bcujmboGc9" opacity="1" fill="#df1818" fill-opacity="1"></use></g></g></svg>