<?xml version="1.0" encoding="UTF-8" standalone="no"?>
<!DOCTYPE svg PUBLIC "-//W3C//DTD SVG 1.1//EN" "http://www.w3.org/Graphics/SVG/1.1/DTD/svg11.dtd">
<svg version="1.1" xmlns="http://www.w3.org/2000/svg" xmlns:xlink="http://www.w3.org/1999/xlink" preserveAspectRatio="xMidYMid meet" viewBox="0 0 191 573" width="191" height="573"><defs><path d="M125.04 331.55C127.38 331.61 129.25 333.52 129.25 335.85C129.25 337.1 129.25 340.22 129.25 345.22C106.06 343.67 91.57 342.7 85.78 342.31C85.78 342.31 76.09 342.15 76.09 342.15C69.65 342.38 55.13 342.88 48.68 343.1C46.03 343.2 43.83 341.08 43.83 338.43C43.83 336.69 43.83 336.3 43.83 334.55C43.83 331.9 46.02 329.76 48.68 329.82C53.08 329.93 64.06 330.19 81.65 330.62C104.79 331.11 119.26 331.43 125.04 331.55Z" id="g5NvDewF0"></path><path d="M125.04 331.55C127.38 331.61 129.25 333.52 129.25 335.85C129.25 337.1 129.25 340.22 129.25 345.22C106.06 343.67 91.57 342.7 85.78 342.31C85.78 342.31 76.09 342.15 76.09 342.15C69.65 342.38 55.13 342.88 48.68 343.1C46.03 343.2 43.83 341.08 43.83 338.43C43.83 336.69 43.83 336.3 43.83 334.55C43.83 331.9 46.02 329.76 48.68 329.82C53.08 329.93 64.06 330.19 81.65 330.62C104.79 331.11 119.26 331.43 125.04 331.55Z" id="a1BLWqRM8T"></path><path d="M126.95 344.67C127.53 344.7 128.01 345.14 128.09 345.71C128.27 346.96 128.73 350.09 129.46 355.08C129.46 355.08 129.46 355.08 129.46 355.08C118.77 362.19 114.22 375.61 118.35 387.75C118.67 388.71 117.37 384.87 118.88 389.3C119.62 391.47 120.66 393.52 121.99 395.37C123.18 397.04 126.16 401.2 130.93 407.86C131.27 408.98 132.97 414.59 136.03 424.68C139.85 425.18 141.97 425.45 142.39 425.51C142.93 429.33 143.26 431.71 143.39 432.66C143.57 433.86 142.59 434.92 141.38 434.84C134.36 434.38 116.82 433.23 88.77 431.39C63.15 431.9 47.15 432.21 40.74 432.34C38.98 432.38 37.58 430.88 37.74 429.12C39.34 411.75 44 361.33 45.64 343.56C45.7 342.82 46.32 342.26 47.06 342.26C52.06 342.26 64.58 342.26 84.58 342.26C107.18 343.55 121.3 344.35 126.95 344.67Z" id="m2ysMX6ZJ"></path><path d="M126.95 344.67C127.53 344.7 128.01 345.14 128.09 345.71C128.27 346.96 128.73 350.09 129.46 355.08C129.46 355.08 129.46 355.08 129.46 355.08C118.77 362.19 114.22 375.61 118.35 387.75C118.67 388.71 117.37 384.87 118.88 389.3C119.62 391.47 120.66 393.52 121.99 395.37C123.18 397.04 126.16 401.2 130.93 407.86C131.27 408.98 132.97 414.59 136.03 424.68C139.85 425.18 141.97 425.45 142.39 425.51C142.93 429.33 143.26 431.71 143.39 432.66C143.57 433.86 142.59 434.92 141.38 434.84C134.36 434.38 116.82 433.23 88.77 431.39C63.15 431.9 47.15 432.21 40.74 432.34C38.98 432.38 37.58 430.88 37.74 429.12C39.34 411.75 44 361.33 45.64 343.56C45.7 342.82 46.32 342.26 47.06 342.26C52.06 342.26 64.58 342.26 84.58 342.26C107.18 343.55 121.3 344.35 126.95 344.67Z" id="axQunyNjG"></path><path d="M89.26 519.72C83.43 524.68 80.94 533.86 80.94 536.84C80.94 537.73 80.38 545.41 82.73 549.98C85.55 555.45 92.73 558.39 90.73 559.23C78.15 564.53 22.8 559.23 16 559.23C5.3 559.23 1.46 550.45 1.46 539.75C1.46 529.05 12.09 513.12 22.79 513.12C27.71 513.12 99.53 512.22 100.79 513.12C103.87 515.3 93.14 516.41 89.26 519.72Z" id="a3QBdjUXdx"></path><path d="M89.26 519.72C83.43 524.68 80.94 533.86 80.94 536.84C80.94 537.73 80.38 545.41 82.73 549.98C85.55 555.45 92.73 558.39 90.73 559.23C78.15 564.53 22.8 559.23 16 559.23C5.3 559.23 1.46 550.45 1.46 539.75C1.46 529.05 12.09 513.12 22.79 513.12C27.71 513.12 99.53 512.22 100.79 513.12C103.87 515.3 93.14 516.41 89.26 519.72Z" id="a2DmNcpIq8"></path><path d="M46.13 529.63C43.93 529.63 34.38 533.99 34.38 529.63C34.38 525.26 33.63 513.12 35.84 513.12C38.04 513.12 45.97 511.94 46.13 515.18C46.29 518.42 48.34 529.63 46.13 529.63Z" id="k1316IHqNE"></path><path d="M46.13 529.63C43.93 529.63 34.38 533.99 34.38 529.63C34.38 525.26 33.63 513.12 35.84 513.12C38.04 513.12 45.97 511.94 46.13 515.18C46.29 518.42 48.34 529.63 46.13 529.63Z" id="f2xgJlckie"></path><path d="M98.53 505.2C98.53 506.62 100.74 511.86 99.13 513.12C93.06 517.85 83.17 519.69 76.06 519.69C69.87 519.69 51.6 521.42 49.18 512.72C48.1 508.81 51.4 487.99 51.4 485.89C51.4 479.11 62.56 482.34 71.55 482.34C74.91 482.34 94.93 478.74 95.2 483.4C95.47 488.06 98.53 500.96 98.53 505.2Z" id="bgi7y9mo9"></path><path d="M98.53 505.2C98.53 506.62 100.74 511.86 99.13 513.12C93.06 517.85 83.17 519.69 76.06 519.69C69.87 519.69 51.6 521.42 49.18 512.72C48.1 508.81 51.4 487.99 51.4 485.89C51.4 479.11 62.56 482.34 71.55 482.34C74.91 482.34 94.93 478.74 95.2 483.4C95.47 488.06 98.53 500.96 98.53 505.2Z" id="a31UIG3unc"></path><path d="M161.75 543.39C161.75 547.77 161.97 555.48 155.19 558.56C145.45 562.99 125.48 559.96 119.17 559.96C115.26 559.96 98.12 561.22 92.23 559.23C82 555.77 80.94 543.88 80.94 537.09C80.94 530.55 86.8 520.29 96.21 516.39C102.22 513.9 117.96 514.94 122.13 514.94C128.28 514.94 146.31 510.69 156.55 516.39C164.12 520.61 161.75 538.83 161.75 543.39Z" id="b3uFJykdAg"></path><path d="M161.75 543.39C161.75 547.77 161.97 555.48 155.19 558.56C145.45 562.99 125.48 559.96 119.17 559.96C115.26 559.96 98.12 561.22 92.23 559.23C82 555.77 80.94 543.88 80.94 537.09C80.94 530.55 86.8 520.29 96.21 516.39C102.22 513.9 117.96 514.94 122.13 514.94C128.28 514.94 146.31 510.69 156.55 516.39C164.12 520.61 161.75 538.83 161.75 543.39Z" id="d10zPrhn1C"></path><path d="M100.53 516.3C101.18 514.81 108.69 514.7 108.69 514.7C111.76 514.07 109.16 513.82 112.06 514.7C114.81 515.52 123.5 521.02 123.83 522.24C124.16 523.47 112.39 528.89 110.35 526.64C109.02 525.16 99.85 517.86 100.53 516.3Z" id="h7C4ie2pv"></path><path d="M100.53 516.3C101.18 514.81 108.69 514.7 108.69 514.7C111.76 514.07 109.16 513.82 112.06 514.7C114.81 515.52 123.5 521.02 123.83 522.24C124.16 523.47 112.39 528.89 110.35 526.64C109.02 525.16 99.85 517.86 100.53 516.3Z" id="a3CYe0mOus"></path><path d="M159.76 517.64C159.76 520.32 131.22 514.7 128.54 514.7C127.83 514.7 122.67 514.6 117.92 514.35C114.69 514.16 111.66 514.35 110.35 512.72C106.34 507.72 108.82 497.03 108.82 495.54C108.82 492.87 107.06 483.33 109.74 483.33C111.62 483.33 139.79 479.45 152.92 482.56C158.42 483.86 159.76 516.86 159.76 517.64Z" id="a6mVClmCu2"></path><path d="M159.76 517.64C159.76 520.32 131.22 514.7 128.54 514.7C127.83 514.7 122.67 514.6 117.92 514.35C114.69 514.16 111.66 514.35 110.35 512.72C106.34 507.72 108.82 497.03 108.82 495.54C108.82 492.87 107.06 483.33 109.74 483.33C111.62 483.33 139.79 479.45 152.92 482.56C158.42 483.86 159.76 516.86 159.76 517.64Z" id="e5m6CN9jZB"></path><path d="M113.34 384.19C113.94 377.27 114.27 373.42 114.33 372.65C115.2 367.77 115.76 364.74 115.98 363.52C116.72 359.41 116.52 355.18 115.42 351.15C115.42 351.15 115.42 351.15 115.42 351.15C114.31 349.35 111.58 346.76 112.56 345.22C113.49 343.76 117.55 344.77 119.53 344.88C121.36 344.98 124 344.19 125.76 345.22C127.52 346.24 126.84 345.27 127.39 348.45C127.95 351.63 127.44 353.93 127.39 354C126.87 354.89 124.67 355.76 123.73 357.83C122.74 359.98 121.45 361.08 119.99 362.92C118.71 364.53 117.63 366.91 116.74 370.06C116.65 370.45 116.21 372.4 115.42 375.92C115.42 379.59 115.42 381.62 115.42 382.03C115.92 383.44 116.24 384.31 116.37 384.66C116.37 384.66 117.1 386.67 117.1 386.67C118.76 391.09 119.72 393.56 119.99 394.09C120.38 394.85 126.3 403.4 126.38 404.17C126.54 405.75 126.59 401.9 129.9 409.36C131.62 413.2 131.89 418.17 134.11 422.9C135.01 424.83 140.8 423.99 141.78 425.6C142.7 427.11 142.49 428.73 142.32 430.09C142.08 431.83 142.21 433.12 141.78 433.15C139.49 433.32 137.45 433.31 135.13 432.67C133.2 432.13 131.06 430.98 128.42 426.57C127.13 424.44 125.83 420.9 124.52 415.97C124.52 415.97 118.96 397.41 118.96 397.41C118.59 396.3 117.67 393.56 116.2 389.16C115.82 388.49 114.87 386.84 113.34 384.19Z" id="c92LKN7z5"></path><path d="M125.76 343.21C123.3 343.19 118.89 342.74 115.7 342.74C111.77 342.74 110.71 344.13 111.34 339.87C111.57 338.32 111.34 336.75 111.34 335.34C111.34 333.44 112.19 333.43 113.54 333.16C115.97 332.65 120 333.16 123.45 333.16C128.8 333.16 127.82 336.05 127.82 341.4C127.82 343.56 127.44 343.23 125.76 343.21Z" id="a1MwFNft5"></path><path d="M158.83 520.65C160.16 523.12 160.08 526.23 160.3 527.96C160.89 532.83 160.3 536.54 160.3 539.1C160.3 544.03 160.77 551.11 158.27 554.53C155.34 558.55 147.9 559.32 142.12 559.32C131.42 559.32 154.21 554.98 154.21 544.28C154.21 538.74 154.68 530.56 155.6 519.72C157.2 519.31 158.27 519.62 158.83 520.65Z" id="cYmS2ry3F"></path><path d="M80.94 550.06C80.94 551.91 88.41 558.44 86.96 558.75C84.21 559.34 84.44 559.96 80.94 559.96C75.59 559.96 74.35 543.78 74.35 538.42C74.35 533.07 80.22 520.65 85.57 520.65C88.17 520.65 83.58 524.56 80.94 529.2C78.13 534.13 80.94 547.3 80.94 550.06Z" id="dadP1D1S9"></path><path d="M7.32 536.02C7.32 538.7 7.5 547.95 4.83 547.95C3.02 547.95 2.53 541.22 3.34 536.02C3.74 533.52 5.55 531.37 5.55 530.51C5.55 529.27 8.2 523.78 11.06 520.65C12.77 518.78 16.25 516.21 19.45 515.18C22.53 514.19 25.33 514.7 26.04 514.7C27.35 514.7 21.32 517.36 16.85 522.24C12.28 527.22 7.32 534.67 7.32 536.02Z" id="bneOVw2Nr"></path><path d="M90.07 541.37C89.56 546.77 92.83 553 90.07 553C84.72 553 82.73 544.78 82.73 539.43C82.73 537.08 83.5 532.72 85.53 528.58C88.14 523.29 93.94 518.37 96.93 518.37C102.28 518.37 90.73 525.45 90.73 530.81C90.73 533.4 90.56 536.28 90.07 541.37Z" id="l5Blcw7vIH"></path></defs><g><g><g><use xlink:href="#g5NvDewF0" opacity="1" fill="#c41111" fill-opacity="1"></use><g><use xlink:href="#g5NvDewF0" opacity="1" fill-opacity="0" stroke="#000000" stroke-width="1" stroke-opacity="0"></use></g></g><g><use xlink:href="#a1BLWqRM8T" opacity="1" fill="#000000" fill-opacity="0"></use><g><use xlink:href="#a1BLWqRM8T" opacity="1" fill-opacity="0" stroke="#000000" stroke-width="3" stroke-opacity="1"></use></g></g><g><use xlink:href="#m2ysMX6ZJ" opacity="1" fill="#c41111" fill-opacity="1"></use><g><use xlink:href="#m2ysMX6ZJ" opacity="1" fill-opacity="0" stroke="#000000" stroke-width="1" stroke-opacity="0"></use></g></g><g><use xlink:href="#axQunyNjG" opacity="1" fill="#000000" fill-opacity="0"></use><g><use xlink:href="#axQunyNjG" opacity="1" fill-opacity="0" stroke="#000000" stroke-width="3" stroke-opacity="1"></use></g></g><g><use xlink:href="#a3QBdjUXdx" opacity="1" fill="#c41111" fill-opacity="1"></use><g><use xlink:href="#a3QBdjUXdx" opacity="1" fill-opacity="0" stroke="#000000" stroke-width="1" stroke-opacity="0"></use></g></g><g><use xlink:href="#a2DmNcpIq8" opacity="1" fill="#000000" fill-opacity="0"></use><g><use xlink:href="#a2DmNcpIq8" opacity="1" fill-opacity="0" stroke="#000000" stroke-width="3" stroke-opacity="1"></use></g></g><g><use xlink:href="#k1316IHqNE" opacity="1" fill="#c5c5c5" fill-opacity="1"></use><g><use xlink:href="#k1316IHqNE" opacity="1" fill-opacity="0" stroke="#000000" stroke-width="1" stroke-opacity="0"></use></g></g><g><use xlink:href="#f2xgJlckie" opacity="1" fill="#000000" fill-opacity="0"></use><g><use xlink:href="#f2xgJlckie" opacity="1" fill-opacity="0" stroke="#000000" stroke-width="3" stroke-opacity="1"></use></g></g><g><use xlink:href="#bgi7y9mo9" opacity="1" fill="#ddd1dc" fill-opacity="1"></use><g><use xlink:href="#bgi7y9mo9" opacity="1" fill-opacity="0" stroke="#000000" stroke-width="1" stroke-opacity="0"></use></g></g><g><use xlink:href="#a31UIG3unc" opacity="1" fill="#000000" fill-opacity="0"></use><g><use xlink:href="#a31UIG3unc" opacity="1" fill-opacity="0" stroke="#000000" stroke-width="3" stroke-opacity="1"></use></g></g><g><use xlink:href="#b3uFJykdAg" opacity="1" fill="#c41111" fill-opacity="1"></use><g><use xlink:href="#b3uFJykdAg" opacity="1" fill-opacity="0" stroke="#000000" stroke-width="1" stroke-opacity="0"></use></g></g><g><use xlink:href="#d10zPrhn1C" opacity="1" fill="#000000" fill-opacity="0"></use><g><use xlink:href="#d10zPrhn1C" opacity="1" fill-opacity="0" stroke="#000000" stroke-width="3" stroke-opacity="1"></use></g></g><g><use xlink:href="#h7C4ie2pv" opacity="1" fill="#c5c5c5" fill-opacity="1"></use><g><use xlink:href="#h7C4ie2pv" opacity="1" fill-opacity="0" stroke="#000000" stroke-width="1" stroke-opacity="0"></use></g></g><g><use xlink:href="#a3CYe0mOus" opacity="1" fill="#000000" fill-opacity="0"></use><g><use xlink:href="#a3CYe0mOus" opacity="1" fill-opacity="0" stroke="#000000" stroke-width="3" stroke-opacity="1"></use></g></g><g><use xlink:href="#a6mVClmCu2" opacity="1" fill="#c5c5c5" fill-opacity="1"></use><g><use xlink:href="#a6mVClmCu2" opacity="1" fill-opacity="0" stroke="#000000" stroke-width="1" stroke-opacity="0"></use></g></g><g><use xlink:href="#e5m6CN9jZB" opacity="1" fill="#000000" fill-opacity="0"></use><g><use xlink:href="#e5m6CN9jZB" opacity="1" fill-opacity="0" stroke="#000000" stroke-width="3" stroke-opacity="1"></use></g></g><g><use xlink:href="#c92LKN7z5" opacity="1" fill="#860d0d" fill-opacity="1"></use><g><use xlink:href="#c92LKN7z5" opacity="1" fill-opacity="0" stroke="#000000" stroke-width="1" stroke-opacity="0"></use></g></g><g><use xlink:href="#a1MwFNft5" opacity="1" fill="#860d0d" fill-opacity="1"></use><g><use xlink:href="#a1MwFNft5" opacity="1" fill-opacity="0" stroke="#000000" stroke-width="1" stroke-opacity="0"></use></g></g><g><use xlink:href="#cYmS2ry3F" opacity="1" fill="#951010" fill-opacity="1"></use><g><use xlink:href="#cYmS2ry3F" opacity="1" fill-opacity="0" stroke="#000000" stroke-width="1" stroke-opacity="0"></use></g></g><g><use xlink:href="#dadP1D1S9" opacity="1" fill="#951010" fill-opacity="1"></use><g><use xlink:href="#dadP1D1S9" opacity="1" fill-opacity="0" stroke="#000000" stroke-width="1" stroke-opacity="0"></use></g></g><g><use xlink:href="#bneOVw2Nr" opacity="1" fill="#df1818" fill-opacity="1"></use><g><use xlink:href="#bneOVw2Nr" opacity="1" fill-opacity="0" stroke="#000000" stroke-width="1" stroke-opacity="0"></use></g></g><g><use xlink:href="#l5Blcw7vIH" opacity="1" fill="#df1818" fill-opacity="1"></use><g><use xlink:href="#l5Blcw7vIH" opacity="1" fill-opacity="0" stroke="#000000" stroke-width="1" stroke-opacity="0"></use></g></g></g></g></svg>