<?xml version="1.0" encoding="UTF-8" standalone="no"?>
<!DOCTYPE svg PUBLIC "-//W3C//DTD SVG 1.1//EN" "http://www.w3.org/Graphics/SVG/1.1/DTD/svg11.dtd">
<svg version="1.1" xmlns="http://www.w3.org/2000/svg" xmlns:xlink="http://www.w3.org/1999/xlink" preserveAspectRatio="xMidYMid meet" viewBox="396.05756295612207 371.1468268766114 45.58267600883437 38.33333333333371" width="40.58" height="33.33"><defs><path d="M434.1 379.25C439.32 381.55 438.61 387.63 438.61 392.04C438.61 399.1 429.81 401.83 420.61 401.83C415.46 401.83 403.01 402.2 399.22 398.64C396.24 395.84 399.94 392.48 399.94 389.37C399.94 382.32 400.74 379.25 409.94 379.25C413.39 379.25 430.97 377.87 434.1 379.25Z" id="b65xhECT5r"></path><path d="M438.64 389.81C438.64 399.01 431.87 406.48 423.54 406.48C415.21 406.48 408.44 399.01 408.44 389.81C408.44 380.61 415.21 373.15 423.54 373.15C431.87 373.15 438.64 380.61 438.64 389.81Z" id="cia2RMFNV"></path><path d="M430.63 399.59L423.54 388.59" id="ayWF3twR"></path><path d="M430.63 388.59L423.54 388.59" id="a7UAC5z1w6"></path></defs><g><g><use xlink:href="#b65xhECT5r" opacity="1" fill="#231e0a" fill-opacity="1"></use><g><use xlink:href="#b65xhECT5r" opacity="1" fill-opacity="0" stroke="#000000" stroke-width="4" stroke-opacity="1"></use></g></g><g><use xlink:href="#cia2RMFNV" opacity="1" fill="#a69968" fill-opacity="1"></use><g><use xlink:href="#cia2RMFNV" opacity="1" fill-opacity="0" stroke="#000000" stroke-width="4" stroke-opacity="1"></use></g></g><g><g><use xlink:href="#ayWF3twR" opacity="1" fill-opacity="0" stroke="#0d1846" stroke-width="2" stroke-opacity="1"></use></g></g><g><g><use xlink:href="#a7UAC5z1w6" opacity="1" fill-opacity="0" stroke="#0d1846" stroke-width="2" stroke-opacity="1"></use></g></g></g></svg>